<?xml version="1.0" encoding="utf-8"?>
<!-- Generator: Adobe Illustrator 19.1.1, SVG Export Plug-In . SVG Version: 6.00 Build 0)  -->
<svg version="1.1" id="_x31_0" xmlns="http://www.w3.org/2000/svg" xmlns:xlink="http://www.w3.org/1999/xlink" x="0px" y="0px"
	 viewBox="0 0 512 512" style="enable-background:new 0 0 512 512;" xml:space="preserve">
<style type="text/css">
	.st0{fill:#374149;}
</style>
<g>
	<polygon class="st0" points="85.398,91.293 84.91,90.785 84.91,90.785 84.797,90.672 65.906,108.851 119.34,170.687 
		141.211,149.649 141.262,149.602 141.258,149.602 141.375,149.492 	"/>
	<path class="st0" d="M59.863,101.844l0.008-0.004l0.102,0.121l25.046-24.09l139.098,144.55l28.418-28.418
		c4.574-4.574,9.058-9.336,13.527-14.211c0.512-0.539,1.039-1.066,1.547-1.598l-0.016-0.012c0.039-0.042,0.074-0.078,0.114-0.117
		L32.55,0L0,32.554l57.066,66.039L59.863,101.844z"/>
	<polygon class="st0" points="217.734,228.805 147.805,156.121 147.801,156.117 147.801,156.117 147.691,156 125.305,177.554 
		191.918,254.621 	"/>
	<polygon class="st0" points="283.195,294.262 259.199,318.258 257.481,319.961 257.488,319.965 257.375,320.078 334.45,386.695 
		356,364.313 	"/>
	<polygon class="st0" points="362.508,370.625 342.41,391.523 341.418,392.543 341.426,392.547 341.313,392.664 403.145,446.094 
		421.332,427.203 	"/>
	<path class="st0" d="M347.66,262.488l-13.648-18.042L334,244.457l-0.098-0.129c-5.485,4.973-10.813,10.035-15.91,15.137
		l-27.762,27.762l-0.543,0.539h0.004l-0.117,0.114l144.09,138.652l0.461,0.446l-22.836,23.754l-1.144,1.176l0.007,0.004
		l-0.109,0.117L479.446,512L512,479.45L347.66,262.488z"/>
	<path class="st0" d="M75.078,395.578l4.011,2.406c1.313,0.356,2.727-0.031,3.688-0.992l5.066-5.07l25.754-25.75
		c1.57-1.574,1.414-4.043,0-5.454c-0.351-0.355-0.77-0.64-1.316-0.804c-0.161-0.094-0.352-0.161-0.574-0.192l-7.859-4.199
		l-8.34-4.492l-59.043-31.722c-1.316-0.286-2.664,0.102-3.594,1.031L5.355,347.859c-1.57,1.57-1.414,4.039,0,5.45
		c0.477,0.48,1.055,0.801,1.762,0.996l60.2,36.527L75.078,395.578z"/>
	<path class="st0" d="M156.446,408.183l-4.36-8.082c-0.035-0.098-0.035-0.222-0.098-0.289c-0.16-0.672-0.476-1.184-0.93-1.633
		c-1.41-1.414-3.882-1.574-5.453-0.004l-26.653,26.652L114.785,429c-0.965,0.961-1.347,2.375-0.965,3.718l2.57,4.234l4.711,7.794
		l36.402,59.941c0.195,0.707,0.515,1.286,0.965,1.734c1.41,1.41,3.879,1.57,5.449-0.004l27.516-27.515
		c0.93-0.93,1.32-2.278,1.062-3.558l-31.594-58.79L156.446,408.183z"/>
	<path class="st0" d="M107.574,483.512l-19.703-18.801l-5.481-5.114l-1.16-1.129c1.711-1.114,3.203-2.156,4.618-3.125
		c0.074-0.074,0.301-0.149,0.374-0.223c4.418-3.074,7.192-5.394,7.192-5.394l-4.871-4.871l-1.02-1.066l5.59-3.351l11.914-11.91
		c0.598-2.25,1.719-4.274,3.367-5.922l30.789-30.789c5.094-5.094,13.184-5.094,18.282,0.003c0.386,0.383,0.703,0.734,1.027,1.153
		c0.008,0.031,0.047,0.05,0.058,0.082l0.004-0.007c0.035,0.042,0.074,0.07,0.11,0.117l146.527-146.531
		c5.695-5.691,11.614-11.309,17.684-16.926c19.175-17.383,40.449-34.012,63.222-49.598c12.89-8.688,23.375-17.226,31.543-25.391
		c15.656-15.66,54.832-65.926,30.191-90.57C423.183,39.5,372.914,78.68,357.258,94.336c-8.164,8.164-16.703,18.805-25.394,31.539
		c-15.508,22.847-32.211,44.05-49.594,63.226c-5.543,6.141-11.164,12.058-16.855,17.754L118.957,353.313l1.051,1.046
		c5.019,5.02,5.098,13.188,0,18.282l-30.79,30.789c-1.648,1.649-3.668,2.774-5.918,3.367l-11.164,11.164l-3.176,5.379l-0.746,1.187
		l-5.262-5.262l-0.578-0.602l-0.012,0.012l-0.113-0.114c0,0-2.246,2.848-5.395,7.191c0,0.153-0.148,0.301-0.222,0.375
		c-0.848,1.23-1.774,2.582-2.726,4.027c-0.164,0.211-0.262,0.379-0.442,0.598l-6.199-6.648l-18.801-19.703l-0.152-0.149
		c-1.946-1.945-5.168-2.023-7.192,0c-2.098,2.098-1.945,5.395,0.074,7.418l21.352,20.148l6.519,6.219
		c-5.172,9.062-9.594,19.176-7.942,26.07c0.375,1.726,1.199,3.148,2.398,4.347c1.195,1.195,2.618,2.02,4.344,2.394
		c6.816,1.574,17.004-2.769,26.066-7.941l6.218,6.519l20.153,21.352c2.098,2.094,5.32,2.171,7.418,0.074
		c2.024-2.023,2.024-5.172,0-7.191L107.574,483.512z M412.172,96.062c-5.844,3.446-12.887,2.394-15.734-2.402
		c-2.922-4.871-0.45-11.535,5.32-15.054c5.918-3.52,13.035-2.398,15.883,2.398C420.484,85.797,418.09,92.539,412.172,96.062z"/>
</g>
</svg>
