<?xml version="1.0" encoding="utf-8"?>
<svg version="1.1" id="_x31_0" xmlns="http://www.w3.org/2000/svg" xmlns:xlink="http://www.w3.org/1999/xlink" x="0px" y="0px"
	 viewBox="0 0 512 512" style="enable-background:new 0 0 512 512;" xml:space="preserve">
<g>
	<path class="st0" d="M454.355,302.172l-0.042-0.047h-0.004l-0.114-0.109l-12.16,12.16l-7.754,7.61l-5.942-66.458l17.808-11.39
		l27.399-27.234l0.14-0.141l0,0l0.114-0.113l-21.238-21.242l-0.047-0.043l0,0l-0.113-0.113l-26.699,26.699l-0.035,0.054
		l-0.278,0.274l-5.152-57.398l10.469-10.469c67.918-67.922,96.14-124.094,73.629-146.61c-22.485-22.484-78.66,5.738-146.582,73.661
		l-10.546,10.55l-35.004-3.137l-22.301-2.098l26.844-26.629l0.168-0.164h-0.004l0.113-0.114l-21.266-21.266l-0.046-0.046l0,0
		l-0.11-0.114l-26.703,26.699l-12.098,18.789l-40.844-3.675l-25.812-2.426l19.766-19.605l0.035-0.035l0,0l0.117-0.114
		l-21.426-21.426l-26.676,26.672l-7.394,11.422L69,66.907l-8.972-0.816L49.153,76.966l-38.23,38.23l-7.387,7.382l-3.441,3.34
		l0.078,0.023l-0.125,0.129l29.746,9.734l163.109,53.317l28.649,19.351l5.347,3.645l-30.023,30.023
		c-22.16,22.16-43.207,47.883-63.516,77.766l-68.843-7.614l-9.164-1.007l-32.336,32.336l-9.985,9.91l0.047,0.024l-0.117,0.121
		l23.656,11.961l53.89,27.355c-0.871,4.188-0.598,8.485,0.762,12.508l0.004,0.004l-21.66,29.894
		c-3.371,4.649,2.402,10.418,7.05,7.047l29.95-21.699c0,0,0.012,0.004,0.019,0.004c0.981,0.324,2.016,0.382,3.027,0.574
		c0.336,0.062,0.668,0.141,1.008,0.192c2.762,0.402,5.562,0.5,8.332-0.086l27.41,54l9.114,18l2.766,5.57l0.035-0.039l0.074,0.153
		l42.391-42.391l-1.035-9.187l-7.637-68.981c29.851-20.285,55.546-41.304,77.706-63.461l25.371-25.37l4.719-4.676l23.038,34.125
		l53.294,163.082l9.73,29.746l10.878-10.875l38.226-38.226l10.875-10.879l-0.785-8.945l-7.668-85.485l10.465-6.714l27.492-27.328
		l0.023-0.024l0,0l0.11-0.109L454.355,302.172z M437.801,343.68l-1.473,0.867l-0.648-7.43l0.437-0.707l18.078-18.082l5.086,5.086
		l-18.082,18.078L437.801,343.68z M163.543,466.711l-13.817-27.226l26.102-33.387l4.84,43.558l-13.183,13.184L163.543,466.711z
		 M133.485,392.375l14.285-17.383l0.027-0.027l16.938-20.582c1.797-2.176,2.5-4.188,2.45-5.821
		c-0.055-2.175-1.496-3.617-3.699-3.695c-1.633-0.054-3.618,0.68-5.794,2.473l-20.636,16.938l-0.082,0.082l-9.309,7.672
		l-8.394,6.734c6.797-11.914,14.254-24.32,22.574-37l1.058-1.442l-0.137-0.027c1.958-2.992,3.969-5.98,6.008-9
		c2.039-2.961,4.106-5.953,6.199-8.973c16.07-22.702,34.477-45.57,55.496-66.586l32.68-32.683l6.906-6.906l3.972-3.969l2.961-2.965
		l3.946-3.942l6.934-6.934l75.722-75.722l8.836-8.836l2.039-2.039l6.824-6.828l2.012-2.012l8.863-8.863
		c68.95-68.691,107.45-77.953,117.035-73.836c0.015,0.008,0.031,0.02,0.047,0.028c0.617,0.27,1.121,0.594,1.496,0.969
		c6.09,6.09,0.515,44.999-72.734,118.519l-8.863,8.863l-2.039,2.039l-6.797,6.797l-2.039,2.039l-8.84,8.839l-75.777,75.778
		l-6.962,6.957l-3.914,3.918l-2.965,2.965l-3.996,3.996l-6.879,6.879l-32.711,32.706c-20.988,20.993-43.828,39.371-66.531,55.387
		c-2.965,2.148-5.953,4.214-8.972,6.254c-3.02,2.039-6.008,4.051-9,6.008c-0.028,0.027-0.028,0.027-0.028,0.027
		c-11.168,7.309-22.038,13.89-32.613,20.058C137.223,390.282,135.387,391.332,133.485,392.375z M121.461,338.023
		c-7.625,11.918-15.171,24.458-22.605,37.649l-40.774-20.687l-12.726-6.512l17.066-17.066l41.25,4.574L121.461,338.023z
		 M167.496,75.622l3.059-4.774l18.082-18.082l5.11,5.113l-18.082,18.078l-0.652,0.438l-5.262-0.493L167.496,75.622z M269.719,84.832
		l7.801-12.191l18.082-18.078l5.11,5.109l-18.082,18.082l-11.363,7.285l-1.187-0.121L269.719,84.832z M46.707,106.598l18.539-18.538
		l2.012-2.012l77.656,6.961l8.945,0.79l4.051,0.351l9.379,0.844l93.101,8.32l3.234,0.297l39.883,3.574l25.902,2.422l-1.946,1.946
		l-8.836,8.836l-14.476,14.476l-13.696,13.485c0.543-0.711,1.082-1.426,1.637-2.129c0.762-0.992,1.555-1.996,2.344-2.996
		c0.328-0.36,0.617-0.797,0.957-1.122l-0.066-0.015c0.039-0.047,0.07-0.094,0.11-0.137l-10.008-2.664l-10.222-2.668l-65.774-17.317
		l-1.004,2.418l-0.882,2.172l-0.074,0.148l0.012,0.004l-0.062,0.153l62.019,19.984l9.844,3.152l6.519,2.122l2.782,0.976
		l-36.954,36.954l-39.343-26.566l-114.414-37.41L46.707,106.598z M405.367,465.32L351.23,299.758l-5.738-8.511l24.852-40.786
		l16.234,50.371l1.133,3.562l0.011-0.004l0.051,0.153l2.473-1.004l2.422-1.008l-16.344-61.965l17.078-28.007l8.402-13.786
		l-0.031-0.027l1.117-1.793l0.859-1.176l4.688,52.645l0.297,3.238l8.348,93.18l0.816,9.297l0.355,4.051l0.786,8.945L426,444.789
		l-2.012,2.012l-12.203,12.203L405.367,465.32z M427.191,242.305l-0.129-1.523l7.258-11.336l18.082-18.082l5.086,5.086
		l-18.082,18.082l-8.359,5.379L427.191,242.305z"/>
	<path class="st0" d="M428.602,54.099c-0.004,0.027-0.016,0.164-0.016,0.164s17.918-2.91,25.012,4.187
		c7.125,7.121,4.215,25.043,4.215,25.043s4.515-0.328,6.934-1.879c7.343-10.332,9.542-28.519,1.878-36.187
		c-7.641-7.641-25.859-5.465-36.164,1.902c-1.41,2.137-1.781,5.82-1.847,6.617c-0.008,0.023-0.028,0.149-0.035,0.156L428.602,54.099
		z"/>
</g>
</svg>
