<?xml version="1.0" encoding="utf-8"?>
<!-- Generator: Adobe Illustrator 19.1.1, SVG Export Plug-In . SVG Version: 6.00 Build 0)  -->
<svg version="1.1" id="_x31_0" xmlns="http://www.w3.org/2000/svg" xmlns:xlink="http://www.w3.org/1999/xlink" x="0px" y="0px"
	 viewBox="0 0 512 512" style="enable-background:new 0 0 512 512;" xml:space="preserve">
<style type="text/css">
	.st0{fill:#374149;}
</style>
<g>
	<path class="st0" d="M498.946,448.594l-155.43-212.61c12.046-9.972,25.015-19.714,38.558-28.996
		c12.511-8.472,23-16.945,31.242-25.187c23.781-23.778,60.034-77.383,27.152-110.27c-32.886-32.882-86.492,3.375-110.27,27.152
		c-8.098,8.098-16.602,18.618-25.218,31.211c-9.282,13.602-18.993,26.543-28.965,38.59L63.578,13.23L46.547,0L0,46.547
		l182.234,218.605l-61.504,61.5l-54.789-29.367l-2.422-1.269l-2.706-0.633c-3.262-0.727-6.528-0.59-9.692,0.011
		c-0.094,0.02-0.195,0.027-0.289,0.047c-1.39,0.281-2.722,0.699-4.039,1.226c-0.21,0.082-0.41,0.176-0.617,0.266
		c-2.711,1.176-5.282,2.687-7.442,4.848l-24.726,24.73c-9.309,9.308-9.309,24.406,0,33.718c1.988,1.988,4.293,3.602,6.801,4.726
		l49.254,29.946l-11.442,18.992c-0.328,0.383-1.117,1.394-2.152,2.797c-0.062,0.07-0.098,0.114-0.164,0.188l-15.84-16.645
		c-4.957-4.957-13.054-4.988-18.043,0c-4.984,4.984-4.984,13.054,0.23,18.27l20.465,19.484c-4.351,8.676-9.394,22.653-0.578,31.473
		c8.82,8.821,22.828,3.746,31.473-0.578l19.683,20.722c4.988,4.988,13.086,4.957,18.074-0.027
		c4.953-4.958,4.984-13.055-0.234-18.274L97.301,457.77l-2.172-2.102c1.488-1.141,2.516-1.946,2.977-2.289l18.965-11.414
		l29.801,49.054c1.125,2.508,2.738,4.813,4.726,6.801c9.309,9.309,24.41,9.309,33.719,0l24.73-24.73
		c5.793-5.789,8.183-14.062,6.367-22.102l-0.602-2.679l-30.524-56.981l61.562-61.562L465.457,512L512,465.453L498.946,448.594z
		 M125.687,357.379l-27.695,27.695c-0.867,0.863-2.133,1.21-3.343,0.863l-1.875-1.125l-5.188-3.168l-57.613-34.962
		c-0.602-0.144-1.153-0.461-1.555-0.863c-1.269-1.27-1.414-3.488,0-4.898l24.727-24.73c0.836-0.836,2.046-1.179,3.23-0.922
		l56.777,30.492l5.618,3.027l5.218,2.794c0.145,0.031,0.344,0.058,0.489,0.144c0.492,0.145,0.894,0.434,1.21,0.75
		C126.957,353.746,127.129,355.934,125.687,357.379z M137.062,172.77l-44.461-53.336l10-9.656l48.015,49.918l-12.706,12.274
		L137.062,172.77z M204.82,254.074l-59.91-71.898l14.21-13.692l64.383,66.922l-17.234,17.238L204.82,254.074z M266.492,191.785
		c-4.316,4.723-8.695,9.329-13.098,13.734l-21.082,21.082l-0.161,0.16L102.95,92.484L85.91,108.879L84.726,110L33.086,48.043
		l15.508-15.504l197.824,144.554L266.492,191.785z M126.754,413.836l27.696-27.695c1.441-1.442,3.633-1.27,4.902,0
		c0.375,0.375,0.692,0.863,0.836,1.469c0.028,0.086,0.028,0.144,0.055,0.23l2.914,5.449l3.024,5.618l30.378,56.546
		c0.258,1.184-0.086,2.395-0.922,3.23l-24.73,24.727c-1.41,1.41-3.629,1.266-4.898,0c-0.402-0.406-0.723-0.954-0.894-1.586
		l-34.813-57.351l-3.172-5.246l-1.27-2.074C125.543,415.969,125.89,414.699,126.754,413.836z M169.082,378.695
		c-0.344-0.402-0.688-0.801-1.086-1.199c-6.11-6.113-16.082-6.113-22.191-0.004l-27.695,27.699c-3.891,3.891-5.45,9.539-4.122,14.84
		L84.274,437.93L74.07,427.73l17.984-29.859c5.215,1.238,10.778-0.348,14.582-4.153l27.695-27.695
		c6.114-6.109,6.114-16.082,0-22.191c-0.316-0.316-0.691-0.637-1.035-0.922l128.742-128.742c4.785-4.785,9.511-9.742,14.152-14.844
		c3.629-3.976,7.262-8.07,10.805-12.25c2.469-2.894,4.836-6.024,7.266-9.012c1.043-1.278,2.078-2.562,3.114-3.859
		c4.965-6.215,9.832-12.594,14.609-19.164c0.86-1.18,1.715-2.363,2.566-3.558c2.414-3.367,4.902-6.602,7.262-10.059
		c7.839-11.469,15.507-21.038,22.797-28.328C358.703,99,403.894,63.782,426.058,85.942c22.164,22.164-13.058,67.355-27.148,81.449
		c-7.294,7.293-16.805,14.958-28.332,22.797c-3.434,2.344-6.653,4.821-10,7.215c-1.23,0.879-2.45,1.758-3.664,2.641
		c-6.535,4.758-12.891,9.602-19.082,14.55c-1.305,1.043-2.602,2.086-3.89,3.137c-2.985,2.434-6.118,4.797-9.016,7.274
		c-4.179,3.543-8.274,7.176-12.25,10.809c-5.129,4.668-10.059,9.363-14.844,14.148L178.988,368.805L169.082,378.695z
		 M257.926,307.16l18.668-18.664l66.894,64.355l-13.691,14.207l-66.043-55.023L257.926,307.16z M339.226,374.918l13.078-13.534
		l49.918,48.015l-9.656,10l-49.602-41.348L339.226,374.918z M402,427.258l17.367-18.05l0.035-0.039l0,0l0.114-0.118L287.652,282.172
		l-2.414-2.324l21.242-21.238c4.41-4.41,9.019-8.793,13.746-13.114L479.461,463.41l-15.504,15.504l-57.859-48.227L402,427.258z"/>
	<path class="st0" d="M372.851,116.687c0.211,0.25,0.406,0.508,0.649,0.734c0.535,0.496,1.082,0.93,1.73,1.286
		c0.062,0.035,0.141,0.054,0.203,0.086c1.406,0.73,2.992,1.098,4.711,1.145c0.109,0.004,0.203,0.035,0.308,0.035
		c0.063,0,0.126-0.02,0.188-0.023c1.008-0.012,1.988-0.126,3.019-0.383c0.023-0.004,0.047-0.016,0.07-0.023
		c1.051-0.266,2.114-0.493,3.137-1.031c5.875-3.07,8.59-9.473,6.066-14.297c-0.285-0.543-0.797-0.883-1.183-1.34
		c-0.215-0.254-0.41-0.516-0.657-0.742c-0.531-0.496-1.074-0.926-1.722-1.282c-0.074-0.042-0.156-0.062-0.23-0.101
		c-1.398-0.719-2.965-1.082-4.672-1.134c-0.114-0.003-0.207-0.034-0.32-0.034c-0.066,0-0.133,0.023-0.199,0.023
		c-1,0.011-1.977,0.125-3.008,0.382c-0.027,0.004-0.055,0.02-0.082,0.028c-1.05,0.266-2.109,0.492-3.129,1.027
		c-5.875,3.07-8.59,9.473-6.066,14.297C371.95,115.886,372.461,116.226,372.851,116.687z"/>
</g>
</svg>
