<svg version="1.1" id="_x31_0" xmlns="http://www.w3.org/2000/svg" xmlns:xlink="http://www.w3.org/1999/xlink" x="0px" y="0px"
	 viewBox="0 0 512 512" xml:space="preserve">
<g>
	<path class="st0" d="M440.757,201.859L307.053,25.371C295.014,9.484,275.933,0,255.999,0c-19.93,0-39.016,9.484-51.051,25.371
		L71.245,201.859c-14.782,19.516-17.2,45.258-6.301,67.18c10.894,21.922,32.87,35.543,57.351,35.543h18.683v143.37
		c0,35.317,28.731,64.047,64.047,64.047h101.95c35.316,0,64.046-28.73,64.046-64.047v-143.37h18.684
		c24.48,0,46.457-13.622,57.351-35.543C457.952,247.114,455.538,221.375,440.757,201.859z M389.706,253.379h-57.039
		c-7.094,0-12.844,5.754-12.844,12.847v181.726c0,7.094-5.754,12.848-12.847,12.848h-101.95c-7.094,0-12.847-5.754-12.847-12.848
		V266.226c0-7.094-5.75-12.847-12.844-12.847h-57.039c-10.614,0-16.649-12.141-10.238-20.602L245.761,56.289
		c2.57-3.394,6.406-5.09,10.238-5.09c3.836,0,7.672,1.695,10.242,5.09l133.703,176.489
		C406.354,241.238,400.319,253.379,389.706,253.379z" ></path>
</g>
</svg>
