<svg version="1.1" id="_x31_0" xmlns="http://www.w3.org/2000/svg" xmlns:xlink="http://www.w3.org/1999/xlink" x="0px" y="0px"
	 viewBox="0 0 512 512" xml:space="preserve">
<g>
	<path class="st0" d="M411.412,412.053l-0.785-0.051c-0.348,1.246-1.176,3-1.926,3c-0.852-0.062-2.297-2.699-3.402-6.136
		c-0.149-0.45-0.414-2.168-0.856-7.79c0.426-5.23,0.582-8.886,0.122-11.914l-0.317-2.149c-0.336-2.301-0.652-4.473-1.297-7.61
		c-0.633-3.113-1.969-6.034-2.77-7.781c-0.238-0.527-0.43-0.942-0.527-1.203c-0.461-1.164-1.102-2.266-1.902-3.285l-0.488-0.626
		c-0.614-0.781-1.242-1.586-1.774-2.414c-0.633-1.012-1.11-2.098-1.45-3.317c-0.414-1.359-0.527-2.828-0.648-4.382
		c-0.086-1.122-0.176-2.278-0.39-3.394c-0.566-2.832-1.825-5.321-2.981-7.383l-0.859-1.465c-1.047-1.77-2.133-3.598-2.906-5.512
		l-2.981-7.476c-1.824-4.727-3.847-9.442-5.808-14l-0.36-0.832c-0.152-0.371-0.316-0.738-0.48-1.11l-0.168-0.598
		c2.382,0.781,5.062,1.332,7.996,1.629l0.25-0.746c-4.418-2.699-15.641-16.882-15.754-17.023l-0.125,0.066l-1.527-3.129
		l-3.348-6.379c-0.73-1.441-1.535-2.828-2.312-4.168c-0.352-0.609-0.703-1.21-1.039-1.808c-1.09-1.961-2.25-3.813-3.344-5.52
		c-1.094-1.777-2.195-3.465-3.27-5.015c-1.098-1.664-2.137-3.125-3.172-4.458c-0.363-0.503-0.754-1.011-1.152-1.519v-0.004
		c-0.562-4.55-1.086-8.558-1.45-11.641c-0.465-3.926-2.918-7.09-6.382-8.214c-2.336-0.766-5.215-1.672-8.219-2.578
		c-3.702,2.031-7.812,3.122-12.023,3.122c-1.207,0-2.457-0.082-3.664-0.282l-1.371-0.203c-3.582-0.562-6.703-1.066-10.168-1.328
		c-10.934,6.848-19.332,18.629-25.859,29c-8.922,14.156-18.043,29.402-20.035,46.32c-0.949,8.153-0.382,16.594-0.406,24.79
		c0,8.922-0.019,17.843-0.078,26.785c-0.102,17.015-0.203,34.035-0.305,51.07c-0.02,3.484,0,6.988,0,10.492
		c0,5.195-0.027,10.402-0.25,15.602c-0.07,1.699,1.168,3.203,2.867,3.351c35.137,3.164,69.836-15.746,80.758-56.449
		c0.731-2.719,1.309-5.145,1.946-7.68c0.566-1.976,1.16-3.922,1.848-5.828l0.031,0.004c3.652,0.442,6.035,1.34,6.035,8.394
		l-3.309,37.047c-0.031,0.355-0.043,0.699-0.035,1.054c0.117,4.051-0.473,24.797-0.344,25.438l0.07,0.324l0.356,0.195l0.402,0.016
		l0.02-0.504c0.008-0.242,0.035-0.965,0.438-1.535c0.297-0.394,0.926-1.137,1.558-1.898c0.535-0.649,0.863-1.051,1.183-1.446
		l0.375-0.351c0.286,1.187,0.746,3.535,1.122,5.742c-0.86,3.191-2.344,8.699-2.626,9.175l-0.125,0.153l0.047,0.305
		c0.129,0.367,0.586,0.546,1.382,0.836c0.438,0.156,1.332,0.492,1.426,0.718c-0.042,0.621-2.652,10.442-3.199,12.176l-0.062,0.038
		l-0.046,0.282l-0.172,0.492l-0.258,0.348l0.164-0.082l-0.074,0.215l0.766-0.516l0.262,0.008l0.047-0.137
		c0.214,0.168,0.878,0.754,1.042,1.79c0.25,1.461-2.73,9.999-1.664,10.038c-0.011,3.164,0.149,10.066-0.086,12.192
		c-0.09,0.886-0.859,3.125-2.668,3.242c-1.633,0.106-2.614-1.672-3-2.57c-0.023-0.094-0.078-0.23-0.082-0.297l-0.011,0.055
		c-0.035-0.094-0.102-0.262-0.102-0.262l-0.371,1.523c-0.152,2.633,0.778,4.91,1.554,5.742c0.348,0.398,0.805,0.613,1.367,0.636
		c1.168,0.039,3.176,0.149,4.496-0.671c0.578-0.364,1.133-0.684,1.606-0.91c1.383,1.359,2.726,2.074,3.954,2.117
		c1.129,0.039,2.133-0.469,2.957-1.465c1.602-1.98,2.046-5.371,1.515-7.484l-0.14-0.621l0.011-0.535l-0.086,0.202l-0.062-0.266
		l-0.485,1.149c-1.703,4.152-2.906,4.554-3.347,4.539c-0.946-0.035-1.797-2.102-1.91-4.625c-0.176-4.137,1.184-12.422,1.191-12.622
		l-1.336-8.465c0-0.019,0.176-1.004,1.465-0.957c0.282,0.012,0.582,0.062,0.922,0.152l0.179,0.051l0.145-0.118
		c1.614-1.113,1.254-5.214,0.894-9.16c-0.129-1.531-0.258-3.008-0.238-4.098c0.227-0.114,0.434-0.285,0.602-0.519
		c1.188-1.594,0.614-6.406,0.114-9.328c0.394-0.25,1.199-0.864,2.145-1.84c1.136-1.145,0.48-5.485,0.078-7.657
		c-0.031-0.242-0.05-0.449-0.086-0.699c0.859,0.094,2.84,0.559,7.843,2.211l0.27-0.758c-1.312-0.492-4.27-8.578-5.824-13.57
		l0.645-8.218l0.351-3.582c0.641,0.386,1.805,0.953,3.926,1.582l0.493,0.152l0.328,0.218l-0.086-0.144l0.223,0.066l-0.493-0.863
		c-1.175-2.118-2.984-5.586-3.054-6.496c-0.046-0.387,0.254-2.59,0.59-5.137c0.832-6.379,2.223-17.07,2.137-24.309
		c-0.054-4.09-0.766-7.324-1.878-9.981c-1.266-3.074-2.598-7.301-4.43-9.316c-1.274-1.398-3.035-3.649-4.684-5.207l-8.129-4.082
		v-0.004c3.625-22.454,2.859-37.336,2.176-56.489c-0.114-2.93-0.325-6.027-0.566-9.168c-0.051-1.25-0.11-2.496-0.133-3.766
		c0.762,1.145,1.535,2.305,2.262,3.547l3.594,5.922l3.551,6.321c0.527,0.93,1.023,1.886,1.515,2.855
		c1.274,5.629,2.77,13.098,2.465,16.184l0.746,0.25c0.469-0.77,0.797-1.539,1.199-2.301c0.473-0.813,0.938-1.641,1.461-2.426
		c2.074,4.324,4.211,8.797,6.164,13.312l1.152,2.59c0.699,1.554,1.395,3.106,2.055,4.672c0.805,1.98,1.316,4.125,1.812,6.199
		l0.34,1.414c0.786,3.051,1.715,5.383,2.926,7.34c0.59,0.918,1.29,1.785,1.962,2.625c0.996,1.238,1.937,2.406,2.55,3.703
		c0.61,1.222,0.981,2.332,1.137,3.402c0.148,0.969,0.195,1.985,0.242,2.965l0.038,0.762c0.09,1.481,0.286,2.637,0.622,3.637
		c0.207,0.61,0.449,1.199,0.687,1.782c0.195,0.476,0.391,0.949,0.562,1.426c0.27,0.687,0.934,2.148,1.742,3.922
		c1.691,3.699,4.004,8.77,4.527,10.817c0.352,1.363,0.458,2.226,0.558,3.058c0.074,0.621,0.153,1.238,0.321,2.043
		c-0.195,0.832-0.016,2.476,0.141,3.926c0.066,0.57,0.121,1.102,0.148,1.523c0.387,6.324-0.316,8.266-0.992,10.145l-0.098,0.262
		c-0.614,1.715-1.668,2.594-5.738,2.625l-0.687,0.004l0.339,0.598c1.176,2.058,2.688,3.102,4.497,3.102
		c2.523,0,4.972-2.156,5.945-3.656c2.602,2.16,4.622,3.207,6.168,3.207c0.824,0,1.496-0.297,2.004-0.887
		C411.974,415.912,411.436,412.209,411.412,412.053z"></path>
	<path class="st0" d="M252.272,416.326c-0.102-17.098-0.203-34.195-0.301-51.293c-0.062-8.52-0.043-17.039-0.062-25.539
		c-0.02-8.254,0.363-16.512-1.387-24.629c-1.793-8.317-5.199-16.153-9.183-23.622c-4.07-7.613-8.52-15.105-13.394-22.234
		c-5.86-8.578-13.211-17.824-22.375-23.582c-3.442,0.282-6.543,0.766-10.129,1.328l-1.348,0.203
		c-1.21,0.199-2.457,0.282-3.687,0.282c-4.187,0-8.297-1.09-12-3.122c-3.004,0.887-5.883,1.813-8.238,2.578
		c-3.465,1.125-5.922,4.289-6.382,8.214c-0.363,3.082-0.887,7.09-1.454,11.641c0,0.004,0,0.012,0,0.012
		c-0.394,0.508-0.781,1.011-1.141,1.511c-1.035,1.333-2.078,2.794-3.175,4.458c-1.074,1.55-2.176,3.238-3.27,5.015
		c-1.09,1.707-2.25,3.559-3.34,5.52c-0.336,0.598-0.687,1.199-1.039,1.808c-0.781,1.34-1.586,2.727-2.316,4.168l-3.344,6.379
		l-1.527,3.129l-0.125-0.066c-0.114,0.141-11.336,14.324-15.754,17.023l0.25,0.746c2.59-0.262,4.941-0.75,7.106-1.394
		c0.301-0.062,0.652-0.098,0.949-0.164c-0.242,0.546-0.481,1.086-0.711,1.637l-0.355,0.832c-1.961,4.558-3.988,9.273-5.813,14
		l-2.98,7.476c-0.774,1.914-1.855,3.742-2.902,5.512l-0.859,1.465c-1.157,2.062-2.414,4.551-2.985,7.383
		c-0.21,1.117-0.301,2.273-0.386,3.394c-0.122,1.554-0.238,3.023-0.649,4.382c-0.339,1.219-0.816,2.305-1.453,3.317
		c-0.527,0.828-1.16,1.633-1.77,2.414l-0.488,0.626c-0.805,1.019-1.446,2.121-1.906,3.285c-0.098,0.262-0.286,0.676-0.527,1.203
		c-0.797,1.746-2.137,4.668-2.766,7.781c-0.645,3.137-0.962,5.309-1.297,7.61l-0.321,2.149c-0.461,3.027-0.305,6.683,0.122,11.914
		c-0.442,5.622-0.707,7.34-0.852,7.79c-1.106,3.437-2.554,6.074-3.406,6.136c-0.746,0-1.574-1.754-1.926-3l-0.785,0.051
		c-0.024,0.156-0.563,3.859,0.926,5.59c0.508,0.59,1.183,0.887,2.004,0.887c1.55,0,3.57-1.047,6.168-3.207
		c0.976,1.5,3.426,3.656,5.949,3.656c0.371,0,0.672-0.234,1.02-0.32c0.133-0.035,0.266-0.07,0.39-0.122
		c1.172-0.426,2.242-1.187,3.082-2.66l0.34-0.598l-0.687-0.004c-4.066-0.031-5.125-0.91-5.738-2.625l-0.094-0.262
		c-0.68-1.879-1.379-3.821-0.992-10.145c0.023-0.422,0.082-0.953,0.144-1.523c0.157-1.45,0.336-3.094,0.145-3.926
		c0.168-0.805,0.242-1.422,0.316-2.043c0.106-0.832,0.211-1.695,0.563-3.058c0.519-2.047,2.835-7.118,4.523-10.817
		c0.809-1.774,1.477-3.234,1.742-3.922c0.171-0.477,0.367-0.95,0.562-1.426c0.242-0.582,0.48-1.172,0.691-1.782
		c0.332-1,0.531-2.156,0.617-3.637l0.039-0.762c0.051-0.98,0.098-1.996,0.246-2.965c0.156-1.07,0.527-2.18,1.137-3.402
		c0.613-1.297,1.554-2.465,2.55-3.703c0.672-0.84,1.367-1.707,1.961-2.625c1.211-1.957,2.141-4.289,2.922-7.34l0.34-1.414
		c0.496-2.074,1.011-4.219,1.816-6.199c0.66-1.566,1.355-3.118,2.051-4.672l1.152-2.59c1.207-2.793,2.523-5.496,3.813-8.234
		c0.851-1.719,1.582-3.462,2.503-5.165c0.711,1.622,1.531,3.207,2.512,4.813l0.746-0.25c-0.309-3.086,1.191-10.555,2.465-16.184
		c0.492-0.969,0.988-1.926,1.515-2.855l3.551-6.321l3.594-5.922c0.602-1.027,1.242-1.984,1.875-2.938
		c0.179-0.218,0.343-0.445,0.542-0.656c-0.39,4.449-0.706,8.863-0.843,12.98c-0.688,19.153-1.473,34.035,2.172,56.489v0.004
		l-8.126,4.082c-1.648,1.558-3.414,3.809-4.687,5.207c-1.832,2.015-3.164,6.242-4.43,9.316c-1.114,2.657-1.824,5.891-1.879,9.981
		c-0.086,7.238,1.305,17.93,2.141,24.309c0.332,2.546,0.633,4.75,0.586,5.137c-0.07,0.91-1.878,4.378-3.05,6.496l-0.254,0.445
		l-0.29,0.266l0.164-0.05l-0.117,0.203l0.957-0.293c1.914-0.566,2.973-1.066,3.649-1.446c0.105-0.039,0.25-0.098,0.347-0.129
		l0.926,11.793c-1.554,4.992-4.507,13.078-5.82,13.57l0.266,0.758c4.469-1.477,6.469-1.984,7.473-2.148
		c0.125-0.008,0.289-0.043,0.394-0.043h0.012c-0.363,1.828-1.29,7.078-0.039,8.336c0.942,0.976,1.75,1.59,2.141,1.84
		c-0.5,2.922-1.074,7.734,0.113,9.328c0.168,0.234,0.375,0.406,0.602,0.519c0.02,1.09-0.11,2.566-0.234,4.098
		c-0.363,3.946-0.722,8.047,0.891,9.16l0.144,0.118l0.18-0.051c0.34-0.09,0.641-0.14,0.922-0.152
		c1.289-0.047,1.465,0.938,1.465,0.957l-1.336,8.465c0.008,0.199,1.367,8.485,1.192,12.622c-0.11,2.523-0.966,4.59-1.91,4.625
		c-0.442,0.015-1.645-0.387-3.344-4.539l-0.246-0.586l-0.082-0.528l-0.05,0.215l-0.106-0.25l-0.282,1.219
		c-0.527,2.113-0.086,5.504,1.516,7.484c0.824,0.996,1.828,1.504,2.957,1.465c1.226-0.042,2.57-0.758,3.953-2.117
		c0.473,0.226,1.027,0.546,1.606,0.91c1.321,0.82,3.328,0.71,4.496,0.671c0.566-0.023,1.02-0.238,1.371-0.636
		c0.774-0.832,1.703-3.11,1.551-5.742l-0.192-0.778l-0.027-0.699c-0.004,0.016-0.062,0.156-0.086,0.222l-0.066-0.269
		c0,0-1.016,3.214-3.195,3.074c-1.805-0.117-2.578-2.355-2.664-3.242c-0.238-2.126-0.078-9.028-0.09-12.192
		c1.066-0.039-1.914-8.578-1.664-10.038c0.114-0.688,0.41-1.106,0.684-1.406c0.152-0.114,0.312-0.195,0.484-0.25l0.184-0.004
		l0.382,0.258l0.23,0.308l-0.07-0.199l0.223,0.149l-0.336-0.973l-0.051-0.282l-0.062-0.038c-0.546-1.734-3.156-11.555-3.195-12.176
		c0.09-0.226,0.984-0.562,1.422-0.718c0.797-0.29,1.254-0.469,1.383-0.836l0.046-0.305l-0.125-0.153
		c-0.278-0.476-1.766-5.984-2.625-9.175c0.281-1.653,0.61-3.383,0.879-4.653c0.109-0.367,0.214-0.812,0.332-1.09
		c0.339,0.43,0.804,0.992,1.469,1.797c0.633,0.762,1.262,1.504,1.558,1.898c0.402,0.57,0.43,1.293,0.438,1.535l0.019,0.504
		l0.402-0.016l0.355-0.195l0.07-0.324c0.129-0.641-0.457-21.386-0.343-25.438c0.011-0.355-0.004-0.699-0.035-1.054l-3.309-37.047
		c0-7.054,2.382-7.953,6.035-8.394l0.398-0.047c0,0,0.004,0.012,0.004,0.016c0.984,4.23,2.133,8.742,3.422,13.535
		c10.906,40.66,45.582,59.59,80.695,56.449c1.699-0.148,2.942-1.652,2.863-3.359C251.994,438.428,252.326,427.283,252.272,416.326z"></path>
	<path class="st0" d="M262.26,289.592c1.23-2.375,2.496-4.715,3.828-7.008c5.887-10.285,12.809-21.542,21.313-30.902
		c1.973-2.117,3.942-4.246,6.113-6.094c-0.074,0.004-0.133,0.027-0.202,0.031c0.066-0.058,0.121-0.133,0.187-0.191
		c-3.828,0.32-6.91,1.27-10.758,2.438c-6.242,1.91-13.996,4.289-26.742,4.289c-12.726,0-20.5-2.378-26.726-4.289
		c-2.863-0.871-5.367-1.512-7.992-1.965c-0.922-0.199-1.809-0.442-2.797-0.594c0.058,0.054,0.117,0.113,0.171,0.168
		c-0.098-0.012-0.179-0.039-0.277-0.047c6.969,6.183,12.808,13.734,17.945,21.406c4.852,7.21,9.566,14.801,13.531,22.714
		C252.413,294.666,259.662,294.666,262.26,289.592z"></path>
	<path class="st0" d="M110.553,141.409c-0.723,0.102-1.106,0.867-0.723,1.492l8.496,13.813c0.102,0.304,0.203,0.625,0.305,0.93
		c3.586,9.562,8.66,18.285,14.52,26.301c1.187,1.629,2.554,3.109,3.82,4.679c0.398,0.492,0.817,1.008,1.234,1.512
		c1.457,1.762,2.817,3.606,4.332,5.309c0.16,0.199,0.422,0.461,0.722,0.785c6.145,6.402,13.676,11.317,21.954,14.461l12.504,4.73
		c0.644,4.09,1.972,8.074,4.09,11.68c2.617,4.473,7.309,7.191,12.363,7.554c0.402,0.039,0.805,0.058,1.211,0.058
		c0.766,0,1.531-0.058,2.293-0.16c0.726-0.102,1.449-0.203,2.156-0.305c4.934-0.703,9.387-1.285,15.527-1.285
		c1.59,0,3.282,0.039,5.157,0.117c9.847,0.446,15.023,4.149,27.086,5.398c2.477,0.242,5.234,0.402,8.398,0.402
		c3.16,0,5.922-0.16,8.398-0.402c12.062-1.25,17.258-4.953,27.106-5.398c1.851-0.078,3.566-0.117,5.156-0.117
		c6.141,0,10.594,0.582,15.527,1.285c0.02,0,0.02,0,0.039,0c0.707,0.102,1.39,0.203,2.118,0.305c0.762,0.102,1.527,0.16,2.273,0.16
		c0.383,0,0.786-0.019,1.168-0.058c0.02,0.02,0.039,0,0.039,0c5.078-0.363,9.75-3.082,12.367-7.554
		c2.114-3.606,3.422-7.59,4.09-11.68l12.504-4.73c8.297-3.144,15.809-8.058,21.954-14.461c0.32-0.324,0.562-0.586,0.742-0.785
		c1.52-1.703,2.875-3.555,4.332-5.317c0.371-0.453,0.742-0.91,1.106-1.359c1.301-1.614,2.703-3.141,3.93-4.824
		c5.86-8.016,10.954-16.738,14.52-26.301c0.121-0.305,0.199-0.626,0.32-0.93l8.5-13.813c0.383-0.625-0.019-1.39-0.746-1.492
		c-1.289-0.199-2.898-1.024-3.16-3.965c0.504-2.961,0.985-6.004,1.41-8.942c0.683-4.774,1.246-9.527,1.652-14.301
		c0.02-0.363,0.039-0.703,0.059-1.047c0.363-5.898,0.14-11.863-1.168-17.64c-0.766-3.344-0.707-6.668-0.524-9.969
		c0.161-2.379,0.199-4.734,0.664-7.11c0.422-2.355,1.047-4.714,1.11-7.09c0.301-4.75-1.934-9.485-1.793-14.219
		c0.039-2.374,0.621-4.773,0.645-7.148c-0.043-2.375-0.402-4.73-0.746-7.11c-0.683-4.73-1.875-9.426-2.859-14.156l-1.57-7.129
		c-0.121-0.485-0.222-0.989-0.344-1.493c0.223-3.605,0.707-12.382,0.282-16.957c-0.078-0.824-1.207-0.965-1.489-0.199
		c-0.453,1.23-0.968,2.618-1.488,3.985c-0.426,0.863-0.89,1.675-1.438,2.293c-0.226-0.43-0.449-0.867-0.699-1.286
		c-1.332-2.094-2.82-4.168-4.914-5.82c-1.047-0.805-2.278-1.508-3.688-1.832c-1.41-0.359-3.504-0.422-4.793,0.141
		c-2.598,1.21-4.086,2.398-4.832,5.66l0.625,0.382c2.012-1.851,3.766-2.961,5.598-3.542c1.813-0.625,3.606,0.141,5.114,1.55
		c3.043,2.898,4.914,7.23,6.367,11.458c0.742,2.136,0.965,2.578,1.73,6.968c1.129,6.364,0.543,15.668,0.222,20.36
		c-0.062,1.168-0.14,2.336-0.164,3.504c-0.039,1.167-0.141,2.335-0.039,3.503c0.141,2.317,0.867,4.633,0.946,6.993
		c0.324,4.671-1.91,9.363-1.648,14.015c0.019,2.336,0.582,4.691,0.965,7.027c0.363,2.356,0.281,4.692,0.343,7.027
		c-0.042,4.524-3.039,14.262-3.301,15.367c-0.023,0.031-0.046,0.066-0.074,0.09c-1.59-3.562-3.887-8.762-5.95-13.606
		c-0.504-1.187-2.258-0.863-2.317,0.426c-0.16,4.39-0.441,10.332-0.824,13.715c-0.504,4.43,5.133,11.117,7.774,14.538
		c-0.282,3.684-0.547,7.391-0.906,11.055c-0.164,2.316-0.465,4.492-0.726,6.726c-0.222,2.195-0.664,4.554-1.086,6.867
		c-0.707,4.39-1.914,8.34-3.485,12.406c-3.141,8.054-7.734,15.687-13.11,22.797c-2.718,3.523-5.582,6.969-8.683,10.21
		c-1.551,1.614-3.121,3.184-4.75,4.715c-1.43,1.348-3.304,2.094-5.238,2.094c-0.321,0-0.626-0.019-0.946-0.062l-17.543-2.214
		c-0.359-0.746-0.742-1.469-1.144-2.176c-7.11-12.242,0.542-29.058,2.816-33.508c0.363-0.726,0.465-1.574,0.242-2.379
		c-0.02-0.019-0.02-0.038-0.02-0.058c-0.422-1.574-1.812-2.457-3.222-2.457c-0.824,0-1.672,0.301-2.355,0.965
		c-7.129,6.789-17.282,8.398-23.883,8.398c-0.566,0-1.129-0.019-1.652-0.039c-1.168-0.043-2.297-0.183-3.446-0.402
		c-4.007-0.746-7.71-2.5-10.874-4.996h-0.02c0-0.039-0.039-0.102-0.062-0.141l-11.438-19.816c-0.574-0.985-1.316-1.758-1.996-2.618
		c-0.515-0.726-0.957-1.434-1.535-2.234c1.226-0.281,2.746-0.472,4.199-0.199c0.554,0.106-0.199-0.566,0.274-0.382
		c2.801,1.106,5.398,4.519,6.691,6.961c1.582,2.988,3,5.149,5.641,5.797c8.828,2.16,14.098-5.027,15.351-11.722
		c0.688-3.676-0.574-6.95-2.382-9.406c-1.562-2.117-4.887-1.242-5.18,1.375c-0.16,1.442-0.445,2.832-0.828,3.847
		c-0.586,1.555-1.414,2.879-2.422,3.825c-0.246,0.23-0.531,0.378-0.821,0.484c-0.05,0.02-0.094,0.043-0.144,0.058
		c-0.965,0.286-2.059-0.046-2.727-0.914c-2.046-2.657-5.082-4.68-8.246-6.582c-0.461-0.277-1.039-0.343-1.554-0.531
		c-0.09-0.031-0.18-0.062-0.274-0.094c-0.637-0.207-1.215-0.516-1.891-0.645c-3.214-0.606-6.304-0.086-8.5,0.52v-0.004
		c-3.242-9.828-5.297-20.058-6.082-30.43c-1.027-13.715-1.89-26.848-1.793-33.129c0.222-14.359-1.348-17.282,9.062-22.153
		c5.035-2.598,0.242-6.285-4.57-5.035c-4.934,1.29-6.344,4.188-9.867,4.367c-3.523-0.179-4.934-3.078-9.867-4.367
		c-4.813-1.25-9.586,2.438-4.554,5.035c10.394,4.871,8.824,7.794,9.062,22.153c0.082,6.281-0.762,19.414-1.813,33.129
		c-0.785,10.371-2.836,20.602-6.078,30.43h-0.004c-2.192-0.602-5.278-1.122-8.493-0.516c-0.671,0.129-1.254,0.438-1.886,0.645
		c-0.094,0.031-0.187,0.062-0.278,0.094c-0.511,0.184-1.09,0.254-1.55,0.531c-3.168,1.902-6.203,3.926-8.246,6.582
		c-0.668,0.867-1.762,1.199-2.726,0.914c-0.05-0.015-0.094-0.038-0.145-0.058c-0.289-0.106-0.574-0.254-0.82-0.484
		c-1.012-0.946-1.836-2.27-2.426-3.825c-0.383-1.015-0.664-2.406-0.824-3.847c-0.298-2.618-3.618-3.492-5.18-1.375
		c-1.809,2.457-3.07,5.73-2.383,9.406c1.254,6.695,6.524,13.882,15.348,11.722c2.645-0.648,4.062-2.809,5.645-5.797
		c0.87-1.645,2.359-3.687,4.078-5.211c0.848-0.664,1.738-1.199,2.688-1.449c-0.004,0.066,0.027,0.113,0.199,0.082
		c1.082-0.202,2.168-0.117,3.175,0.039c0.313,0.122,0.622,0.258,0.938,0.496c-1.297,1.321-2.457,2.821-3.434,4.516l-11.441,19.816
		c-0.02,0.039-0.039,0.082-0.059,0.122c-0.203,0.16-0.382,0.32-0.586,0.461c-3.039,2.258-6.543,3.847-10.332,4.554
		c-1.125,0.219-2.274,0.359-3.442,0.402c-0.523,0.02-1.066,0.039-1.652,0.039c-6.606,0-16.754-1.61-23.863-8.398
		c-0.684-0.664-1.531-0.965-2.379-0.965c-1.406,0-2.778,0.882-3.199,2.457c-0.019,0.02-0.019,0.039-0.019,0.058
		c-0.223,0.805-0.141,1.653,0.238,2.379c2.258,4.45,9.91,21.266,2.801,33.508c-0.402,0.707-0.804,1.43-1.148,2.195h-0.02
		l-17.519,2.195c-2.258,0.286-4.531-0.461-6.183-2.031c-1.614-1.531-3.203-3.102-4.734-4.715c-3.098-3.242-5.981-6.687-8.68-10.21
		c-5.394-7.11-9.969-14.742-13.129-22.797c-1.551-4.066-2.758-8.016-3.485-12.406c-0.422-2.313-0.843-4.672-1.066-6.867
		c-0.281-2.234-0.566-4.41-0.746-6.726c-0.344-3.664-0.606-7.371-0.887-11.055c2.622-3.422,8.278-10.109,7.754-14.538
		c-0.383-3.383-0.664-9.325-0.824-13.715c-0.043-1.289-1.813-1.613-2.317-0.426c-1.672,3.93-3.481,8.046-4.961,11.379
		c-0.363,0.742-0.726,1.465-1.07,2.105c-0.297-1.206-3.254-10.839-3.293-15.336c0.058-2.335,0-4.671,0.34-7.027
		c0.382-2.336,0.949-4.691,0.968-7.027c0.282-4.652-1.972-9.344-1.633-14.015c0.082-2.36,0.786-4.676,0.95-6.993
		c0.078-1.168-0.019-2.336-0.062-3.503c-0.02-1.168-0.102-2.336-0.16-3.504c-0.305-4.692-0.906-13.996,0.222-20.36
		c0.785-4.39,1.004-4.832,1.73-6.968c1.45-4.227,3.344-8.559,6.363-11.458c1.512-1.41,3.324-2.175,5.118-1.55
		c1.832,0.582,3.582,1.691,5.598,3.542l0.625-0.382c-0.746-3.262-2.234-4.45-4.836-5.66c-1.289-0.562-3.382-0.5-4.774-0.141
		c-1.406,0.324-2.637,1.027-3.683,1.832c-2.094,1.652-3.606,3.726-4.914,5.82c-0.34,0.535-0.613,1.098-0.906,1.641l-0.148,0.149
		c-0.817-2.008-1.813-4.668-2.57-6.782c-0.282-0.766-1.43-0.625-1.512,0.199c-0.422,4.574,0.062,13.352,0.286,16.957
		c-0.102,0.504-0.223,1.008-0.325,1.493l-1.59,7.129c-0.969,4.73-2.156,9.426-2.859,14.156c-0.344,2.379-0.707,4.734-0.726,7.11
		c0,2.375,0.586,4.774,0.625,7.148c0.141,4.734-2.094,9.469-1.793,14.219c0.082,2.375,0.683,4.734,1.129,7.09
		c0.442,2.375,0.481,4.73,0.664,7.11c0.16,3.301,0.222,6.625-0.543,9.969c-1.308,5.777-1.511,11.742-1.168,17.64
		c0.02,0.344,0.039,0.684,0.059,1.047c0.422,4.774,0.969,9.527,1.671,14.301c0.422,2.938,0.887,5.981,1.391,8.942
		C113.456,140.385,111.842,141.21,110.553,141.409z M207.178,192.428c-1.958-4.894,0.156-11.301,5.461-15.371
		c4.953-3.808,11.137-4.43,15.367-1.953c0.882,0.48,1.672,1.125,2.312,1.89c0.184,0.164,0.325,0.324,0.465,0.504
		c3.829,4.996,1.954,12.89-4.23,17.641c-6.16,4.754-14.277,4.554-18.125-0.461c-0.382-0.497-0.664-1.035-0.93-1.582
		C207.389,192.874,207.272,192.658,207.178,192.428z"></path>
</g>
</svg>
