<svg version="1.1" id="_x31_0" xmlns="http://www.w3.org/2000/svg" xmlns:xlink="http://www.w3.org/1999/xlink" x="0px" y="0px"
	 viewBox="0 0 512 512" xml:space="preserve">
<g>
	<path class="st0" d="M137.692,135.402c-0.532,0.07-0.989,0.41-1.234,0.902c-0.23,0.457-0.23,1.007,0.05,1.465l6.394,10.984
		c0,0,0.176,0.531,0.23,0.672c2.454,7.152,6.09,14.094,11.055,21.21c2.011,2.914,4.363,5.95,7.222,9.325
		c0.141,0.175,0.316,0.386,0.582,0.671c4.062,4.43,9.024,8.106,14.516,10.754c1.766-3.793,3.874-7.77,6.046-11.766
		c0.481-0.824,0.942-1.691,1.422-2.485h-0.082c0.031-0.054,0.054-0.105,0.086-0.16l-5.21-0.106c-0.23,0.016-0.442,0.016-0.653,0.016
		c-1.324-0.035-2.598-0.566-3.55-1.516c-1.199-1.183-2.418-2.472-3.621-3.781c-2.207-2.418-4.363-5.07-6.586-8.16
		c-4.363-6.024-7.664-12.078-9.836-18.012c-1.273-3.602-2.031-6.606-2.492-9.73l-0.05-0.32c-0.25-1.695-0.531-3.442-0.657-5.051
		l-0.07-0.793c-0.157-1.535-0.301-2.949-0.371-4.523c-0.157-2.222-0.282-4.43-0.406-6.672l-0.086-1.734l0.493-0.617
		c2.472-3,6.218-7.558,5.882-11.055c-0.23-2.664-0.336-7.328-0.39-10.773c-0.016-0.969-0.738-1.695-1.695-1.73
		c-0.723-0.016-1.34,0.371-1.641,1.042c-1.016,2.234-2.074,4.5-3.07,6.61c-0.332,0.625-0.66,1.285-1,1.855
		c-0.676-2.695-1.758-7.347-1.722-9.738l0.054-1.375c0.051-1.414,0.106-2.722,0.332-4.047c0.074-0.457,0.18-0.898,0.266-1.359
		c0.301-1.394,0.602-2.824,0.637-4.254c0.176-1.926-0.195-3.832-0.531-5.707c-0.351-1.851-0.668-3.637-0.492-5.418
		c0.05-0.922,0.226-1.84,0.442-2.809c0.16-0.867,0.351-1.75,0.422-2.653c0.07-0.758,0.07-1.48,0.054-2.206l-0.019-0.633
		c0-0.778-0.016-1.555-0.051-2.332l-0.019-0.477c-0.141-3.25-0.442-10.879,0.547-15.879c0.636-3.09,0.812-3.617,1.328-4.945
		l0.141-0.387c1.038-2.824,2.558-6.359,5.015-8.601c0.598-0.528,1.516-1.164,2.508-1.13c0.266,0.016,0.511,0.051,0.777,0.141
		c1.305,0.477,2.594,1.344,4.059,2.738l0.426,0.442l1.5-0.918l-0.086-0.566c-0.602-2.824-1.91-3.972-4.152-5.102
		c-0.742-0.355-1.641-0.445-2.258-0.445c-0.691-0.035-1.414,0.039-2.031,0.179c-0.426,0.086-0.832,0.418-1.246,0.59
		c-0.203,0.082-0.41,0.179-0.613,0.289c-0.458,0.234-0.93,0.317-1.391,0.656c-1.484,1.122-2.542,2.438-3.449,3.715
		c-0.258,0.305-0.531,0.621-0.786,0.91c-0.449-1.298-0.914-2.672-1.277-3.742c-0.195-0.582-0.707-0.954-1.309-0.973
		c-0.722-0.015-1.34,0.531-1.43,1.238c-0.422,3.602-0.211,10.473-0.106,13.402l-1.641,6.675c-0.266,1.133-0.546,2.262-0.832,3.391
		c-0.617,2.542-1.27,5.16-1.71,7.773l-0.035,0.211c-0.301,1.785-0.622,3.621-0.672,5.508c-0.035,1.008,0.07,2.031,0.175,2.984
		c0.09,0.938,0.196,1.801,0.176,2.668c0.02,1.715-0.386,3.41-0.812,5.211c-0.477,1.941-0.934,3.957-0.863,5.969
		c0,1.5,0.266,2.965,0.531,4.414c0.07,0.442,0.156,0.902,0.226,1.344c0.21,1.359,0.266,2.718,0.32,4.148
		c0.016,0.462,0.035,0.918,0.051,1.36c0.07,2.422,0.09,5.015-0.582,7.648c-1.058,4.133-1.449,8.758-1.274,14.129l0.039,0.828
		c0.226,3.746,0.582,7.578,1.039,11.375c0.285,2.278,0.582,4.66,0.938,6.992C139.388,134.538,138.77,135.296,137.692,135.402z"></path>
	<path class="st0" d="M329.71,191.386c5.492-2.649,10.458-6.324,14.52-10.754c0.266-0.285,0.441-0.496,0.582-0.671
		c2.859-3.375,5.211-6.41,7.238-9.325c4.965-7.117,8.586-14.058,11.058-21.21c0.051-0.141,0.211-0.672,0.211-0.672l6.394-10.984
		c0.281-0.458,0.297-1.008,0.07-1.465c-0.25-0.493-0.707-0.832-1.254-0.902c-1.078-0.106-1.679-0.863-1.87-2.242
		c0.332-2.332,0.652-4.714,0.914-6.992c0.481-3.797,0.813-7.629,1.043-11.375l0.054-0.828c0.176-5.371-0.23-9.996-1.289-14.129
		c-0.653-2.633-0.653-5.226-0.566-7.648c0-0.442,0.019-0.898,0.035-1.36c0.054-1.43,0.106-2.789,0.336-4.148
		c0.07-0.442,0.16-0.902,0.21-1.344c0.286-1.449,0.531-2.914,0.551-4.414c0.07-2.012-0.406-4.028-0.887-5.969
		c-0.402-1.801-0.828-3.496-0.808-5.211c0-0.867,0.086-1.73,0.175-2.668c0.106-0.953,0.211-1.976,0.176-2.984
		c-0.054-1.887-0.371-3.723-0.672-5.508l-0.015-0.211c-0.461-2.613-1.114-5.23-1.734-7.773c-0.262-1.129-0.547-2.258-0.813-3.391
		l-1.641-6.675c0.09-2.93,0.301-9.801-0.125-13.402c-0.07-0.707-0.687-1.254-1.43-1.238c-0.602,0.019-1.094,0.39-1.289,0.973
		c-0.226,0.672-0.504,1.465-0.786,2.285l-0.617,1.465c-1.016-1.535-2.286-3.242-4.125-4.633c-0.462-0.339-0.934-0.422-1.391-0.656
		c-0.206-0.11-0.41-0.207-0.613-0.289c-0.414-0.172-0.821-0.504-1.246-0.59c-0.598-0.14-1.34-0.214-2.031-0.179
		c-0.617,0-1.519,0.09-2.242,0.445c-2.242,1.13-3.566,2.278-4.148,5.102l-0.106,0.566l1.5,0.918l0.442-0.442
		c1.449-1.394,2.738-2.262,4.062-2.738c0.246-0.09,0.512-0.125,0.758-0.141c0.989-0.034,1.926,0.602,2.527,1.13
		c2.438,2.242,3.954,5.777,5.016,8.601l0.121,0.387c0.512,1.328,0.707,1.855,1.324,4.945c1.008,5,0.692,12.629,0.547,15.879
		l-0.016,0.477c-0.034,0.777-0.054,1.554-0.054,2.332l-0.015,0.633c0,0.726-0.02,1.449,0.05,2.206
		c0.09,0.902,0.266,1.786,0.442,2.653c0.195,0.969,0.39,1.886,0.445,2.809c0.157,1.781-0.16,3.566-0.515,5.418
		c-0.336,1.875-0.687,3.782-0.512,5.707c0.02,1.43,0.321,2.859,0.637,4.254c0.09,0.461,0.176,0.902,0.246,1.359
		c0.25,1.325,0.285,2.633,0.336,4.047c0.019,0.457,0.054,0.918,0.07,1.375c0.015,1.773-0.582,4.793-1.168,7.335
		c-0.207,0.766-0.426,1.551-0.692,2.41c-1.191-2.515-2.633-5.582-3.934-8.473c-0.297-0.671-0.934-1.058-1.64-1.042
		c-0.973,0.035-1.695,0.762-1.715,1.73c-0.05,3.445-0.156,8.109-0.386,10.773c-0.321,3.497,3.406,8.055,5.882,11.055l0.492,0.617
		l-0.09,1.734c-0.106,2.242-0.226,4.45-0.402,6.672c-0.074,1.574-0.214,2.988-0.375,4.523l-0.07,0.793
		c-0.122,1.61-0.387,3.356-0.653,5.051l-0.05,0.32c-0.446,3.125-1.219,6.129-2.493,9.73c-2.171,5.934-5.457,11.988-9.82,18.012
		c-2.242,3.09-4.378,5.742-6.602,8.16c-1.183,1.309-2.422,2.598-3.621,3.781c-0.938,0.95-2.207,1.481-3.551,1.516
		c-0.21,0-0.422,0-0.652-0.016l-3.449,0.07l-1.602-0.042c0.015,0.027,0.023,0.046,0.038,0.074l-0.179,0.004
		C324.944,181.866,327.573,186.757,329.71,191.386z"></path>
	<path class="st0" d="M215.52,122.014c2.317-0.562,3.55-2.453,4.946-5.066c0.801-1.524,2.187-3.434,3.785-4.778
		c0.707-0.516,1.446-0.938,2.226-1.129c-0.011,0.066-0.066,0.16,0.098,0.129c1.574-0.297,3.27,0.019,4.418,0.355
		c0.492-0.847,0.934-1.766,1.34-2.718c0.406-0.973,0.832-2.278,1.254-3.887c-1.906-0.617-5.051-1.308-8.317-0.706
		c-1.164,0.23-2.297,0.546-3.266,1.113c-2.773,1.676-5.441,3.446-7.226,5.774c-0.793,1.043-2.277,1.218-3.23,0.336
		c-0.902-0.828-1.625-1.992-2.137-3.355c-0.336-0.898-0.582-2.118-0.722-3.371c-0.25-2.297-3.164-3.074-4.539-1.203
		c-1.59,2.141-2.703,5.015-2.086,8.25C203.16,117.62,207.785,123.925,215.52,122.014z"></path>
	<path class="st0" d="M275.23,111.526c1.149-0.336,2.844-0.652,4.414-0.355c0.496,0.09-0.157-0.492,0.25-0.332
		c2.454,0.969,4.73,3.953,5.859,6.11c1.398,2.613,2.633,4.503,4.946,5.066c7.754,1.91,12.363-4.394,13.477-10.258
		c0.602-3.234-0.512-6.109-2.102-8.25c-1.36-1.871-4.274-1.094-4.539,1.203c-0.141,1.254-0.387,2.473-0.722,3.371
		c-0.512,1.363-1.238,2.527-2.122,3.355c-0.953,0.882-2.438,0.707-3.25-0.336c-1.782-2.328-4.45-4.098-7.223-5.774
		c-0.972-0.566-2.101-0.882-3.266-1.113c-3.269-0.618-6.43,0.09-8.32,0.706c0.426,1.61,0.848,2.914,1.254,3.887
		C274.292,109.761,274.734,110.679,275.23,111.526z"></path>
	<path class="st0" d="M259.941,273.998c0.324-0.282,0.614-0.59,0.879-0.942c0.226-0.297,0.562-0.442,0.742-0.793
		c1.078-2.066,2.192-4.114,3.356-6.145c5.16-9.012,11.222-18.878,18.671-27.078c1.734-1.86,3.469-3.727,5.375-5.344
		c-0.07,0.004-0.129,0.027-0.199,0.031c0.066-0.058,0.121-0.133,0.187-0.191c-3.355,0.281-6.058,1.11-9.43,2.137
		c-5.476,1.695-12.273,3.762-23.453,3.762c-11.16,0-17.98-2.066-23.434-3.762c-2.507-0.762-4.714-1.328-7.019-1.73
		c-0.813-0.184-1.594-0.398-2.465-0.547c0.058,0.054,0.117,0.118,0.176,0.168c-0.098-0.012-0.184-0.039-0.282-0.047
		c6.125,5.422,11.246,12.043,15.77,18.79c4.258,6.324,8.386,12.999,11.867,19.922c0.176,0.355,0.511,0.5,0.734,0.797
		c0.262,0.359,0.554,0.672,0.878,0.957c0.563,0.481,1.13,0.828,1.805,1.07c0.27,0.094,0.543,0.168,0.828,0.226
		c0.809,0.164,1.563,0.164,2.371,0c0.286-0.054,0.558-0.125,0.828-0.218C258.804,274.822,259.371,274.474,259.941,273.998z"></path>
	<path class="st0" d="M251.59,383.4c-0.086-14.993-0.176-29.988-0.266-44.981c-0.051-7.468-0.031-14.922-0.051-22.394
		c-0.019-7.238,0.317-14.48-1.218-21.597c-1.57-7.294-4.555-14.164-8.055-20.715c-3.566-6.675-7.468-13.246-11.742-19.496
		c-5.141-7.523-11.586-15.613-19.621-20.679c-3.02,0.246-5.738,0.668-8.883,1.164l-1.183,0.176c-1.059,0.175-2.153,0.266-3.23,0.266
		c-3.676,0-7.278-0.973-10.528-2.738c-2.629,0.762-5.156,1.59-7.222,2.242c-3.039,0.992-5.191,3.781-5.598,7.206
		c-0.195,1.66-0.453,3.684-0.734,5.902l-0.27,0.477c-0.031,0-0.066,0-0.094,0c-4.523,0.031-8.461,0.21-12.078,0.586
		c-1.778,0.176-3.348,0.566-5.047,0.821c-0.859,0.125-1.718,0.266-2.562,0.414c-3.484,0.614-6.84,1.414-10.035,2.375
		c-0.543,0.164-1.09,0.328-1.633,0.504c-1.512,0.492-3.129,0.843-4.59,1.418c-0.141,0.051-0.664,0.274-0.664,0.274l-12.809,2.344
		c-0.527,0.094-0.961,0.453-1.172,0.945c-0.23,0.504-0.175,1.102,0.141,1.562c0.618,0.914,0.442,1.883-0.519,2.946
		c-2.031,1.289-4.102,2.625-6.059,3.926c-3.262,2.184-6.472,4.446-9.55,6.77l-0.664,0.535c-4.305,3.418-7.621,6.813-10.137,10.39
		c-1.61,2.27-3.633,3.989-5.574,5.543c-0.355,0.281-0.726,0.574-1.094,0.867c-1.152,0.914-2.23,1.774-3.441,2.504
		c-0.41,0.234-0.809,0.48-1.203,0.703c-1.294,0.77-2.618,1.554-3.786,2.542c-1.625,1.274-2.871,2.989-4.074,4.629
		c-1.118,1.543-2.176,2.981-3.504,4.118c-0.684,0.57-1.406,1.082-2.203,1.621c-0.813,0.57-1.68,1.16-2.454,1.859
		c-1.41,1.301-2.644,2.77-3.82,4.196l-0.149,0.167c-1.734,2.09-3.339,4.332-4.906,6.504c-0.695,0.969-1.391,1.946-2.098,2.902
		l-4.102,5.719c-2.348,1.851-7.828,6.277-10.359,8.996c-0.496,0.554-0.504,1.382-0.012,1.945c0.406,0.446,1.031,0.59,1.621,0.367
		c0.848-0.355,1.91-0.77,2.965-1.175c0.297-0.082,0.578-0.176,0.883-0.238c-0.523,1.801-1.004,3.93-0.859,6.281
		c0.102,1.371,0.41,2.539,0.969,3.555c0.293,0.562,0.722,1.167,1.206,1.691c0.414,0.48,1.074,1.102,1.84,1.457
		c2.375,0.988,4.149,1.25,6.73-0.191l0.508-0.278l-0.282-1.774l-0.625-0.054c-2.058-0.199-3.59-0.625-4.836-1.332
		c-0.246-0.137-0.445-0.309-0.629-0.512c-0.687-0.758-0.809-1.871-0.793-2.687c0.114-3.414,1.859-6.934,3.359-9.625l0.203-0.375
		c0.715-1.27,0.992-1.766,2.981-4.309c3.218-4.121,9.37-8.937,11.996-10.996l0.386-0.305c0.617-0.507,1.246-0.996,1.84-1.507
		l0.5-0.426c0.582-0.461,1.156-0.934,1.695-1.496c0.648-0.656,1.218-1.39,1.762-2.109c0.637-0.801,1.222-1.547,1.91-2.207
		c1.273-1.317,2.871-2.246,4.542-3.226c1.688-0.965,3.406-1.977,4.797-3.375c1.074-0.992,1.997-2.18,2.895-3.336
		c0.293-0.371,0.574-0.734,0.867-1.11c0.878-1.054,1.878-1.969,2.941-2.949c0.348-0.324,0.684-0.637,1.031-0.961
		c1.168-1.031,3.344-2.297,5.442-3.422c0.985-0.465,2.074-0.937,3.289-1.418c-1.16,2.566-2.538,5.625-3.894,8.504
		c-0.309,0.668-0.203,1.402,0.274,1.953c0.668,0.726,1.73,0.813,2.492,0.188c2.719-2.274,6.414-5.297,8.645-6.875
		c2.942-2.078,3.996-8.004,4.695-11.942l0.152-0.777l1.406-1.086c1.821-1.406,3.614-2.793,5.45-4.145
		c1.285-0.976,2.488-1.812,3.781-2.71l0.664-0.473c1.332-0.965,2.887-1.93,4.379-2.851l0.281-0.168
		c2.719-1.754,5.555-3.153,9.211-4.559c6.066-2.269,12.988-3.726,20.558-4.355c3.492-0.274,6.649-0.371,9.68-0.309l0.023,0.004
		l-1.367,11.898c0.012-0.015,0.019-0.031,0.031-0.046c-0.355,3.972-0.637,7.91-0.758,11.598
		c-0.527,14.718-1.122,26.574,0.898,42.562c-4.985,3.649-9.282,8.238-12.496,13.402c-0.18,0.317-0.344,0.566-0.43,0.762
		c-2.196,3.84-3.965,7.27-5.402,10.508c-3.566,7.906-5.828,15.406-6.954,22.89c-0.027,0.156-0.078,0.707-0.078,0.707l-4.262,11.984
		c-0.18,0.481-0.086,1.027,0.226,1.446c0.32,0.438,0.84,0.683,1.382,0.645c1.086-0.078,1.817,0.546,2.242,1.874
		c0.118,2.352,0.226,4.738,0.383,7.035c0.258,3.824,0.609,7.652,1.082,11.386l0.121,0.813c0.798,5.32,2.063,9.77,3.871,13.648
		c0.551,1.18,0.942,2.387,1.234,3.574c-0.714,2.645-1.714,4.91-2.77,7.418c-0.507,1.285-1.011,2.586-1.422,3.894
		c-0.386,1.324-0.656,2.664-0.813,4.004c-0.086,0.675-0.117,1.351-0.129,2.038c0.047,0.688,0.07,1.363,0.141,2.063
		c0.149,1.378,0.246,2.714,0.301,4.027c0.102,2.652-0.484,5.125-1.262,7.636c-0.832,2.516-1.199,5.086-0.762,7.52
		c0.25,1.218,0.613,2.398,0.969,3.546c0.41,1.149,0.703,2.278,0.867,3.41c0.398,2.242,0.652,4.438,0.992,6.55
		c0.504,4.262,1.758,8.016,3.378,11.047c1.574,3.062,3.219,5.566,4.676,7.519c0.699,0.946,1.355,1.762,1.961,2.461
		c0.493,1.047,0.848,1.844,0.938,2.188c0.246,1.043,0.566,2.82,0.61,4.293c-0.047,0.95-0.278,1.758-0.805,2.242
		c-1.102,0.246-2.953-1.402-2.953-1.402s3.902,9.152,7.617-1.672c0.062-0.152,0.121-0.266,0.184-0.426
		c1.625,0.996,7.3,2.011,7.785-2.958c0.054-0.262,0.141-0.488,0.18-0.769c-0.039,0.023-0.063,0.027-0.102,0.05
		c0-0.07,0.023-0.114,0.019-0.187c-3.023,1.824-4.43,1.816-5.902,0.644c-1.23-0.988-2.469-1.882-4.484-5.289l-0.477-1.55
		c-0.734-2.196-1.617-4.863-2.633-7.914c-0.484-1.512-1.05-3.094-1.641-4.758c-0.687-1.637-1.382-3.344-2.141-5.145
		c-0.374-0.902-0.683-1.84-0.953-2.828c-0.262-0.973-0.57-1.969-0.672-3.008c-0.152-1.042-0.172-2.113-0.086-3.21
		c0.141-1.098,0.375-2.203,0.442-3.297c0.011-1.094,0.019-2.207-0.145-3.336c-0.164-1.133-0.504-2.286-0.738-3.469
		c-0.238-1.184-0.519-2.394-0.508-3.614c0.016-1.206,0.207-2.434,0.52-3.64c0.328-1.207,0.93-2.375,1.457-3.535
		c0.539-1.184,1.066-2.348,1.469-3.559c0.676-2.242,1.054-4.542,1.355-6.91c0.035-0.195,0.043-0.402,0.078-0.598
		c0.274-2.578,0.836-5.359,1.676-7.782c0.644-1.918,1.297-3.874,1.953-5.816c0.031-0.086,0.05-0.145,0.078-0.23l-0.066-0.031
		c0.031-0.703,0.062-1.282,0.094-1.914l0.168-1.254c1.637,2.273,3.621,5.019,5.445,7.633c0.422,0.59,1.094,0.843,1.794,0.718
		c0.934-0.214,1.531-1.082,1.374-2.015c-0.613-3.414-1.371-8.024-1.617-10.664c-0.324-3.504-4.84-7.286-7.836-9.797l-0.578-0.504
		l-0.238-1.719c-0.3-2.234-0.605-4.414-0.847-6.633c-0.207-1.562-0.332-2.984-0.457-4.519l-0.078-0.789
		c-0.183-1.606-0.23-3.383-0.285-5.106l-0.004-0.313c-0.164-3.164,0.031-6.238,0.637-10.011c1.027-6.254,3.156-12.809,6.308-19.531
		c1.653-3.45,3.278-6.45,5-9.238c0.942-1.508,1.883-3,2.879-4.383c0.378-0.57,0.89-1.007,1.453-1.37
		c0.051-0.024,0.086-0.055,0.141-0.074l2.226,12.042l0.348-0.038c0,0.004,0.004,0.004,0.004,0.004c0.863,3.71,1.87,7.667,3,11.87
		c9.835,36.699,41.734,53.21,73.414,49.222C251.293,404.591,251.644,393.907,251.59,383.4z"></path>
	<path class="st0" d="M469.248,336.912c-2.531-2.719-8.012-7.145-10.363-8.996l-4.098-5.719c-0.707-0.957-1.402-1.934-2.098-2.902
		c-1.566-2.172-3.172-4.414-4.906-6.504l-0.148-0.167c-1.176-1.426-2.41-2.895-3.821-4.196c-0.774-0.699-1.641-1.289-2.457-1.859
		c-0.793-0.539-1.516-1.05-2.199-1.621c-1.328-1.137-2.386-2.574-3.508-4.118c-1.203-1.64-2.445-3.355-4.07-4.629
		c-1.168-0.988-2.492-1.773-3.785-2.542c-0.394-0.223-0.797-0.469-1.207-0.703c-1.207-0.73-2.285-1.59-3.438-2.504
		c-0.371-0.293-0.738-0.586-1.094-0.867c-1.942-1.554-3.965-3.274-5.578-5.543c-2.511-3.578-5.828-6.973-10.132-10.39l-0.665-0.535
		c-3.078-2.324-6.289-4.586-9.55-6.77c-1.957-1.301-4.027-2.637-6.058-3.926c-0.961-1.062-1.137-2.031-0.52-2.946
		c0.317-0.461,0.367-1.058,0.141-1.562c-0.21-0.492-0.644-0.851-1.172-0.945l-12.808-2.344c0,0-0.527-0.222-0.668-0.274
		c-7.211-2.832-15.023-4.652-23.867-5.531c-3.614-0.375-7.554-0.554-12.078-0.586c-0.082-0.004-0.192-0.004-0.301-0.004
		c-0.305-2.414-0.582-4.594-0.794-6.375c-0.406-3.426-2.562-6.214-5.598-7.206c-2.066-0.653-4.594-1.481-7.222-2.242
		c-3.25,1.766-6.855,2.738-10.527,2.738c-1.078,0-2.172-0.09-3.23-0.266l-1.184-0.176c-3.144-0.496-5.863-0.918-8.882-1.164
		c-8.035,5.066-14.484,13.156-19.621,20.679c-4.274,6.25-8.176,12.821-11.746,19.496c-3.496,6.551-6.48,13.422-8.05,20.715
		c-1.535,7.117-1.203,14.359-1.219,21.597c-0.019,7.473,0,14.926-0.054,22.394c-0.086,14.993-0.176,29.988-0.262,44.981
		c-0.054,10.507,0.297,21.191-0.336,31.738c31.679,3.988,63.574-12.523,73.414-49.222c0.519-1.934,0.914-3.629,1.379-5.457
		c0.59-2.145,1.156-4.414,1.812-6.398l0.16,0.019l0.637-3.457l0.539-2.324c1.633,2.668,3.18,5.527,4.75,8.805
		c3.152,6.722,5.281,13.277,6.308,19.531c0.606,3.773,0.801,6.847,0.637,10.011l-0.004,0.313c-0.054,1.722-0.102,3.5-0.285,5.106
		l-0.078,0.789c-0.125,1.535-0.25,2.957-0.457,4.519c-0.238,2.219-0.543,4.398-0.848,6.633l-0.234,1.719l-0.582,0.504
		c-2.996,2.511-7.512,6.293-7.836,9.797c-0.242,2.64-1.004,7.25-1.618,10.664c-0.156,0.934,0.442,1.801,1.375,2.015
		c0.699,0.125,1.371-0.129,1.793-0.718c1.028-1.473,2.098-2.969,3.137-4.422c0.786-0.953,1.59-1.878,2.442-2.671
		c0.043,0.804,0.09,1.66,0.129,2.629l-0.066,0.031c0.031,0.086,0.047,0.144,0.078,0.23c0.656,1.942,1.309,3.898,1.953,5.816
		c0.84,2.422,1.402,5.203,1.68,7.782c0.031,0.195,0.039,0.402,0.074,0.598c0.301,2.367,0.679,4.668,1.355,6.91
		c0.402,1.211,0.93,2.375,1.469,3.559c0.527,1.16,1.129,2.328,1.457,3.535c0.313,1.206,0.508,2.434,0.519,3.64
		c0.012,1.219-0.269,2.43-0.507,3.614c-0.234,1.183-0.574,2.336-0.738,3.469c-0.164,1.129-0.156,2.242-0.145,3.336
		c0.066,1.094,0.301,2.199,0.442,3.297c0.086,1.098,0.07,2.168-0.086,3.21c-0.102,1.039-0.41,2.035-0.672,3.008
		c-0.27,0.988-0.578,1.926-0.95,2.828c-0.762,1.801-1.457,3.508-2.144,5.145c-0.59,1.664-1.153,3.246-1.641,4.758
		c-1.016,3.051-1.898,5.718-2.633,7.914l-0.477,1.55c-2.015,3.406-3.254,4.301-4.484,5.289c-1.297,1.035-2.614,1.078-4.969-0.16
		c-0.262-0.172-0.492-0.254-0.774-0.477c0,0.032,0.008,0.051,0.008,0.078c-0.062-0.035-0.102-0.046-0.168-0.086
		c-0.207,6.109,6.207,4.914,7.906,3.851c3.266,10.047,6.722,4.238,7.574,2.535c0.024-0.027,0.058-0.082,0.078-0.11
		c-0.008,0.004-0.027,0.016-0.031,0.02c0.098-0.203,0.156-0.336,0.156-0.336s-0.824,0.714-1.699,1.164
		c-0.324,0.125-0.664,0.218-1.031,0.262c-0.191,0-0.41,0.05-0.558-0.058c-1.027-0.742-0.27-4.742,0.145-6.5
		c0.086-0.344,0.441-1.141,0.933-2.188c0.606-0.699,1.262-1.515,1.966-2.461c1.453-1.953,3.098-4.457,4.671-7.519
		c1.622-3.031,2.875-6.785,3.379-11.047c0.34-2.113,0.594-4.308,0.992-6.55c0.164-1.133,0.457-2.262,0.867-3.41
		c0.355-1.148,0.719-2.328,0.969-3.546c0.438-2.434,0.07-5.004-0.762-7.52c-0.778-2.511-1.359-4.984-1.262-7.636
		c0.054-1.313,0.152-2.649,0.301-4.027c0.07-0.7,0.094-1.375,0.141-2.063c-0.008-0.687-0.039-1.363-0.13-2.038
		c-0.156-1.34-0.426-2.68-0.812-4.004c-0.41-1.309-0.914-2.61-1.422-3.894c-1.054-2.508-2.05-4.774-2.769-7.418
		c0.293-1.187,0.683-2.394,1.234-3.574c1.808-3.878,3.074-8.328,3.87-13.648l0.122-0.813c0.473-3.734,0.824-7.562,1.082-11.386
		c0.157-2.297,0.266-4.683,0.383-7.035c0.426-1.328,1.156-1.953,2.242-1.874c0.543,0.038,1.063-0.207,1.383-0.645
		c0.313-0.418,0.41-0.965,0.226-1.446l-4.262-11.984c0,0-0.05-0.551-0.078-0.707c-1.125-7.484-3.386-14.984-6.949-22.89
		c-1.442-3.238-3.211-6.668-5.406-10.508c-0.086-0.195-0.25-0.445-0.43-0.762c-2.039-3.277-4.523-6.309-7.336-9.031
		c2.73-18.266,2.086-30.906,1.512-46.933c-0.122-3.688-0.406-7.626-0.758-11.598c0.011,0.015,0.019,0.031,0.027,0.046l-1.262-11.007
		l-0.09-0.895c3.031-0.062,6.195,0.035,9.692,0.309c7.57,0.629,14.492,2.086,20.554,4.355c3.66,1.406,6.492,2.805,9.214,4.559
		l0.282,0.168c1.492,0.922,3.046,1.886,4.378,2.851l0.664,0.473c1.294,0.898,2.496,1.734,3.782,2.71
		c1.836,1.352,3.629,2.738,5.449,4.145l1.406,1.086l0.153,0.777c0.695,3.938,1.754,9.863,4.691,11.942
		c2.234,1.578,5.93,4.602,8.648,6.875c0.758,0.625,1.825,0.538,2.489-0.188c0.48-0.55,0.586-1.285,0.273-1.953
		c-1.058-2.254-2.109-4.562-3.086-6.726c-0.274-0.692-0.57-1.383-0.813-2.066c2.551,1.266,6.902,3.504,8.738,5.129
		c0.348,0.324,0.684,0.637,1.031,0.961c1.062,0.98,2.058,1.894,2.942,2.949c0.293,0.375,0.57,0.738,0.863,1.11
		c0.902,1.156,1.82,2.344,2.898,3.336c1.39,1.398,3.11,2.41,4.793,3.375c1.676,0.98,3.274,1.91,4.543,3.226
		c0.687,0.66,1.278,1.406,1.914,2.207c0.542,0.718,1.113,1.453,1.762,2.109c0.538,0.562,1.113,1.035,1.695,1.496l0.5,0.426
		c0.594,0.511,1.222,1,1.84,1.507l0.382,0.305c2.625,2.059,8.782,6.875,12,10.996c1.988,2.543,2.266,3.039,2.981,4.309l0.202,0.375
		c1.497,2.691,3.246,6.21,3.36,9.625c0.015,0.816-0.106,1.93-0.794,2.687c-0.183,0.203-0.382,0.375-0.633,0.512
		c-1.242,0.707-2.773,1.133-4.832,1.332l-0.625,0.054l-0.285,1.774l0.511,0.278c2.582,1.442,4.356,1.179,6.73,0.191
		c0.762-0.355,1.422-0.977,1.84-1.457c0.485-0.524,0.914-1.129,1.207-1.691c0.558-1.016,0.867-2.184,0.965-3.555
		c0.121-1.886-0.199-3.578-0.59-5.125c-0.066-0.41-0.137-0.851-0.195-1.23c1.312,0.5,2.71,1.043,3.777,1.488
		c0.59,0.223,1.211,0.078,1.622-0.367C469.752,338.294,469.744,337.466,469.248,336.912z"></path>
	<path class="st0" d="M177.586,203.253c-3.812,14.023,35.586,25.945,75.535,25.945c39.929,0,79.327-11.922,75.515-25.945
		c-0.798-2.93-2.137-6.25-3.798-9.782c-2.422-5.191-5.531-10.843-8.601-16.371c-3.496-6.304-6.922-12.468-9.254-17.66
		c-13.934-30.995-30.816-31.702-37.968-48.566c-6.184-14.57-10.969-82.828-5.653-90.156c5.95-8.195,8.898-20.258,5.653-20.718h-0.09
		c-2.242,0-10.578,12.012-15.804,12.012C247.875,12.012,239.559,0,237.297,0h-0.07c-3.27,0.461-0.301,12.523,5.633,20.718
		c5.316,7.328,0.546,75.586-5.633,90.156c-7.153,16.863-24.055,17.57-37.973,48.566c-2.328,5.192-5.774,11.356-9.27,17.66
		c-3.074,5.528-6.183,11.18-8.602,16.371C179.723,197.002,178.38,200.323,177.586,203.253z M213.312,167.226
		c0.02-0.035,0.035-0.051,0.035-0.086c1.184-2.137,4.383-1.504,4.734,0.918c0.672,4.714,1.766,9.465,3.286,14.199
		c2.613,8.086,6.285,15.488,10.773,22.019c1.234,1.801-0.285,4.222-2.457,3.942c-14.851-1.962-23.754-4.699-28.434-6.766
		c-1.234-0.547-1.836-1.961-1.359-3.23C203.617,188.401,209.25,174.643,213.312,167.226z"></path>
</g>
</svg>
