<svg version="1.1" id="_x31_0" xmlns="http://www.w3.org/2000/svg" xmlns:xlink="http://www.w3.org/1999/xlink" x="0px" y="0px" viewBox="0 0 512 512" xml:space="preserve">
<g>
	<path class="st0" d="M509.414,324.434c0-4.133-0.078-8.187-0.078-8.215l-0.102-7.515l-30.598-25.254v-16.742h-15.805h-0.047l0,0
		h-0.16v2.218l-0.09,1.223l-42.29-34.875l-4.566-3.786l-3.843-3.164l0.546-2.871l0.52-2.742l3.293-17.512v-32.496h-52.746h-0.16l0,0
		h-0.164v9.515l-0.098,5.836l-8.934-7.339l-52.938-43.727v-35.367C301.156,37.988,284.262,0,256.028,0
		c-28.289,0-45.156,37.988-45.156,101.621v35.367l-52.969,43.727l-5.562,4.57l-3.469,2.723v-15.305H96.125h-0.164l0,0h-0.16v32.496
		l0.234,1.336l3.062,16.199l0.519,2.695l0.543,2.894l-3.863,3.164l-4.516,3.786l-26.004,21.43L49.375,270.09v-3.382H33.571h-0.047
		l0,0h-0.16v16.742L2.766,308.703l-0.102,7.543c0,0-0.078,4.054-0.078,8.234c-0.106,10.934-0.133,15.011,5.137,20.058l5.191,5.019
		h7.394c4.645,0,5.606-0.519,14.766-5.39l16.246-8.606l18.687-9.946c9.574-5.094,20.032-10.656,30.466-16.222
		c0,0,6.355-3.382,11.39-6.058l5.347-2.762v3.008h15.805l0.047,0.003v-0.003h0.16v-11.626c0,0,4.082-2.172,7.238-3.851l3.508-1.778
		v4.074h16.011v-12.691l9.836-5.215l35.699-8.402l6.653-1.535c0.805,23.211,1.843,44.867,3.168,64.446
		c0.777,11.722,1.605,19.711,2.488,28.168l0.078,0.668c-5.863,4.699-12.821,10.312-19.774,15.93
		c-17.286,13.949-34.516,27.922-34.516,27.922l-6.203,5.043v40.824l-0.042,11.11l0.042-0.012v0.164l72.825-20.554l0.254-0.07
		c4.516,16.375,8.774,22.16,10.902,25.027l2.774,3.762v35.118L256.028,512l11.805-11.922v-35.094l2.754-3.734
		c2.102-2.821,6.355-8.535,10.922-25.055l57.188,16.141l15.734,4.484v-0.042l0.16,0.042v-52.086l-6.203-5.043
		c0,0-17.23-13.973-34.515-27.898c-6.954-5.641-13.91-11.254-19.774-15.953L294.2,355c0.855-8.41,1.687-16.348,2.465-27.996
		c1.234-18.282,2.21-38.406,2.992-59.836c0.066-1.562,0.137-3.047,0.203-4.633l42.324,9.961l9.836,5.215v12.492v0.039l0,0v0.16
		h16.012v-2.934l0.066-1.187c3.378,1.797,6.938,3.687,10.679,5.675v11.434l-0.003,0.031h0.003v0.161h15.829l0.046,0.003v-0.003h0.16
		v-2.199l0.062-0.86c5.458,2.91,11.039,5.891,16.653,8.871c10.43,5.566,49.152,26.168,49.152,26.168l16.242,8.606
		c9.164,4.871,10.121,5.39,14.77,5.39h7.394l5.164-4.996C509.543,339.492,509.52,335.414,509.414,324.434z M336.899,434.305
		l-56.012-15.817c0.492-2.5,0.988-5.07,1.481-7.867c0.129-0.816,0.285-1.656,0.441-2.496c0.024-0.148,0.051-0.297,0.078-0.445
		l38.614,16.398l0.703-1.363l0.594-1.199l0.008-0.016l0,0l0.07-0.145l-39.133-18.918c1.168-7.394,2.336-15.782,3.426-25.328
		c0.125-1.153,0.266-2.371,0.394-3.582l0.164-0.816c20.496,16.496,49.214,39.789,49.214,39.789v17.27L336.899,434.305z
		 M111.555,203.886v-16.171h21.566v16.171l-0.703,3.711l-4.668,3.859l-10.382,8.555l-0.024,0.05h-2.726l-0.648-3.438
		L111.555,203.886z M276.688,347.668c-0.004,0.035-0.008,0.066-0.008,0.102c-0.054-0.039-0.102-0.078-0.152-0.114
		c-0.207,2.547-0.442,5.094-0.676,7.59c-0.234,2.476-0.465,4.922-0.726,7.37c0.183,0.126,0.363,0.274,0.519,0.395
		c-0.156,1.66-0.312,3.293-0.519,4.922c-0.59,5.836-1.266,11.473-1.981,16.984c-0.578,3.848-1.175,7.68-1.961,11.379
		c-0.004,0.016-0.004,0.035-0.008,0.054l-0.152-0.074c-0.129,1.015-0.282,2.027-0.438,3.019c-0.156,0.988-0.312,1.977-0.469,2.942
		l0.297,0.121l0.219,0.25c-0.016,0.086-0.031,0.172-0.047,0.246c-0.156,0.942-0.312,1.879-0.469,2.797
		c-0.336,2.07-0.718,4.028-1.086,6.012c-0.258,0.988-0.516,1.977-0.863,2.934l-0.102-0.614c-0.051,0.274-0.102,0.57-0.157,0.844
		c-0.414,2.102-0.828,4.129-1.269,6.082c-0.028,0.172-0.055,0.32-0.106,0.469c-0.414,1.93-0.856,3.785-1.297,5.59l0.519,0.148
		c-0.184,0.668-0.336,1.41-0.519,2.078c-1.09,4.188-2.266,7.824-3.504,11.176c-0.422,1.035-0.817,2.168-1.282,3.102l-0.121-0.824
		v-0.024l-1.168-9.004c0,0,0.39-3.164,0.91-8.086c0.078-0.766,0.157-1.558,0.234-2.398c0.13-1.211,0.258-2.523,0.387-3.883
		c0.078-0.867,0.156-1.781,0.262-2.718c0.078-1.164,0.18-2.375,0.285-3.59h0.051l-0.023-0.145c0.336-4.453,0.671-9.25,0.855-13.95
		c0.05-1.113,0.078-2.226,0.129-3.316c0-0.023,0-0.023,0-0.023c0.051-1.981,0.078-3.91,0.078-5.762c0-1.387-0.027-2.77-0.051-4.157
		v-0.098c-0.027-1.214-0.078-2.426-0.106-3.613c-0.027-0.024-0.027-0.047-0.027-0.074c-0.308-7.442-1.035-14.715-2.023-20.352
		c-1.012-5.938-2.309-10.117-3.684-10.859c-0.156-0.074-0.285-0.125-0.441-0.125c-0.157,0-0.313,0.05-0.469,0.148
		c-1.375,0.77-2.672,4.922-3.684,10.836c-0.988,5.637-1.714,12.91-2.023,20.352c0,0.027,0,0.05-0.027,0.074
		c-0.023,1.187-0.078,2.398-0.102,3.613v0.098c-0.027,1.387-0.054,2.77-0.054,4.157c0,1.851,0.027,3.781,0.078,5.762
		c0,0,0,0,0,0.023c0.055,1.09,0.078,2.203,0.129,3.316c0.207,4.723,0.52,9.52,0.883,13.997l-0.023,0.098h0.023
		c0.106,1.214,0.207,2.426,0.312,3.59c0.078,0.938,0.157,1.851,0.234,2.718c0.13,1.36,0.258,2.672,0.364,3.883h0.023
		c0.078,0.84,0.156,1.633,0.21,2.398c0.516,4.922,0.934,8.086,0.934,8.086l-1.167,9.004v0.024l-0.074,0.625l-0.118,0.301
		c-1.687-4.051-3.254-8.856-4.687-14.379c-0.106-0.378-0.191-0.785-0.282-1.187c0.008-0.293,0.016-0.586,0.126-0.992l0.156-0.047
		c-0.469-1.805-0.91-3.66-1.324-5.59c-0.028-0.149-0.051-0.297-0.106-0.442c-0.414-1.981-0.856-4.008-1.27-6.11
		c-0.023-0.133-0.051-0.27-0.074-0.406l0.074-0.41l-0.118,0.183c-0.011-0.07-0.027-0.141-0.038-0.211l-0.059,0.36l-0.308,0.469
		c-0.586-2.946-1.149-6-1.684-9.161c-0.145-0.843-0.285-1.71-0.43-2.574l0.254-0.766l0.176-0.074
		c-0.156-0.965-0.309-1.954-0.465-2.942c-0.156-0.992-0.313-2.004-0.442-3.019l-0.496,0.246c-1.347-8.976-2.543-18.57-3.606-28.59
		c-0.102-1.058-0.21-2.125-0.32-3.191l0.152-1.989c0.059-0.046,0.114-0.094,0.168-0.137c-0.262-2.449-0.492-4.922-0.726-7.394
		c-0.234-2.496-0.469-4.996-0.676-7.542c-0.156,0.125-0.312,0.246-0.492,0.37c-3.32-38.285-4.984-75.73-5.762-107.062
		c-0.078-2.078-0.129-4.109-0.156-6.062c-0.051-2.078-0.102-4.054-0.129-6.008c-0.313-15.262-0.414-27.007-0.414-33.14v-94.157
		c0-55.301,13.961-85.398,27.508-85.398c13.519,0,27.484,30.098,27.484,85.398v94.157c0,6.133-0.078,17.878-0.418,33.14
		c-0.027,1.954-0.078,3.93-0.129,6.008c-0.028,1.954-0.078,3.985-0.13,6.062c-0.48,19.332-1.301,40.993-2.636,63.738
		C279.227,319.492,278.109,333.91,276.688,347.668z M215.543,198.817l-1.195,0.644l-6.152,3.438l-39.653,22.035l0.676,1.586
		l0.618,1.367l0.011,0.043h0.004l0.066,0.145l39.137-19.118l4.562-2.238l1.954-0.878c0.078,7.16,0.206,15.961,0.414,25.945
		c0.023,1.981,0.078,3.985,0.129,6.035c0.02,0.809,0.043,1.664,0.062,2.493l-0.152,3.976l-0.039,0.012l-52.71,12.39
		c0,0-142.758,76.051-142.989,76.051c-0.234,0,0-16.274,0-16.274l82.653-68.211l5.996-4.945l11.73-9.672l6.254-5.168l37.914-31.286
		l5.996-4.949l11.289-9.297l6.226-5.145l27.172-22.434v40.586C215.516,196.84,215.543,197.805,215.543,198.817z M175.032,434.274
		V412.5c0,0,28.805-23.344,49.309-39.84c0.156,1.508,0.335,2.992,0.465,4.45c1.117,9.546,2.285,17.934,3.453,25.328l-38.863,18.778
		l-0.153,0.074l0,0l-0.144,0.066l0.676,1.36l0.699,1.363l8.941-3.797l29.77-12.059c0.149,0.809,0.301,1.618,0.422,2.398
		c0.519,2.797,1.011,5.367,1.507,7.867l-44.32,12.508L175.032,434.274z M378.879,203.886v-16.171h21.566v16.171l-2.414,12.738
		l-0.649,3.438h-2.726l-0.05-0.05l-10.379-8.555l-4.649-3.859L378.879,203.886z M295.708,243.89v-0.035
		c0.05-2.054,0.101-4.082,0.152-6.035c0.054-2.05,0.106-4.054,0.133-6.035c0.234-10.015,0.363-18.843,0.438-26.015l0.289,0.148
		l6.203,3.039l37.734,18.438l1.25,0.614l0.003-0.004l0.145,0.07l0.699-1.555l0.676-1.586l-39.653-22.035l-6.152-3.438l-1.168-0.644
		v-26.665l0.102-16.702l27.07,22.347l6.23,5.145l11.285,9.297l5.997,4.949l37.914,31.286l6.254,5.168l11.731,9.672l5.996,4.945
		l82.656,68.211c0,0,0.23,16.274,0,16.274c-0.207,0-142.992-76.051-142.992-76.051l-17.301-4.066L295.708,243.89z" style="fill:#404040;"></path>
	<path class="st0" d="M256.016,38.484c-7.531,0-15.539,8.469-18.297,16.383l-0.43,1.25L238.266,57
		c1.805,1.649,3.32,3.07,3.328,3.078l2.953-0.234c1.782-2.313,7.328-8.305,11.469-8.305c4.118,0,9.657,5.992,11.438,8.305
		l2.954,0.234c0.007-0.008,1.523-1.43,3.328-3.078l0.976-0.883l-0.43-1.25C271.524,46.953,263.524,38.484,256.016,38.484z" style="fill:#404040;"></path>
</g>
</svg>
