<?xml version="1.0" encoding="utf-8"?>
<!-- Generator: Adobe Illustrator 19.1.1, SVG Export Plug-In . SVG Version: 6.00 Build 0)  -->
<svg version="1.1" id="_x31_0" xmlns="http://www.w3.org/2000/svg" xmlns:xlink="http://www.w3.org/1999/xlink" x="0px" y="0px"
	 viewBox="0 0 512 512" style="enable-background:new 0 0 512 512;" xml:space="preserve">
<style type="text/css">
	.st0{fill:#374149;}
</style>
<g>
	<path class="st0" d="M511.988,103.091l-39.338,3.008c-2.485,0.199-61.593,5.046-122.861,33.382
		c-33.839,15.582-56.616,37.768-70.951,56.03l1.046,1.77c3.402,5.89,3.402,13.16,0.066,19.113c-0.066,0-0.066,0.066-0.066,0.066
		c-0.133,0.262-0.262,0.457-0.457,0.656c-0.523,0.914-1.18,1.766-1.969,2.551c0.07,0.066,0.199,0.195,0.266,0.262
		c2.75,2.617,5.172,5.762,7.004,9.297c0.523,0.785,0.914,1.636,1.242,2.488c0.59-1.051,1.246-2.23,2.031-3.473
		c2.617-4.449,6.285-10.082,11.19-16.296c12.176-15.645,31.945-35.019,61.597-48.698c50.295-23.238,99.478-29.542,111.228-30.773
		c1.386-0.129,2.328-0.199,2.644-0.203c-1.285,3.914-2.16,6.848-2.332,7.434c-0.007,0.012-0.031,0.074-0.039,0.082
		c0.008,0,0.008,0,0.016,0c-0.012,0.028-0.047,0.157-0.047,0.157c5.301,0,9.226,1.507,9.226,1.507
		c-6.804,52.819-8.507,97.334-34.167,113.17c-0.062,0.066-0.195,0.133-0.262,0.195c-3.598,2.164-8.445,3.867-14.335,5.172
		c-5.102,1.179-10.996,2.031-17.343,2.617c-8.508,0.852-17.871,1.18-27.625,1.18c-36.917,0-78.889-5.054-96.045-9.57
		c-1.078-0.297-2.082-0.594-2.961-0.89c0,0.012,0,0.023-0.004,0.031c-0.042-0.012-0.109-0.027-0.152-0.043
		c-0.328,4.649-0.985,9.031-1.832,13.09c-0.957,4.523-2.102,8.649-3.309,12.246c-0.019,0.054-0.035,0.117-0.054,0.168h0.004
		c-0.016,0.046-0.031,0.105-0.047,0.156c22.91,6.414,70.69,10.996,104.4,10.996c14.582,0,26.144-0.746,35.617-1.902
		c1.562-0.164,3.179-0.313,4.663-0.496l-1.594,3.378c0,0,5.758,11.062,7.789,22.515c2.946,15.972,6.676,38.163-91.771,68.077
		c-2.746,0.851-5.562,1.246-8.312,1.246c-8.898,0-17.538-4.129-23.171-11.327c-15.274-19.41-24.355-56.898-28.195-76.002
		c-0.863-4.485-1.434-7.946-1.703-9.875c-0.031,0.078-0.058,0.145-0.094,0.223c-0.015-0.082-0.039-0.211-0.05-0.29
		c-0.262,0.59-0.523,1.18-0.719,1.703l-0.328,3.469l-3.144,35.281l-2.879,31.878c4.516,10.996,10.019,21.406,16.496,29.714
		c10.472,13.422,26.835,21.406,43.788,21.406c5.434,0,10.738-0.785,15.906-2.355c88.237-26.835,118.083-53.346,109.966-97.857
		c-1.176-6.286-3.012-12.305-4.844-17.282l1.508-3.206l5.691-12.238c31.945-20.683,36.855-62.772,42.613-111.341
		c0.785-6.477,1.57-13.156,2.422-19.898l2.683-20.617l-4.582-1.702l4.633-13.859l1.859-5.359l-0.07,0.007L511.988,103.091z"/>
	<path class="st0" d="M232.1,290.685l-0.262-3.402c-0.187-0.378-0.375-0.828-0.566-1.277c-0.019-0.153-0.07-0.297-0.062-0.465
		c-0.008,0.062-0.027,0.171-0.039,0.234c-0.039-0.094-0.078-0.165-0.117-0.262c-1.766,10.477-11.191,61.987-30.042,85.944
		c-5.629,7.198-14.27,11.327-23.171,11.327c-2.75,0-5.566-0.394-8.313-1.246c-98.446-29.914-94.65-52.105-91.767-68.077
		c2.094-11.453,7.789-22.515,7.789-22.515l-1.094-2.312l-0.454-1.145c10.199,1.5,23.258,2.477,40.23,2.477
		c32.882,0,79.085-4.367,102.599-10.535c0.543-0.137,1.137-0.274,1.649-0.414c0,0,0-0.003-0.004-0.007
		c0.051-0.016,0.11-0.028,0.156-0.039c-1.242-3.668-2.422-7.922-3.402-12.57c-0.766-3.656-1.34-7.609-1.692-11.746
		c-0.015-0.394-0.086-0.801-0.094-1.191c-0.008,0.004-0.023,0.008-0.031,0.008c-0.004-0.055-0.012-0.106-0.015-0.161
		c-14.598,4.715-59.698,10.473-99.166,10.473c-9.754,0-19.113-0.328-27.624-1.18c-6.347-0.586-12.238-1.438-17.343-2.617
		c-4.098-0.91-7.652-2.023-10.672-3.336c-0.57-0.254-1.125-0.515-1.66-0.785c-0.687-0.344-1.386-0.68-2.004-1.051
		c-0.062-0.062-0.195-0.129-0.262-0.195c-25.655-15.835-27.358-60.35-34.101-113.17c0,0,3.606-1.359,8.59-1.468
		c0.141,0.003,0.278,0,0.418,0.007l-0.008-0.035c0.058,0,0.106-0.011,0.164-0.011c0,0-0.801-2.703-1.988-6.371
		c-0.126-0.453-0.242-0.863-0.379-1.347c0.637,0.05,56.498,4.53,113.838,31.022c29.651,13.679,49.417,33.054,61.592,48.698
		c4.91,6.214,8.574,11.847,11.191,16.296c0.469,0.742,0.824,1.39,1.211,2.074c0.21,0.442,0.531,0.882,0.671,1.336
		c0.016-0.043,0.035-0.062,0.051-0.106c0.027,0.05,0.07,0.117,0.098,0.168c0.328-0.852,0.718-1.703,1.242-2.488
		c1.785-3.442,4.14-6.489,6.797-9.066c0.133-0.118,0.222-0.262,0.359-0.379l0.113-0.113c-0.789-0.786-1.441-1.637-1.965-2.551
		c-0.195-0.199-0.328-0.394-0.461-0.656c0,0,0-0.066-0.066-0.066c-3.336-5.953-3.336-13.222,0.066-19.113l1.051-1.77
		c-14.34-18.262-37.117-40.448-70.956-56.03c-61.264-28.336-120.372-33.183-122.86-33.382l-28.222-2.16l-10.964-0.902l0.023,0.066
		L0,103.091l6.477,19.375l-4.578,1.702l2.68,20.617c0.855,6.809,1.636,13.422,2.422,19.898
		c5.762,48.569,10.738,90.658,42.612,111.403l5.762,12.176l1.504,3.206c-1.898,4.977-3.73,10.996-4.906,17.282
		c-8.054,44.51,21.726,71.022,109.962,97.857c5.172,1.57,10.539,2.355,15.906,2.355c16.953,0,33.315-7.984,43.788-21.406
		c6.48-8.246,11.98-18.652,16.558-29.652l-2.878-31.807L232.1,290.685z"/>
	<path class="st0" d="M266.99,302.665c-2.683,1.047-5.694,1.637-9.097,1.766c-0.527,0.07-1.051,0.07-1.57,0.07h-0.59
		c-0.59,0-1.114,0-1.637-0.07c-2.813-0.109-5.371-0.617-7.695-1.378c-0.375-0.153-0.832-0.223-1.18-0.402l0.004,0.062
		c-0.05-0.02-0.114-0.027-0.164-0.047l2.488,28.144l4.321,48.046c0.262,3.074,2.226,4.582,4.125,4.582
		c1.965,0,3.859-1.508,4.121-4.582l4.32-48.108l1.754-19.273l0.859-8.66c-0.024,0.008-0.051,0.011-0.074,0.023L266.99,302.665z"/>
	<path class="st0" d="M277.111,245.814c0-5.038-1.52-9.437-4-13.038c-0.398-0.718-0.801-1.359-1.36-2
		c-1.519-2-3.441-3.679-5.359-5.117c-1.762-1.203-3.601-2.16-5.281-2.883c-0.078,0-0.078,0-0.078,0
		c-1.839-0.718-3.601-1.117-5.042-1.117c-1.438,0-3.199,0.398-5.039,1.117c-1.679,0.723-3.598,1.68-5.359,2.883
		c-1.918,1.438-3.758,3.117-5.359,5.117c-0.558,0.641-0.961,1.282-1.359,2c-2.481,3.602-4,8-4,13.038
		c0,5.922,0.558,11.363,1.519,16.242c0.879,4.801,2.078,9.121,3.282,12.878c0.398,1.043,0.718,2,1.117,2.879
		c0.801,2.242,1.68,4.242,2.321,5.843c0.48,0.957,0.8,1.68,1.199,2.398v0.078c0.402,1.042,0.882,1.843,1.121,2.48
		c0.16,0.402,0.32,0.723,0.641,0.961c2.32,2.879,7.918,3.122,9.519,3.122c0.16,0.718,0.242,1.519,0.398,2.398
		c0.164-0.879,0.32-1.68,0.48-2.398c1.52,0,7.203-0.242,9.442-3.122c0.32-0.238,0.558-0.558,0.718-0.961
		c0.242-0.558,0.641-1.359,1.043-2.398c0.398-0.718,0.718-1.519,1.199-2.558c0.718-1.602,1.519-3.602,2.398-5.843
		c0.32-0.879,0.641-1.836,1.039-2.879c1.203-3.758,2.402-8.078,3.281-12.878C276.552,257.178,277.111,251.737,277.111,245.814z
		 M255.674,246.858c-1.121,4.16-4.722,6.558-7.999,5.359c-3.363-1.121-5.122-5.519-4-9.679c1.117-4.16,4.718-6.558,7.999-5.359
		C255.034,238.378,256.791,242.698,255.674,246.858z"/>
	<path class="st0" d="M227.257,111.994l-0.262-0.199c-0.391-0.324-0.719-0.649-1.043-0.914c-0.656-0.523-1.313-1.109-1.902-1.37
		c-2.355-1.313-4.121-1.574-4.121-1.574c-0.262-0.062-0.59-0.062-0.918-0.062c-1.703,0.195-2.878,1.762-2.683,3.398
		c0,0,0.195,1.836,1.375,4.258c0.262,0.59,0.523,1.176,0.785,1.832c0.199,0.328,0.324,0.656,0.523,0.98l0.133,0.262
		c0,0.133,0.195,0.133,0.719-0.262c0.457-0.266,0.66-0.324,0.785-0.324c0.054,0.012,0.114,0.035,0.172,0.058
		c0.039,0.074,0.05,0.176,0.156,0.203c1.176,1.176,2.551,2.618,3.797,4.254c5.039,6.808,9.882,17.281,13.414,28.147
		c3.211,9.817,5.371,19.961,6.547,28.078c0.133,0.918,0.262,1.832,0.394,2.684c0.195,1.636,0.39,3.14,0.523,4.515
		c0.262,2.75,0.461,5.11,0.59,6.742c-1.832,0.527-3.145,2.226-3.145,4.187c0,1.113,0.394,2.098,1.18,2.882l-1.962,3.402
		c-0.656,1.18-0.98,2.359-0.98,3.602v0.066c0,0.477,0.242,0.906,0.336,1.375c0.039,0.179,0.074,0.351,0.125,0.527
		c0.453,1.617,1.25,3.129,2.614,4.121c0.195-0.199,0.39-0.262,0.652-0.328c3.73-1.707,7.527-2.621,10.934-2.621
		c3.402,0,7.198,0.914,10.929,2.621c0.262,0.066,0.462,0.129,0.657,0.328c1.961-1.379,3.14-3.734,3.14-6.156
		c0-1.176-0.324-2.422-1.05-3.535l-1.961-3.402c0.785-0.785,1.179-1.77,1.179-2.882c0-1.961-1.308-3.66-3.14-4.187
		c0.129-1.633,0.324-3.993,0.586-6.742c0.133-1.375,0.328-2.879,0.523-4.515c0.133-0.852,0.266-1.766,0.395-2.684
		c1.175-8.117,3.335-18.261,6.546-28.078c3.535-10.866,8.375-21.339,13.418-28.147c1.242-1.637,2.684-3.078,3.797-4.254
		c0.262-0.066-0.133-0.656,1.11,0.062c0.59,0.395,0.789,0.395,0.718,0.262l0.133-0.262c0.199-0.324,0.328-0.652,0.523-0.98
		c0.262-0.656,0.59-1.242,0.79-1.832c1.175-2.422,1.371-4.258,1.371-4.258c0.066-0.262,0.066-0.586,0-0.914
		c-0.325-1.637-1.898-2.746-3.598-2.422c0,0-1.766,0.262-4.125,1.574c-0.59,0.262-1.242,0.847-1.898,1.37
		c-0.329,0.266-0.653,0.59-0.985,0.914l-0.258,0.199c-0.195,0.066-0.133,0.195,0.328,0.718c0.398,0.458,0.484,0.653,0.481,0.786
		c0,0.039-0.012,0.09-0.024,0.137c-0.074,0.078-0.195,0.117-0.195,0.258c-0.918,1.57-1.965,3.402-3.144,5.367
		c-2.227,3.992-4.844,8.511-7.133,13.613c-2.293,5.043-4.387,10.606-6.156,16.234c-1.699,5.695-3.27,11.39-4.321,16.819
		c-0.718,3.668-1.304,7.203-1.832,10.41c-0.191,1.57-0.457,3.074-0.652,4.519c-0.066,0.52-0.133,1.043-0.195,1.566
		c-0.238,1.786-0.418,3.379-0.558,4.871c-0.086,0.535-0.153,1.179-0.25,1.683c-1.43-1.39-3.285-2.102-5.148-2.102
		c-1.598,0-3.094,0.618-4.402,1.594c-0.258,0.156-0.527,0.254-0.778,0.434c-0.195-1.821-0.453-4.02-0.777-6.481
		c-0.066-0.523-0.133-1.046-0.196-1.566c-0.199-1.445-0.461-2.949-0.656-4.519c-0.523-3.207-1.113-6.742-1.832-10.41
		c-1.046-5.429-2.621-11.124-4.258-16.819c-1.832-5.629-3.926-11.191-6.214-16.234c-2.294-5.102-4.91-9.621-7.133-13.613
		c-1.118-1.965-2.23-3.797-3.145-5.367c0.066-0.328-0.652-0.066,0.328-1.18C227.323,112.189,227.39,112.06,227.257,111.994z"/>
</g>
</svg>
