<svg version="1.1" id="_x31_0" xmlns="http://www.w3.org/2000/svg" xmlns:xlink="http://www.w3.org/1999/xlink" x="0px" y="0px"
	 viewBox="0 0 512 512" xml:space="preserve">
<g>
	<path class="st0" d="M230.754,302.341c-2.976-6.762-6.902-17.294-9.031-30.29c-0.007-0.07-0.027-0.137-0.039-0.207v0.004
		c-0.011-0.054-0.023-0.106-0.034-0.16c-26.18,6.016-73.258,10.894-111.231,10.894c-19.511,0-35.773-1.137-48.945-3.496l-4.39,3.821
		l7.722,17.16c0,0-6.746,13.82-9.188,27.969c-3.414,19.918-7.804,47.48,108.059,84.637c3.25,0.976,6.586,1.465,9.836,1.465
		c10.488,0,20.652-5.039,27.32-14.063c17.402-23.339,27.973-51.633,32.687-66.43l-2.355-26.183L230.754,302.341z"/>
	<path class="st0" d="M67.082,263.556c3.414,0.488,7.074,0.977,10.812,1.301c10.004,1.058,21.058,1.461,32.523,1.461
		c41.223,0,87.649-5.687,109.606-10.973c-0.086-1.058-0.086-2.113-0.086-3.171c0-5.367,1.062-10.246,2.847-14.637
		c0.977-2.602,2.282-5.039,3.902-7.234c1.547-2.52,3.5-4.797,5.531-6.828c0.078-0.082,0.078-0.082,0.165-0.168
		c-6.184-11.462-32.122-53.497-90.254-81.875c-60.766-29.614-120.074-37.004-131.89-38.234c-1.226-0.145-2.066-0.242-2.118-0.27
		c0.008,0.023,0.012,0.043,0.02,0.062c-0.027,0-0.172-0.015-0.172-0.015c1.617,5.086,2.695,9.027,2.805,9.437
		c0.004,0.043,0.023,0.133,0.023,0.161C4.547,112.575,0,114.356,0,114.356c7.969,65.618,10.004,120.906,40.168,140.582
		c4.226,2.766,9.922,4.878,16.828,6.586C60.09,262.255,63.504,262.904,67.082,263.556z"/>
	<path class="st0" d="M447.199,300.068l7.641-17.16l-4.39-3.742c-13.172,2.281-29.352,3.418-48.864,3.418
		c-37.269,0-83.066-4.683-109.535-10.527c-0.503-0.114-1.05-0.222-1.538-0.34v0.004c-0.051-0.008-0.11-0.019-0.161-0.031
		c-2.113,13.25-6.098,23.902-9.105,30.734l-0.489,5.039l-2.359,26.183c4.801,14.797,15.371,43.09,32.77,66.43
		c6.668,9.024,16.832,14.063,27.32,14.063c3.25,0,6.586-0.489,9.758-1.465c115.945-37.157,111.55-64.719,108.137-84.637
		C453.946,313.888,447.199,300.068,447.199,300.068z"/>
	<path class="st0" d="M501.114,112.544c0.019-0.066,0.91-3.336,2.262-7.706c0.195-0.57,0.371-1.098,0.59-1.703
		c0,0-0.058,0.007-0.066,0.007c0.019-0.058,0.035-0.105,0.051-0.167c0,0-66.184,5.367-134.078,38.457
		c-58.133,28.378-84.07,70.414-90.25,81.875c0.082,0.086,0.082,0.086,0.164,0.168c2.032,2.031,3.902,4.222,5.528,6.746
		c1.542,2.278,2.843,4.715,3.902,7.317c1.789,4.39,2.847,9.27,2.847,14.637c0,1.058,0,2.113-0.082,3.171
		c21.953,5.363,68.378,10.973,109.605,10.973c11.462,0,22.524-0.402,32.524-1.378c3.738-0.406,7.316-0.895,10.812-1.383
		c3.578-0.652,6.993-1.301,10.082-2.031c6.91-1.707,12.602-3.82,16.828-6.586c30.164-19.676,32.118-74.965,40.168-140.582
		c0,0-4.082-1.527-9.824-1.718C501.809,112.614,501.496,112.556,501.114,112.544z"/>
	<path class="st0" d="M220.266,94.11l-0.328-0.324c-0.402-0.406-0.89-0.73-1.219-1.141c-0.89-0.566-1.625-1.297-2.355-1.625
		c-2.926-1.625-5.203-2.031-5.203-2.031c-0.324-0.082-0.734-0.082-1.137,0c-2.035,0.242-3.578,2.114-3.336,4.226
		c0,0,0.325,2.195,1.707,5.203c0.324,0.734,0.653,1.543,1.055,2.359c0.164,0.406,0.41,0.813,0.574,1.219l0.16,0.246
		c0,0.242,0.242,0.161,0.977-0.246c0.641-0.402,0.875-0.465,1.012-0.442c0.043,0.008,0.09,0.031,0.137,0.047
		c0.054,0.094,0.062,0.23,0.234,0.23c1.382,1.542,3.09,3.25,4.633,5.367c6.262,8.457,12.281,21.382,16.75,34.965
		c4.309,13.496,7.238,27.562,8.535,38.214c0.246,1.946,0.489,3.821,0.574,5.528c1.543-1.79,3.414-3.172,5.523-4.149
		c-0.078-0.73-0.16-1.465-0.242-2.195c-0.734-5.367-1.626-11.707-3.086-18.457c-1.305-6.746-3.172-13.821-5.289-20.895
		c-2.195-6.992-4.875-13.902-7.723-20.246c-2.847-6.344-6.098-11.954-8.859-16.832c-1.386-2.52-2.687-4.715-3.906-6.746
		c0.082-0.406-0.812-0.082,0.406-1.382C220.43,94.352,220.43,94.11,220.266,94.11z"/>
	<path class="st0" d="M292.469,96.388c-1.141,2.031-2.442,4.226-3.906,6.746c-2.679,4.878-5.934,10.488-8.859,16.832
		c-2.766,6.343-5.45,13.254-7.645,20.246c-2.113,7.074-3.98,14.149-5.285,20.895c-1.465,6.75-2.356,13.09-3.172,18.457
		c-0.078,0.73-0.16,1.465-0.242,2.195c2.114,0.977,3.985,2.282,5.527,4.066c0.008-0.058,0.016-0.133,0.024-0.195
		c0.027,0.035,0.07,0.058,0.098,0.09l-0.082-0.242c0.153-1.609,0.305-3.277,0.535-5.098c1.379-10.652,4.305-24.718,8.614-38.214
		c4.473-13.582,10.41-26.508,16.672-34.965c1.621-2.118,3.332-3.825,4.714-5.367c0.406,0-0.164-0.813,1.383,0.164
		c0.73,0.406,0.976,0.488,0.89,0.246l0.164-0.246c0.246-0.406,0.488-0.813,0.652-1.219c0.402-0.816,0.731-1.625,1.055-2.359
		c1.382-3.008,1.629-5.203,1.629-5.203c0.078-0.406,0.078-0.734,0-1.137c-0.41-2.117-2.359-3.5-4.477-3.09
		c0,0-2.191,0.406-5.121,2.031c-0.73,0.328-1.461,1.058-2.355,1.625c-0.406,0.41-0.813,0.734-1.219,1.141l-0.328,0.324
		c-0.242,0-0.164,0.242,0.41,0.895c0.507,0.538,0.609,0.769,0.602,0.918c-0.004,0.051-0.028,0.11-0.039,0.16
		C292.614,96.169,292.469,96.22,292.469,96.388z"/>
	<path class="st0" d="M270.11,317.22c-0.813,0.488-1.711,0.817-2.606,1.141c-2.926,1.054-5.852,1.543-8.293,1.621
		c-1.055,0.164-2.031,0.164-2.844,0.164h-0.734c-0.813,0-1.785,0-2.922-0.164c-2.36-0.16-5.286-0.566-8.215-1.621
		c-0.718-0.195-1.39-0.527-2.09-0.848c-0.122-0.086-0.223-0.125-0.352-0.222l0.008,0.082c-0.058-0.028-0.11-0.043-0.168-0.07
		l1.141,13.007l1.785,20.329l6.02,66.836c0.324,3.742,2.762,5.609,5.121,5.609c2.438,0,4.797-1.867,5.203-5.609l6.016-66.836
		l1.789-20v-0.082l0.714-8.355l0.508-4.84c-0.031,0.015-0.066,0.023-0.094,0.039L270.11,317.22z"/>
	<path class="st0" d="M262.625,193.716c-0.16-0.25-0.242-0.41-0.488-0.652c-1.461-2.114-3.817-3.172-6.176-3.172
		c-2.281,0-4.633,1.058-6.098,3.172c-0.246,0.242-0.328,0.402-0.488,0.652l-0.328,0.566c-0.566-0.406-1.219-0.566-1.867-0.566
		c-1.462,0-2.684,0.809-3.254,1.946c-0.406,0.574-0.566,1.218-0.566,1.871c0,1.465,0.809,2.683,1.95,3.258l-3.496,6.012
		c-0.082,0.086-0.082,0.164-0.082,0.242c-1.707,3.094-0.977,6.672,1.219,8.867c1.058-0.57,2.195-1.062,3.254-1.382
		c3.414-1.383,6.75-2.031,9.758-2.031c3.09,0,6.422,0.648,9.836,2.031c1.058,0.32,2.195,0.813,3.254,1.382
		c2.196-2.195,2.926-5.773,1.219-8.867c0-0.078,0-0.156-0.082-0.242l-3.394-5.926l-0.098-0.171c1.141-0.57,1.867-1.79,1.867-3.172
		c0-0.653-0.164-1.297-0.57-1.871c-0.566-1.137-1.789-1.946-3.172-1.946c-0.648,0-1.297,0.16-1.867,0.566L262.625,193.716z"/>
	<path class="st0" d="M281.883,260.919c0.238-2.718,0.398-5.598,0.398-8.477V252.2c0-4.321-0.879-8.238-2.398-11.68
		c-0.165-0.48-0.321-0.879-0.641-1.359c-0.961-2.082-2.242-4.082-3.68-5.762c-1.679-2.16-3.679-4-5.679-5.438
		c-0.321-0.321-0.641-0.562-0.962-0.722c-0.082-0.078-0.16-0.161-0.16-0.161c-2.402-1.679-4.722-2.878-7.043-3.679
		c-0.238-0.078-0.476-0.16-0.718-0.238c-1.84-0.562-3.598-0.883-5.039-0.883c-1.442,0-3.199,0.321-4.961,0.883
		c-0.238,0.078-0.481,0.16-0.718,0.238c-2.321,0.801-4.641,2-7.039,3.679c-0.082,0-0.082,0.082-0.16,0.161
		c-0.321,0.16-0.723,0.48-1.043,0.722c-1.918,1.519-3.918,3.278-5.598,5.438c-1.442,1.679-2.641,3.679-3.68,5.762
		c-0.32,0.48-0.562,0.961-0.641,1.438c-1.519,3.442-2.402,7.363-2.402,11.602v0.242c0,2.879,0.165,5.758,0.402,8.477
		c0.161,2.883,0.481,5.68,0.962,8.242c0.957,6.558,2.48,12.558,4.16,17.68c1.199,3.758,2.476,7.121,3.758,10
		c0.801,1.839,1.519,3.437,2.082,4.878c0.801,1.602,1.359,2.801,1.758,3.602c0.242,0.481,0.48,0.957,0.961,1.278
		c0.082,0.164,0.16,0.242,0.398,0.402v0.078c2,2,5.519,2.801,8.16,3.122c1.524,0.16,2.723,0.16,3.282,0.16c0.242,0,0.32,0,0.32,0
		s0.16,0,0.398,0c0.562,0,1.762,0,3.282-0.16c2.641-0.321,6.16-1.122,8.16-3.122l0.481-0.48c0.398-0.321,0.64-0.797,0.878-1.278
		c0.402-0.801,1.039-2,1.762-3.602c0.641-1.442,1.36-3.039,2.078-4.878c1.282-2.801,2.481-6.078,3.602-9.68
		c0.078-0.082,0.078-0.082,0.078-0.16c1.602-5.199,3.203-11.199,4.242-17.84C281.32,266.599,281.718,263.802,281.883,260.919z
		 M255.883,250.2c-1.043,5.359-5.282,9.039-9.364,8.16c-2.05-0.394-3.664-1.813-4.656-3.786c-0.05-0.098-0.074-0.21-0.121-0.308
		c-0.91-1.977-1.242-4.446-0.742-7.027c1.039-5.278,5.282-8.962,9.359-8.161C254.519,239.962,257,244.919,255.883,250.2z"/>
</g>
</svg>
