<?xml version="1.0" encoding="utf-8"?>
<!-- Generator: Adobe Illustrator 19.1.1, SVG Export Plug-In . SVG Version: 6.00 Build 0)  -->
<svg version="1.1" id="_x31_0" xmlns="http://www.w3.org/2000/svg" xmlns:xlink="http://www.w3.org/1999/xlink" x="0px" y="0px"
	 viewBox="0 0 512 512" style="enable-background:new 0 0 512 512;" xml:space="preserve">
<style type="text/css">
	.st0{fill:#374149;}
</style>
<g>
	<path class="st0" d="M237.278,322.424c-0.035,0.102-0.086,0.254-0.118,0.356l-0.039-0.402
		c-3.297,10.453-13.332,39.086-31.367,62.035c-6.035,7.648-15.297,12.07-24.843,12.07c-2.524,0-5.122-0.351-7.715-1.05
		l-47.722-33.687l9.054-17.543l-19.222-10.742l-4.61-2.621l16.52-17.188l2.449-2.511l-0.019-0.012l0.113-0.117l-17.328-12.274
		l-3.351-2.414l17.238-16.262c31.859-0.211,70.034-3.859,94.386-8.558c2.453-0.422,4.77-0.914,6.879-1.406
		c-0.074-0.141-0.074-0.351-0.074-0.562c-0.066-0.211-0.066-0.352-0.141-0.562c-1.222-5.406-2.019-11.531-2.262-18.129
		c-0.004-0.524-0.086-1.051-0.082-1.574c-0.007,0.004-0.019,0.008-0.019,0.008c-0.012-0.055-0.02-0.106-0.02-0.161
		c-1.613,0.422-3.37,0.77-5.335,1.192c-20.559,4.21-58.668,8.492-93.332,8.699h-2.879c-15.508,0-30.176-0.84-42.106-2.875
		l-2.598-3.226l-15.078-13.219l-3.07-2.73l17.199-12.668l7.758-5.625l-0.07-0.035l0.144-0.11l-18.546-9.558l-8.614-4.523
		l21.469-14.578l3.043-2.039l-0.016-0.015l0.133-0.09l-13.511-14.738l-7.363-8.157l27.308-3.953l3.942-0.551l-0.008-0.019
		l0.161-0.023l-5.57-18.879l-2.286-7.988l14.821,2.422c17.738,2.898,35.148,7.77,51.484,15.262c0.098,0.043,0.191,0.086,0.289,0.129
		c49.794,23.063,73.578,56.465,81.012,68.59c0.598,1,1.129,1.918,1.539,2.672c0.008-0.012,0.023-0.02,0.035-0.032
		c0.023,0.039,0.058,0.102,0.082,0.141c0.77-0.84,1.61-1.683,2.594-2.457c-0.297-0.394-0.559-0.793-0.813-1.187
		c-2.977-4.707-3.074-10.684-0.309-15.516l4.985-8.699c-13.754-17.824-39.09-43.578-80.286-62.602
		C96.699,102.307,34.527,97.185,31.859,96.971L9.278,95.216l-8.844-0.754l0.019,0.066l-0.171-0.012l5.683,17.262L0,114.025
		l2.106,16.492c0.914,7.367,1.754,14.528,2.594,21.473c6.035,50.95,11.23,95.016,43.793,115.09c1.734,1.07,3.79,2.02,5.821,2.962
		c0.718,0.367,1.398,0.785,2.129,1.148l-7.531,6.203l7.019,14.879l2.875,6.106c-2.176,5.406-4.558,12.562-5.89,20
		c-6.668,36.702,9.894,65.683,112.98,96.984c4.91,1.473,9.965,2.176,15.016,2.176c16.004,0,31.511-7.512,41.476-20.215
		c7.508-9.542,13.684-19.93,18.734-29.679l-2.078-23.512L237.278,322.424z"/>
	<path class="st0" d="M510.114,99.392l1.617-4.718l-0.066,0.007l0.054-0.164l-31.578,2.454c-2.668,0.214-64.84,5.336-129.332,35.156
		c-41.195,19.023-66.531,44.778-80.286,62.602l4.985,8.699c2.766,4.832,2.668,10.809-0.309,15.516
		c-0.254,0.394-0.516,0.793-0.813,1.187c0.871,0.683,1.602,1.434,2.297,2.176c0.047,0.066,0.118,0.133,0.157,0.203
		c0.008-0.012,0.015-0.028,0.023-0.035c0.035,0.038,0.082,0.074,0.118,0.113c4.984-8.774,28.422-46.246,82.668-71.371
		c0.098-0.042,0.191-0.086,0.289-0.129c16.336-7.492,33.746-12.363,51.484-15.262l10.551-1.722l4.324-0.641l-6.855,23.226
		l-1.031,3.422l0.023,0.003l-0.047,0.157l20.258,2.934l11.179,1.707l-18.082,19.71l-2.738,2.957l0.019,0.012l-0.109,0.122
		l16.742,11.366l7.883,5.446l-18.742,9.656l-8.316,4.211l0.062,0.047l-0.157,0.078L447,233.705l4.414,3.293l-18.149,15.906
		l-2.598,3.226c-11.93,2.035-26.598,2.875-42.106,2.875h-2.879c-34.664-0.207-72.773-4.489-93.332-8.699
		c-1.691-0.363-3.168-0.68-4.594-1.027c-0.172-0.063-0.422-0.09-0.582-0.161c0,0.012,0,0.02,0,0.031
		c-0.047-0.011-0.11-0.023-0.16-0.035c-0.141,7.227-1.051,13.754-2.383,19.649c0,0.141-0.074,0.207-0.074,0.351
		c0,0.348-0.066,0.699-0.207,0.981h0.066c2.11,0.492,4.426,0.984,6.879,1.406c24.352,4.699,62.527,8.347,94.386,8.558l14.586,13.871
		l2.586,2.496l-17.773,12.574l-2.723,1.894l0.016,0.019l-0.129,0.094l15.293,15.969l3.691,3.91l-23.758,13.313l9.054,17.543
		l-47.722,33.687c-2.594,0.699-5.191,1.05-7.715,1.05c-9.546,0-18.808-4.422-24.843-12.07
		c-14.223-18.098-23.398-39.594-28.294-53.059c-1.238-3.531-2.262-6.675-2.918-8.961l-0.031,0.367
		c-0.035-0.11-0.094-0.278-0.125-0.382l-4,45.266c5.05,9.75,11.226,20.137,18.734,29.679c9.965,12.703,25.472,20.215,41.476,20.215
		c5.051,0,10.106-0.703,15.016-2.176c103.086-31.301,119.648-60.282,112.98-96.984c-1.332-7.438-3.714-14.594-5.89-20l2.879-6.106
		l7.015-14.879l-5.218-4.301l-2.289-1.977c2.914-1.191,5.562-2.574,7.926-4.035c32.562-20.074,37.758-64.14,43.793-115.09
		c0.84-6.945,1.68-14.106,2.594-21.473L512,114.025l-5.965-2.246L510.114,99.392z"/>
	<path class="st0" d="M124.77,181.678c0,5.472,4.426,9.89,9.898,9.89c5.402,0,9.82-4.418,9.82-9.89c0-5.41-4.418-9.829-9.82-9.829
		C129.195,171.849,124.77,176.268,124.77,181.678z"/>
	<path class="st0" d="M145.191,306.94c0,5.473,4.422,9.894,9.898,9.894c5.402,0,9.825-4.422,9.825-9.894s-4.422-9.898-9.825-9.898
		C149.614,297.041,145.191,301.467,145.191,306.94z"/>
	<path class="st0" d="M387.226,181.689c0-5.453-4.422-9.875-9.875-9.875c-5.457,0-9.878,4.422-9.878,9.875
		c0,5.457,4.422,9.879,9.878,9.879C382.805,191.568,387.226,187.146,387.226,181.689z"/>
	<path class="st0" d="M366.809,306.94c0-5.473-4.422-9.898-9.898-9.898c-5.469,0-9.891,4.426-9.891,9.898s4.422,9.894,9.891,9.894
		C362.386,316.834,366.809,312.412,366.809,306.94z"/>
	<path class="st0" d="M225.191,110.377l-0.347-0.282c-0.352-0.348-0.703-0.629-1.055-0.984c-0.699-0.489-1.402-1.118-2.035-1.398
		c-2.523-1.406-4.422-1.758-4.422-1.758c-0.278-0.07-0.633-0.07-0.981,0c-1.824,0.211-3.086,1.825-2.878,3.649
		c0,0,0.21,1.898,1.473,4.492c0.214,0.633,0.562,1.332,0.843,2.035c0.211,0.351,0.352,0.703,0.562,1.05l0.141,0.215
		c0,0.207,0.141,0.141,0.77-0.215c0.59-0.37,0.813-0.422,0.926-0.382c0.028,0.008,0.059,0.019,0.082,0.027
		c0.066,0.082,0.062,0.215,0.187,0.215c1.192,1.336,2.734,2.808,4.07,4.633c5.402,7.301,10.594,18.457,14.383,30.179
		c3.789,11.645,6.246,23.786,7.438,32.981c0.214,1.679,0.355,3.226,0.496,4.699c1.332-1.543,2.945-2.664,4.77-3.508
		c-0.07-0.633-0.141-1.266-0.211-1.894c-0.699-4.633-1.473-10.106-2.664-15.93c-1.125-5.824-2.809-11.93-4.633-18.035
		c-1.894-6.035-4.141-12-6.598-17.477c-2.458-5.469-5.262-10.312-7.649-14.523c-1.262-2.176-2.386-4.07-3.367-5.824
		c0-0.352-0.774-0.07,0.278-1.192C225.266,110.588,225.332,110.377,225.191,110.377z"/>
	<path class="st0" d="M289.473,121.674c1.336-1.825,2.809-3.297,4.07-4.633c0.281,0-0.141-0.703,1.195,0.14
		c0.629,0.356,0.77,0.422,0.77,0.215l0.141-0.215c0.21-0.347,0.351-0.699,0.562-1.05c0.281-0.703,0.562-1.402,0.843-2.035
		c1.262-2.594,1.473-4.492,1.473-4.492v-0.981c-0.351-1.824-2.106-3.019-3.859-2.668c0,0-1.898,0.352-4.422,1.758
		c-0.633,0.281-1.336,0.91-2.035,1.398c-0.352,0.355-0.703,0.636-1.122,0.984l-0.281,0.282c-0.141,0-0.07,0.21,0.347,0.773
		c0.489,0.516,0.582,0.723,0.559,0.844c0,0.019-0.008,0.043-0.008,0.062c-0.058,0.09-0.199,0.125-0.199,0.286
		c-0.981,1.754-2.106,3.648-3.367,5.824c-2.387,4.211-5.191,9.054-7.649,14.523c-2.457,5.477-4.703,11.442-6.598,17.477
		c-1.824,6.106-3.508,12.211-4.633,18.035c-1.191,5.824-1.965,11.297-2.664,15.93c-0.07,0.629-0.141,1.262-0.211,1.894
		c1.754,0.844,3.367,2.035,4.77,3.508c0.008-0.062,0.016-0.133,0.02-0.195c0.031,0.031,0.066,0.054,0.098,0.086l-0.09-0.141
		c0.134-1.402,0.266-2.859,0.469-4.449c1.192-9.195,3.649-21.336,7.438-32.981C278.879,140.131,284.07,128.975,289.473,121.674z"/>
	<path class="st0" d="M268.141,303.006c-3.09,1.546-6.527,2.175-9.195,2.316c-1.051,0.141-1.895,0.141-2.664,0.141h-0.63
		c-0.702,0-1.617,0-2.598-0.141c-2.461-0.129-5.617-0.762-8.515-2.113c-0.195-0.106-0.398-0.168-0.59-0.286l0.007,0.074
		c-0.054-0.027-0.113-0.031-0.164-0.058l0.418,4.558l0.699,7.863l3.371,37.262l3.297,36.844c0.281,3.226,2.316,4.84,4.422,4.84
		c2.035,0,4.141-1.614,4.422-4.84l3.297-36.914l3.298-37.125l0.702-7.859l0.266-2.894l0.227-1.524
		c-0.028,0.016-0.059,0.024-0.086,0.035L268.141,303.006z"/>
	<path class="st0" d="M253.543,212.693c0.843-0.07,1.687-0.141,2.457-0.141c0.77,0,1.614,0.07,2.457,0.141
		c2.805,0.352,5.825,1.262,8.774,2.734c1.961-1.965,2.594-5.05,0.977-7.789l-2.79-4.867l-0.214-0.402
		c0.977-0.426,1.672-1.473,1.672-2.73c0-0.562-0.141-1.122-0.489-1.614c-0.492-0.984-1.542-1.683-2.808-1.683
		c-0.215,0-0.391,0.144-0.59,0.187c-0.117,0.008-0.218,0.019-0.351,0.019c-0.222,0-0.512-0.042-0.824-0.102l-0.059-0.105
		c-0.14-0.211-0.281-0.422-0.492-0.629c0,0,0.074-0.074-0.07-0.074c-1.191-1.68-3.226-2.598-5.191-2.598
		c-1.512,0-2.906,0.675-4.074,1.683c-0.426,0.317-0.914,0.566-1.262,0.965l-0.106,0.29c-0.129,0.125-0.262,0.258-0.312,0.363
		l-0.282,0.492c-0.422-0.352-0.984-0.492-1.543-0.492c-1.266,0-2.316,0.699-2.808,1.683c-0.348,0.492-0.489,1.051-0.489,1.614
		c0,1.191,0.629,2.246,1.614,2.738l-3.02,5.262c-1.542,2.738-0.91,5.894,0.985,7.863
		C247.718,214.025,250.738,213.045,253.543,212.693z"/>
	<path class="st0" d="M276.285,267.908c1.043-4.719,1.922-9.922,2.242-15.602v-0.078c0.078-1.758,0.16-3.602,0.16-5.442
		c0-7.438-3.121-13.359-7.281-17.758v-0.082c-1.359-1.437-2.801-2.64-4.321-3.679c-2.32-1.68-4.636-2.797-6.801-3.52
		c-1.117-0.398-2.238-0.64-3.199-0.718c-0.398-0.082-0.718-0.082-1.117-0.082c-0.32,0-0.641,0-1.043,0.082
		c-0.957,0.078-2.078,0.32-3.199,0.718c-2.16,0.723-4.48,1.84-6.801,3.52c-1.519,1.039-2.957,2.242-4.32,3.679l-0.078,0.082
		c-4.078,4.398-7.199,10.32-7.199,17.758c0,1.84,0.078,3.684,0.16,5.442v0.078c0.321,5.679,1.199,10.882,2.238,15.602
		c0.242,1.281,0.558,2.48,0.879,3.679c1.523,5.442,3.203,10.16,4.722,13.762c0.641,1.598,1.278,2.958,1.84,4.161
		c0.641,1.437,1.117,2.476,1.438,3.199c0.242,0.398,0.48,0.718,0.801,1.038c1.762,2.238,5.442,2.962,8,3.199
		c0.961,0.082,1.84,0.082,2.242,0.082c0.238,0,0.32,0,0.32,0s0.16,0,0.316,0c0.402,0,1.282,0,2.321-0.082
		c2.48-0.238,6.242-0.961,8.082-3.199c0.238-0.32,0.481-0.64,0.719-1.038c0.32-0.723,0.801-1.762,1.442-3.199
		c0.558-1.203,1.199-2.563,1.839-4.161c1.52-3.602,3.199-8.32,4.719-13.762C275.726,270.388,275.969,269.189,276.285,267.908z
		 M256.687,244.869c-1.121,4.16-4.718,6.558-8,5.438c-3.281-1.199-5.121-5.52-4-9.758c1.122-4.16,4.719-6.562,8.078-5.359
		C256.047,236.388,257.809,240.709,256.687,244.869z"/>
	<path class="st0" d="M237.121,285.322h-0.347c0.137,0.352,0.277,0.703,0.418,0.985L237.121,285.322z"/>
</g>
</svg>
