<?xml version="1.0" encoding="utf-8"?>
<!-- Generator: Adobe Illustrator 19.1.1, SVG Export Plug-In . SVG Version: 6.00 Build 0)  -->
<svg version="1.1" id="_x31_0" xmlns="http://www.w3.org/2000/svg" xmlns:xlink="http://www.w3.org/1999/xlink" x="0px" y="0px"
	 viewBox="0 0 512 512" style="enable-background:new 0 0 512 512;" xml:space="preserve">
<style type="text/css">
	.st0{fill:#374149;}
</style>
<g>
	<path class="st0" d="M451.852,60.228C425.773,34.15,364.758-9.826,314.363,2.377c-0.262,0.062-0.516,0.137-0.778,0.203
		c-1.75,0.445-3.523,0.781-5.246,1.367c-7.485,2.5-14.325,6.714-20.028,12.25l-65.641,57.125c-8.16,7.09-16.25,14.238-24.285,21.454
		L169.601,84.67c-9.664-3.41-20.609-0.946-27.843,6.293c-2.758,2.754-4.914,6.215-6.242,9.992
		c-1.598,4.504-1.332,9.364,0.742,13.688c2.07,4.309,5.683,7.543,10.152,9.102l10.367,3.656l4.488,1.657
		c-5.766,5.472-11.48,10.953-17.121,16.437l-0.543,0.551c-24.882,25.535-49.144,51.902-72.11,78.383l-55.054,63.371
		c-5.649,5.836-9.848,12.546-12.519,20.07c-17.414,51.64,27.175,114.675,56.27,143.778c23.004,23.003,73.21,60.07,119.34,60.07
		c8.23,0,16.343-1.18,24.137-3.833c7.476-2.492,14.316-6.706,20.027-12.246l65.672-57.09c27.519-23.934,53.938-48.218,78.535-72.172
		l0.558-0.562c3.375-3.48,6.723-6.984,10.074-10.488c1.492-1.508,2.922-3.02,4.45-4.527l5.191,14.71
		c1.594,4.504,4.836,8.118,9.129,10.172c4.301,2.062,9.16,2.313,13.656,0.723c3.805-1.34,7.258-3.504,10-6.246
		c7.234-7.234,9.703-18.164,6.294-27.844l-10.028-28.594c7.898-8.722,15.688-17.477,23.321-26.266l55.023-63.422
		c5.754-5.953,9.961-12.683,12.512-20.066C525.5,152.319,480.93,89.311,451.852,60.228z M479.082,193.951
		c-1.215,3.484-3.325,6.566-5.918,9.16l-51.043,58.746l-4.742,5.473c-11.07,12.773-22.379,25.382-33.813,37.867
		c-2.031,2.187-4.054,4.374-6.082,6.566c-10.175,10.988-20.515,21.89-31.015,32.637c-25.016,24.367-50.797,48.042-77.23,70.988
		l-7.462,6.489l-58.703,51.082c-2.598,2.594-5.679,4.703-9.206,5.879c-31.539,10.703-82.501-19.418-111.977-48.891
		c-29.512-29.519-59.598-80.438-48.934-112.019c1.215-3.485,3.325-6.566,5.922-9.164l51.039-58.746l4.746-5.473
		c22.864-26.351,46.539-52.058,70.906-77.07c11.434-11.11,22.989-22.098,34.703-32.922c2.11-1.946,4.258-3.93,6.406-5.84
		c11.879-10.902,23.922-21.649,36.125-32.226l7.458-6.489l43.098-37.5l0.16-0.16l4.95-4.301l10.5-9.121
		c2.594-2.594,5.675-4.703,9.203-5.879c31.542-10.703,82.504,19.422,111.977,48.894
		C459.664,111.443,489.746,162.365,479.082,193.951z"/>
	<path class="st0" d="M190.101,441.092c-21.488-4.946-51.734-22.703-74.152-45.121c-22.707-22.703-40.344-52.582-45.207-74.07
		c-1.094-5.153-7.5-6.93-10.906-2.962l-9.203,10.582l-0.973,0.973c-0.038,0.043-0.038,0.043-0.038,0.043
		c-5.922,17.996,14.351,59.187,43.461,88.297c28.66,28.668,70.785,49.382,88.218,43.465c0,0,0.165-0.086,0.528-0.45l0.566-0.562
		l10.542-9.168C196.91,448.717,195.206,442.307,190.101,441.092z"/>
	<path class="st0" d="M394.473,244.908c-7.95-16.375-18.328-32.594-30.653-48.078l-3,0.891l-2.874,0.851l-55.75,16.414
		c-1.539,0.41-3.118-0.442-3.566-1.942c-0.446-1.418,0.285-2.882,1.582-3.446l49.258-20.965l2.758-1.214l2.016-0.848l0.66-0.218
		c-0.012-0.016-0.027-0.027-0.039-0.039l0.16-0.066c-4.5-5.153-9.242-10.219-14.148-15.125c-4.137-4.133-8.395-8.149-12.731-12
		l-3.202,1.015l-3.122,1.012l-22.378,7.054c-1.543,0.488-3.122-0.363-3.61-1.906c-0.485-1.378,0.242-2.836,1.582-3.445l17.27-7.786
		l2.84-1.297l1.938-0.863l0.879-0.313c-0.02-0.019-0.043-0.031-0.063-0.05l0.165-0.074c-17.066-14.226-35.153-26.145-53.395-34.984
		c-0.445-0.286-0.894-0.485-1.336-0.692l-4.785-2.106l-2.801,4.422l-29.473,52.254l-2.106,3.813l110.234,110.23l3.766-2.144
		l52.262-29.473l4.34-2.477l-1.867-4.617C395.078,246.088,394.836,245.518,394.473,244.908z"/>
	<polygon class="st0" points="143.812,241.987 145.957,240.037 145.953,240.033 146.07,239.924 134.117,227.971 133.66,227.502 
		133.656,227.51 133.542,227.397 78.281,286.955 96.366,285.331 	"/>
	<polygon class="st0" points="223.965,144.896 224.074,144.647 204.734,156.201 146.03,214.908 158.558,227.435 211.179,174.815 
		218.273,158.213 224.156,144.783 	"/>
	<polygon class="st0" points="272.621,366.475 272.113,365.955 272.105,365.959 271.992,365.846 226.586,415.549 224.965,433.635 
		282.266,380.471 284.406,378.487 284.402,378.483 284.519,378.377 	"/>
	<polygon class="st0" points="367.129,288.076 367.27,287.846 337.105,300.736 284.707,353.135 284.594,353.248 284.594,353.248 
		284.48,353.362 297.008,365.889 355.714,307.182 362.082,296.522 367.332,287.991 	"/>
	<path class="st0" d="M415.309,96.767c-8.801-8.797-19.035-16.621-29.278-22.89c-1.973-1.242-3.946-2.52-5.918-3.649
		c0.007,0.039,0,0.082,0.007,0.122c-0.054-0.028-0.109-0.066-0.164-0.094c0.527,3.122,0.242,6.406-0.812,9.57
		c-0.528,1.496-1.215,2.914-2.028,4.215l50.762,50.758c1.297-0.812,2.714-1.5,4.254-1.984c3.074-1.078,6.282-1.293,9.266-0.805
		c0.118,0.047,0.258,0.054,0.367,0.11c-0.015-0.031-0.039-0.062-0.054-0.09c0.062,0.012,0.133-0.004,0.195,0.012
		C435.215,120.002,425.93,107.392,415.309,96.767z"/>
	<path class="st0" d="M435.824,143.635c-3.082,1.055-5.27,3.73-5.714,7.016l-8.922,68.195c-0.324,2.672,0.57,5.266,2.434,7.129
		c3.367,3.367,8.798,3.367,12.122,0.043l15.73-15.73c14.027-14.027,15.367-36.367,3.121-51.934l-9.285-11.879
		c-0.199-0.285-0.485-0.57-0.726-0.813C442.27,143.354,438.906,142.58,435.824,143.635z"/>
	<path class="st0" d="M293.074,90.728l68.234-8.878c3.242-0.402,5.961-2.637,6.972-5.754c1.055-3.086,0.286-6.445-2.027-8.762
		c-0.242-0.242-0.488-0.484-0.812-0.726l-11.879-9.286c-15.566-12.246-37.906-10.906-51.934,3.126l-15.73,15.726
		c-3.325,3.324-3.321,8.758,0.042,12.125C287.805,90.158,290.398,91.053,293.074,90.728z"/>
</g>
</svg>
