<svg version="1.1" id="_x31_0" xmlns="http://www.w3.org/2000/svg" xmlns:xlink="http://www.w3.org/1999/xlink" x="0px" y="0px"
 viewBox="0 0 512 512" xml:space="preserve">
<g>
	<path class="st0" d="M164.648,335.073c0,50.336,41.015,91.352,91.352,91.352c50.406,0,91.351-41.016,91.351-91.352
		c0-50.406-40.945-91.356-91.351-91.356C205.663,243.717,164.648,284.666,164.648,335.073z M256,257.834
		c42.566,0,77.234,34.598,77.234,77.238c0,42.566-34.668,77.234-77.234,77.234c-42.57,0-77.235-34.668-77.235-77.234
		C178.765,292.432,213.43,257.834,256,257.834z"></path>
	<path class="st0" d="M246.891,373.971v3.035c0,4.59,3.812,8.402,8.402,8.402h1.414c4.586,0,8.398-3.813,8.398-8.402v-3.035
		c18.074-4.164,31.555-20.332,31.555-39.68c0-22.446-18.211-40.66-40.66-40.66c-4.973,0-9.738,0.942-14.141,2.586
		c-0.95,0.317-1.906,0.629-2.821,1.004c0.051,0.016,0.094,0.051,0.145,0.07c-0.066,0.027-0.137,0.047-0.199,0.078
		c1.625,0.566,3.106,1.484,4.45,2.687c6.988,6.137,6.988,17.504,0,25.485c-6.989,7.902-18.286,9.316-25.274,3.172
		c-0.637-0.57-1.168-1.184-1.668-1.836c-0.066-0.137-0.18-0.246-0.227-0.391c-0.007,0.043-0.003,0.082-0.011,0.126
		c-0.043-0.055-0.102-0.098-0.141-0.157c-0.496,2.543-0.782,5.157-0.782,7.836C215.331,353.639,228.82,369.807,246.891,373.971z"></path>
	<path class="st0" d="M511.844,391.194l-1.27-47.086l-0.355-13.133l-0.422-17.649c-0.351-15.18-9.812-28.379-24.074-33.676
		c-1.622-0.562-3.387-1.199-5.294-1.906c-24.074-8.683-68.906-24.847-103.922-69.679c-14.894-19.063-26.473-41.653-34.52-67.138
		c-1.414-4.519-2.828-8.824-4.238-12.918c-12.539-36.172-26.027-58.969-38.726-73.238c-0.16-0.184-0.324-0.355-0.484-0.535
		c-2.078-2.301-4.13-4.383-6.153-6.246c-0.598-0.558-1.199-1.102-1.801-1.633c-1.578-1.371-3.133-2.598-4.664-3.73
		c-0.656-0.492-1.293-1.102-1.953-1.562c0.011,0.051,0.003,0.106,0.011,0.16c-0.054-0.039-0.113-0.086-0.168-0.121
		c0.07,0.281,0.07,0.633,0.07,0.914l0.848,28.524c10.023,11.718,21.606,31.344,33.043,64.313c1.339,3.953,2.679,8.05,4.023,12.355
		c9.531,30.359,22.942,54.504,38.05,73.918c41.653,53.371,96.364,70.172,118.536,78.434c6,2.187,10.094,7.836,10.234,14.332
		l0.496,17.649l0.281,13.133l0.618,22.894l0.481,23.406c-0.462,0.094-0.926,0.16-1.344,0.469c-0.793,0.574-1.66,1.086-2.598,1.511
		c-30.711,14.422-131.352,57.825-230.626,57.825c-99.2,0-199.841-43.402-230.551-57.825c-0.938-0.426-1.731-0.937-2.524-1.511
		c-0.457-0.321-0.976-0.516-1.492-0.641l1.176-46.129l0.351-13.133l0.492-17.649c0.141-6.496,4.238-12.145,10.238-14.332
		c22.238-8.262,76.883-25.062,118.602-78.434c15.039-19.414,28.453-43.559,37.984-73.918c1.34-4.305,2.684-8.402,4.094-12.355
		c11.438-33.035,23.016-52.665,33.039-64.387l0.848-28.516c0-0.285,0-0.636,0.07-0.922c-16.59,11.297-36.286,35.723-54.008,86.906
		c-1.41,4.168-2.824,8.473-4.234,12.922c-7.981,25.484-19.558,48.074-34.52,67.207c-34.949,44.832-79.781,60.996-103.922,69.679
		c-1.906,0.707-3.672,1.344-5.297,1.906c-14.258,5.297-23.719,18.496-24.074,33.676l-0.492,17.649l-0.286,13.133l-1.27,47.16
		l-0.141,6.492c-0.351,14.688,7.981,28.168,21.25,34.313c29.23,13.766,132.794,58.664,234.739,58.664
		c102.012,0,205.508-44.898,234.805-58.664c13.274-6.215,21.602-19.699,21.18-34.313L511.844,391.194z"></path>
	<path class="st0" d="M90.163,329.565c-2.683,0-4.797,2.187-4.797,4.801c0,2.683,2.114,4.801,4.797,4.801h56.199
		c2.61,0,4.797-2.118,4.797-4.801c0-2.614-2.187-4.801-4.797-4.801H90.163z"></path>
	<path class="st0" d="M421.902,339.166c2.614,0,4.805-2.118,4.805-4.801c0-2.614-2.191-4.801-4.805-4.801h-56.195
		c-2.68,0-4.801,2.187-4.801,4.801c0,2.683,2.121,4.801,4.801,4.801H421.902z"></path>
	<path class="st0" d="M250.988,223.526h10.023c6.07,0,11.79-2.61,15.742-7.203c3.953-4.586,5.718-10.656,4.801-16.656v-0.426
		l-4.094-136.254l-0.637-20.824c0-1.906-0.282-3.813-0.778-5.578c-2.398-8.824-10.445-15.32-20.046-15.32
		c-9.532,0-17.649,6.496-19.981,15.32c-0.492,1.696-0.778,3.528-0.778,5.434l-0.375,12.489l-0.363,8.363
		c0.039-0.035,0.074-0.062,0.114-0.09l-0.008,0.206l-4.094,136.254c-0.992,6.426,0.774,12.496,4.726,17.082
		C239.199,220.916,244.918,223.526,250.988,223.526z M264.398,117.134c0,3.106-2.118,5.719-4.661,5.719h-7.41
		c-2.614,0-4.73-2.614-4.73-5.719V88.263c0-3.11,2.117-5.718,4.73-5.718h7.41c2.543,0,4.661,2.609,4.661,5.718V117.134z"></path>
</g>
</svg>
