<svg version="1.1" id="_x31_0" xmlns="http://www.w3.org/2000/svg" xmlns:xlink="http://www.w3.org/1999/xlink" x="0px" y="0px"
 viewBox="0 0 512 512" style="enable-background:new 0 0 512 512;" xml:space="preserve">
<g>
	<path class="st0" d="M255.966,88.641c-78.368,0-195.307,39.738-211.042,114.343C36.674,242.198,60.412,325.13,98.97,391.798
		C143.828,469.308,199.583,512,255.966,512c56.297,0,111.97-42.527,156.766-119.758c38.752-66.702,62.626-149.835,54.346-189.258
		C451.345,128.378,334.366,88.641,255.966,88.641z M256.038,479.176c-31.189,0-59.99-11.468-85.525-29.475
		c-22.93-22.031-40.838-48.831-52.474-68.941C79.438,314.022,60.214,237.3,66.482,207.531
		c9.072-43.037,70.156-77.611,134.363-90.936l1.552,7.831c0.986,4.97,5.361,8.244,10.306,8.312c0.04,0,0.072,0.018,0.111,0.018
		c0.029,0,0.062-0.004,0.09-0.004c0.391-0.003,0.754,0.126,1.151,0.079c14.329-1.635,28.41-2.489,41.943-2.489
		c13.533,0,27.614,0.854,41.946,2.489c0.394,0.046,0.76-0.082,1.147-0.079c0.033,0,0.065,0.004,0.094,0.004
		c0.039,0,0.072-0.018,0.111-0.018c4.945-0.068,9.319-3.342,10.302-8.312l1.553-7.824c64.218,13.332,125.298,47.899,134.37,90.914
		c6.29,29.955-13.042,106.885-51.84,173.666l-0.003,0.007c-11.604,20.002-29.454,46.651-52.306,68.582
		C315.866,467.737,287.119,479.176,256.038,479.176z" style="fill:#404040;"></path>
	<path class="st0" d="M256.002,287.846c-13.159,0-23.827,10.671-23.827,23.824c0,13.159,10.668,23.824,23.827,23.824
		c13.157,0,23.824-10.665,23.824-23.824C279.826,298.517,269.158,287.846,256.002,287.846z" style="fill:#404040;"></path>
	<path class="st0" d="M405.511,249.743c0.315-2.206,0.438-4.482,0.67-6.72c0.046-0.442,0.09-0.882,0.13-1.313
		c0.201-2.094,0.516-4.145,0.623-6.268c0.144-2.424,0.076-4.926,0.111-7.386c-0.222-2.582-0.182-5.013-0.688-7.717
		c-1.463-10.764-7.158-20.733-14.401-28.041c-7.236-7.451-15.778-12.902-24.487-17.334c-1.653-0.842-3.363-1.478-5.038-2.248
		c-0.907-0.416-1.828-0.825-2.754-1.23c-6.311-2.739-12.704-5.189-19.198-7.15c-9.172-2.804-18.478-4.92-27.807-6.698
		c-18.693-3.493-37.565-5.4-56.674-5.422c-19.109,0.022-37.981,1.929-56.67,5.422c-9.334,1.778-18.635,3.894-27.808,6.698
		c-6.498,1.961-12.894,4.41-19.206,7.157c-0.922,0.398-1.836,0.803-2.736,1.219c-1.678,0.771-3.395,1.406-5.052,2.252
		c-8.706,4.432-17.251,9.882-24.487,17.334c-7.24,7.308-12.938,17.277-14.401,28.041c-0.506,2.704-0.462,5.135-0.685,7.717
		c0.036,2.46-0.036,4.962,0.107,7.386c0.108,2.109,0.423,4.142,0.621,6.218c0.043,0.458,0.09,0.928,0.14,1.394
		c0.233,2.227,0.351,4.493,0.663,6.688c1.338,9.402,3.395,18.538,5.798,27.574c2.388,9.036,5.188,17.936,8.366,26.7
		c3.105,8.792,6.655,17.426,10.463,25.961c7.698,17.026,16.581,33.649,27.482,49.262c2.621,3.951,5.647,7.688,8.494,11.525
		c3.094,3.686,6.024,7.487,9.384,11.008c1.527,1.707,3.234,3.292,4.844,4.945c0.312,0.319,0.621,0.635,0.936,0.95
		c2.83,2.862,5.795,5.601,8.886,8.254c0.962,0.825,1.93,1.635,2.898,2.424c1.384,1.122,2.654,2.349,4.095,3.421
		c15.645,12.192,36.073,21.078,57.867,21.328c21.794-0.25,42.222-9.136,57.871-21.328c1.441-1.076,2.714-2.302,4.106-3.431
		c0.954-0.775,1.904-1.571,2.854-2.385c3.119-2.678,6.11-5.443,8.964-8.33c0.28-0.28,0.556-0.563,0.832-0.846
		c1.628-1.671,3.353-3.278,4.898-5.002c3.363-3.521,6.293-7.322,9.384-11.008c2.85-3.837,5.877-7.574,8.498-11.525
		c10.901-15.613,19.782-32.236,27.482-49.262c3.804-8.534,7.354-17.169,10.459-25.961c3.177-8.764,5.982-17.664,8.366-26.7
		C402.115,268.282,404.178,259.145,405.511,249.743z M374.849,280.867c-1.994,7.416-4.274,14.824-6.913,22.017
		c-2.564,7.272-5.486,14.466-8.692,21.522c-6.34,14.034-13.68,27.79-22.73,40.684c-2.137,3.278-4.63,6.411-6.982,9.546
		c-2.564,3.069-4.988,6.203-7.766,9.122c-5.343,5.917-11.256,11.546-17.886,16.531c-12.966,10.047-29.851,17.383-47.881,17.598
		c-18.026-0.215-34.911-7.551-47.81-17.598c-6.698-4.985-12.611-10.614-17.954-16.531c-2.779-2.918-5.203-6.053-7.767-9.122
		c-2.352-3.134-4.848-6.268-6.985-9.546c-9.047-12.894-16.387-26.65-22.727-40.684c-3.137-7.057-6.128-14.25-8.695-21.522
		c-2.564-7.193-4.916-14.601-6.91-22.017c-1.994-7.48-3.633-15.031-4.773-22.798c-0.57-3.915-1.001-7.838-1.212-11.826
		c-0.072-1.994,0-4.131-0.072-6.132c0.212-2.137,0.144-4.13,0.57-6.411c1.212-8.907,5.913-17.097,11.898-23.157
		c5.985-6.197,13.042-10.686,20.238-14.322c7.265-3.701,14.748-6.483,22.371-8.836c7.552-2.28,15.247-4.058,22.942-5.486
		c15.462-2.919,31.067-4.49,46.884-4.49c15.82,0,31.422,1.57,46.888,4.49c7.691,1.427,15.386,3.206,22.942,5.486
		c7.623,2.353,15.103,5.135,22.372,8.836c7.196,3.636,14.25,8.125,20.238,14.322c5.985,6.06,10.686,14.25,11.898,23.157
		c0.427,2.281,0.355,4.274,0.57,6.411c-0.072,2.001,0,4.138-0.072,6.132c-0.215,3.987-0.642,7.91-1.212,11.826
		C378.554,265.836,376.843,273.387,374.849,280.867z M126.082,209.79c1.452-2.567,3.149-5.059,5.278-7.336
		c0.62-0.678,1.384-1.266,2.051-1.915c-2.295,2.32-4.231,4.877-6.035,7.509C126.946,208.625,126.515,209.18,126.082,209.79z
		 M378.625,200.639c-1.341-1.384-2.79-2.711-4.282-4.023c2.259,1.843,4.4,3.772,6.294,5.838c1.757,1.875,3.187,3.908,4.478,5.992
		c0.294,0.523,0.592,1.043,0.854,1.588C383.835,206.702,381.479,203.494,378.625,200.639z" style="fill:#404040;"></path>
	<path class="st0" d="M69.103,88.146l17.524,11.12c-3.467,2.478-6.372,5.45-8.624,8.789c-1.176,1.685-2.13,3.593-2.79,5.507
		c-0.735,1.614-1.176,3.227-1.542,4.992c-1.176,6.462-0.075,12.851,2.79,18.796c12.41-13.802,29.339-25.714,48.63-35.585
		c3.948-1.99,7.978-3.934,12.188-5.766c-0.039-0.018-0.086-0.029-0.126-0.046c0.061-0.029,0.122-0.061,0.186-0.09
		c-3.818-1.693-8.006-3.012-12.41-3.822c-7.282-1.37-14.3-1.147-20.801,0.129l-19.36-81.35L82.249,0.14l-0.018,0.007L82.195,0
		L57.539,9.631l-3.234,1.241l0.011,0.018l-0.137,0.054L91.03,76.682l9.115,16.33c-1.072,0.305-2.022,0.789-3.058,1.15
		c-0.706,0.244-1.402,0.51-2.066,0.775c-0.936,0.38-1.958,0.63-2.843,1.068c-0.872,0.402-1.642,0.962-2.474,1.442L45.753,48.419
		l-5.87-6.58l-0.014,0.014l-0.097-0.108L26.479,57.484l-2.008,2.342l0.018,0.01l-0.094,0.111L69.103,88.146z" style="fill:#404040;"></path>
	<polygon class="st0" points="295.066,225.388 295.066,225.238 218.01,225.238 217.082,225.238 217.082,225.238 216.934,225.238 
		216.934,233.463 295.066,233.463 295.066,225.414 295.066,225.388 	" style="fill:#404040;"></polygon>
	<polygon class="st0" points="286.011,241.625 286.011,241.474 226.85,241.474 226.136,241.474 226.136,241.474 225.989,241.474 
		225.989,249.481 225.989,249.556 225.989,249.556 225.989,249.7 286.011,249.7 286.011,241.65 286.011,241.625 	" style="fill:#404040;"></polygon>
	<path class="st0" d="M487.475,60.03l0.129-0.082l-13.558-16.05l-1.71-2.054l-0.014,0.014l-0.094-0.111L422.303,97.44
		c-0.85-0.494-1.638-1.062-2.524-1.506c-0.814-0.398-1.764-0.624-2.618-0.972c-1.639-0.678-3.374-1.341-5.318-2.005l40.15-71.622
		l5.774-10.255l-0.018-0.007l0.072-0.129l-24.57-9.596l-3.306-1.312l-0.004,0.022L429.802,0L407.87,92.162
		c-6.53-1.276-13.594-1.498-20.844-0.122c-3.338,0.617-6.486,1.599-9.506,2.736c-0.95,0.322-1.922,0.606-2.847,0.954
		c0.046,0.022,0.086,0.043,0.133,0.061c-0.062,0.029-0.13,0.047-0.19,0.072c24.38,10.865,45.898,24.821,60.879,41.487
		c2.937-5.873,4.038-12.334,2.79-18.796c-0.294-1.765-0.807-3.378-1.47-4.992c-0.735-1.914-1.689-3.822-2.865-5.507
		c-1.937-3.034-4.576-5.609-7.559-7.896c-0.373-0.309-0.663-0.631-1.054-0.94l54.87-34.602l7.283-4.572L487.475,60.03z" style="fill:#404040;"></path>
</g>
</svg>
