<svg version="1.1" id="_x31_0" xmlns="http://www.w3.org/2000/svg" xmlns:xlink="http://www.w3.org/1999/xlink" x="0px" y="0px"
 viewBox="0 0 512 512" style="enable-background:new 0 0 512 512;" xml:space="preserve">
<g>
	<path class="st0" d="M53.152,255.998c0,111.855,90.994,202.849,202.848,202.849c111.851,0,202.845-90.994,202.845-202.849
		c0-58.713-24.946-112.938-67.23-150.857c-7.806-7.038-16.142-13.588-25.11-19.444v0.115c-0.058-0.038-0.111-0.078-0.169-0.115
		v193.092c0,52.225-42.55,94.784-94.776,94.784H240.44c-52.311,0-94.78-42.559-94.78-94.784V154.048l0.094-68.212
		c-0.033,0.021-0.062,0.046-0.094,0.066v-0.206C88.052,122.954,53.152,186.366,53.152,255.998z" style="fill:#404040;"></path>
	<path class="st0" d="M240.44,356.753h31.118c42.974,0,77.957-34.986,77.957-77.964V76.026c-0.502-0.337-1.093-0.674-1.68-0.924
		C319.243,60.553,288.292,53.154,256,53.154c-32.378,0-63.242,7.399-91.835,21.949c-0.592,0.25-1.179,0.587-1.684,0.924v202.762
		C162.48,321.766,197.467,356.753,240.44,356.753z M247.84,300.068c-11.522,0-20.856-9.334-20.856-20.857v-21.447h58.019h0.008
		v21.447c0,11.523-9.416,20.857-20.938,20.857H247.84z M256,190.066c-18.249,0-33.052-14.8-33.052-33.049
		c0-18.253,14.803-33.052,33.052-33.052c18.25,0,33.049,14.799,33.049,33.052C289.048,175.266,274.249,190.066,256,190.066z
		 M235.731,76.026c-16.82,10.766-31.706,24.223-43.815,39.528c-1.934,2.439-5.889,1.006-5.889-2.102V79.475
		c0-1.346,0.842-2.607,2.102-3.194c23.718-9.589,48.862-14.549,74.852-14.635C253.56,65.6,244.477,70.478,235.731,76.026z
		 M194.691,146.168c5.971,0,10.85,4.874,10.85,10.849c0,5.971-4.878,10.763-10.85,10.763c-5.97,0-10.849-4.792-10.849-10.763
		C183.842,151.042,188.72,146.168,194.691,146.168z M317.308,167.78c-5.97,0-10.849-4.792-10.849-10.763
		c0-5.974,4.878-10.849,10.849-10.849c5.971,0,10.763,4.874,10.763,10.849C328.072,162.988,323.28,167.78,317.308,167.78z" style="fill:#404040;"></path>
	<path class="st0" d="M256,0C114.628,0,0.002,114.63,0.002,255.998c0,14.537,1.269,28.84,3.671,42.736
		c0.267,1.654,0.493,3.334,0.788,4.973l0.054-0.029c0.008,0.058,0.017,0.119,0.029,0.177l38.682-21.617
		c-1.092-8.578-1.598-17.325-1.598-26.24c0-81.154,44.994-154.405,117.321-191.158c30.19-15.386,62.82-23.209,97.05-23.209
		c34.145,0,66.774,7.822,97.051,23.209c72.322,36.839,117.234,110.003,117.234,191.158c0,8.915-0.506,17.662-1.598,26.24
		l38.769,21.617c3.026-15.478,4.542-31.538,4.542-47.857C511.998,114.63,397.372,0,256,0z" style="fill:#404040;"></path>
	<path class="st0" d="M459.51,323.586c-0.005,0.008-0.009,0.02-0.013,0.029l-0.148-0.082
		C431.011,408.724,350.612,470.369,256,470.369c-89.199,0-165.792-54.812-198.019-132.473c-1.914-4.661-3.737-9.378-5.334-14.22
		l-0.025,0.012c-0.016-0.054-0.041-0.102-0.057-0.156L15.644,344.22C51.554,442.113,145.574,512,256,512
		c110.422,0,204.446-69.887,240.357-167.78l-31.155-17.419L459.51,323.586z" style="fill:#404040;"></path>
</g>
</svg>
