<svg version="1.1" id="_x31_0" xmlns="http://www.w3.org/2000/svg" xmlns:xlink="http://www.w3.org/1999/xlink" x="0px" y="0px"
 viewBox="0 0 512 512" xml:space="preserve">
<g>
	<path class="st0" d="M256,0C114.842,0,0,114.842,0,256s114.842,256,256,256s256-114.842,256-256S397.158,0,256,0z M256,487.953
		c-105.28,0-194.345-70.528-222.575-166.802l24.822-13.831c22.822,87.886,102.83,152.966,197.766,152.966
		c94.923,0,174.927-65.08,197.746-152.966l24.818,13.831C450.345,417.425,361.284,487.953,256,487.953z M242.478,342.246h27.014
		c41.358,0,74.943-33.585,74.943-74.947V84.039c64.736,33.323,104.928,99.107,104.928,171.973c0,1.483-0.078,2.951-0.11,4.426
		l-0.012-0.004l0.008,0.145c-2.442,104.505-88.157,188.783-193.237,188.783c-106.626,0-193.374-86.736-193.374-193.35
		c0-72.842,40.177-138.607,104.893-171.938v183.225C167.53,308.662,201.115,342.246,242.478,342.246z M256.023,193.154
		c-17.393,0-31.581-14.106-31.581-31.499c0-17.397,14.188-31.502,31.581-31.502c17.394,0,31.503,14.106,31.503,31.502
		C287.526,179.049,273.417,193.154,256.023,193.154z M283.597,257.679v20.442c0,10.982-8.896,19.878-19.878,19.878h-15.472
		c-10.978,0-19.878-8.896-19.878-19.878v-20.442H283.597z M240.313,80.857c-16.031,10.258-30.219,23.085-41.761,37.671
		c-1.843,2.326-5.613,0.963-5.613-2.003V84.141c0-1.362,0.802-2.563,2.004-3.045c22.606-9.139,46.654-13.867,71.338-13.946
		C257.307,70.916,248.65,75.487,240.313,80.857z M197.589,151.315c5.691,0,10.341,4.646,10.341,10.34
		c0,5.691-4.65,10.258-10.341,10.258c-5.69,0-10.34-4.567-10.34-10.258C187.249,155.961,191.898,151.315,197.589,151.315z
		 M304.118,161.655c0-5.694,4.65-10.34,10.34-10.34c5.691,0,10.258,4.646,10.258,10.34c0,5.691-4.567,10.258-10.258,10.258
		C308.767,171.914,304.118,167.346,304.118,161.655z M460.023,266.438c0.177-3.452,0.266-6.931,0.266-10.426
		c0-77.327-42.83-147.139-111.769-182.192c-28.822-14.67-59.946-22.11-92.509-22.11c-32.583,0-63.706,7.44-92.505,22.106
		C94.552,108.865,51.714,178.681,51.714,256.012c0,3.495,0.09,6.974,0.262,10.426l-26.533,14.779
		c-0.9-8.29-1.397-16.697-1.397-25.218C24.047,128.102,128.102,24.047,256,24.047c127.902,0,231.953,104.054,231.953,231.953
		c0,8.521-0.493,16.927-1.393,25.218L460.023,266.438z" ></path>
</g>
</svg>
