<svg version="1.1" id="_x31_0" xmlns="http://www.w3.org/2000/svg" xmlns:xlink="http://www.w3.org/1999/xlink" x="0px" y="0px"
	 viewBox="0 0 512 512" xml:space="preserve">
<g>
	<path class="st0" d="M162.312,367.546l-1.519-2l-1.598-2.16l-2-2.641c-17.809,1.277-33.661,3.546-39.738,4.504
		c-1.274,0.172-2.192,0.285-2.555,0.305c2.887-2.118,6.379-5.504,9.446-9.399c0.55-0.66,1.121-1.32,1.625-1.972
		c-0.031-0.004-0.058-0.008-0.09-0.012c0.035-0.051,0.074-0.098,0.11-0.145c-4.227-0.531-8.211-1.137-11.879-1.808
		c-0.164-0.035-0.359-0.063-0.52-0.102l-0.003,0.015c-0.051-0.008-0.106-0.015-0.157-0.027l-0.386,4.309l-0.02,0.172
		c-0.48-0.078-0.957-0.078-1.515-0.078c-6.637,0-21.118,6.484-22.176,15.141c-0.023,0.183-0.027,0.363-0.035,0.546
		c-0.031,0.559-0.195,1.094-0.106,1.672c1.118,6.958,3.039,8.16,4.238,8.16c0.641,0,1.039-0.32,1.039-0.32
		c1.039,3.598,7.121,4.481,9.282,4.481h0.238c7.36,0,38.403-0.883,64.242-5.762c0.762-0.164,1.493-0.324,2.231-0.488l0.918-0.137
		l-0.039-0.058c0.055-0.012,0.118-0.023,0.168-0.035L162.312,367.546z"/>
	<path class="st0" d="M87.703,339.644l3.25-0.703l-0.07,4.746l-0.028,0.578h0.02v0.16l14.879-1.519l2.878-0.321
		c0.481,0.078,0.879,0.161,1.359,0.321c1.282,0.238,2.641,0.48,4.161,0.801c4.878,0.878,10.562,1.758,16.402,2.32
		c1.438,0.078,2.957,0.238,4.398,0.317c1.442,0.082,2.878,0.164,4.32,0.164c1.039,0.078,2.078,0.078,3.122,0.078
		c1.898,0,3.73-0.09,5.566-0.202c0.434-0.004,0.758-0.008,0.836-0.008c-0.004-0.008,0-0.016-0.004-0.023
		c0.054-0.004,0.109,0,0.16-0.008c-0.078-0.398-0.078-0.879-0.078-1.278l0.078-1.359l0.242-12.641l-0.242-0.879l-9.758,1.039
		l-2.481,0.238l-6.242,0.641c-1.121-0.238-2.238-0.481-3.278-0.641l0.059-2.554l0.058-0.649l-0.043,0.012l0.004-0.168l-7.121,1.679
		l-8.711,1.938l-2.086,0.426l0.078-1.962l0.481-9.042v-0.078c-6.481-2.481-15.122-5.84-24.481-9.442
		c-16.414-2.426-30.574-4.371-35.684-5.066c-1-0.168-1.629-0.289-1.886-0.367c2.691-0.664,6.145-1.863,9.801-3.324
		c0.852-0.305,1.699-0.61,2.594-0.934c-0.054-0.02-0.106-0.039-0.156-0.058c0.07-0.031,0.141-0.059,0.211-0.09
		c-9.118-3.519-17.52-6.801-23.598-9.199c-7.121,1.922-13.683,4.078-17.762,6.321c-11.602,6.238-16.641,16.078-8.961,23.519
		c1.68,1.602,3.68,2.719,5.84,3.52c13.442,4.878,42.641,7.839,57.363,9.199c0.539,0,0.282,5.504,0.188,7.218
		c-0.02,0.141-0.043,0.305-0.063,0.387l0.043-0.008c-0.004,0.054-0.011,0.164-0.011,0.164L87.703,339.644z"/>
	<path class="st0" d="M150.074,297.143l0.078-1.437v-0.723c-1.278-0.558-2.641-1.117-4-1.598c-1.278-0.48-2.641-0.961-4.16-1.519
		l-2.481,0.238l-8.418,0.926l-1.02,0.098l0.062-3.348l0.051-0.797l-0.039,0.008l0.004-0.168l-7.122,1.602l-8.706,1.985l-2.168,0.453
		l0.558-11.078c0.078-0.32,0.078-0.718,0.078-1.199c-9.839-3.679-20.48-7.519-31.281-10.961
		c-12.258-3.938-25.332-8.383-30.258-10.066c-0.906-0.34-1.484-0.574-1.77-0.715c0.942,0.07,1.922,0.141,2.989,0.141
		c2.469,0,5.027-0.278,7.606-0.68c0.91-0.098,1.805-0.179,2.734-0.293c-0.082-0.035-0.149-0.066-0.23-0.102
		c0.098-0.019,0.195-0.023,0.293-0.042c-3.043-1.282-5.922-2.563-8.723-3.84c-6.16-2.641-11.519-5.043-15.277-6.641
		c-2.562-1.121-5.043-2.16-7.282-3.121c-4.801,0.801-9.359,1.679-12.242,2.558c-9.199,2.801-12.398,9.519-11.359,17.683
		c0.481,3.438,2.562,6.477,5.519,8.317c6,3.602,16.481,8.082,16.481,8.082s2.722,1.038,7.203,2.801
		c1.918,0.801,4.238,1.679,6.797,2.636c2.16,0.883,4.481,1.762,6.961,2.723c6.078,2.398,13.039,5.121,20.161,7.918
		c1.839,0.723,3.602,1.442,5.441,2.161c1.84,0.64,3.598,1.363,5.36,2.082c1.918,0.718,3.758,1.438,5.598,2.16
		c6.48,2.559,12.641,4.958,18.082,6.958c3.798,1.484,7.02,2.73,9.821,3.777c0.758,0.321,1.55,0.637,2.278,0.965
		c0.113,0.126,0.25,0.301,0.301,0.301c0.16,0.078,0.242,0.559,0.32,1.278c0.145,1.594,0.035,4.176,0.008,4.684l-0.004,0.034
		l0.004-0.003c0,0.038-0.008,0.168-0.008,0.168l12.32-2.801c1.762,0.32,3.52,0.64,5.282,0.961l-0.082,3.359l9.462-0.969l1.343-0.114
		l-0.004-0.023l0.161-0.015l-0.641-2.481l-0.481-1.84c-0.641-2.32-0.558-4.801,0.16-7.117L150.074,297.143z"/>
	<path class="st0" d="M32.714,235.624c2.317,0.961,4.798,2,7.52,3.199c0.641,0.242,1.278,0.562,2,0.801
		c1.598,0.718,3.519,1.519,5.598,2.48c7.363,3.199,17.282,7.602,28,12.238c1.84,0.801,3.68,1.602,5.602,2.402
		c1.762,0.801,3.598,1.598,5.359,2.398c10.879,4.641,21.762,9.199,30.801,12.801c0.481,0.719,1.039,1.442,1.52,2.082
		c0.801,1.117,1.519,2,1.762,2.078c0.32,0.082,0.398,1.679,0.32,3.199c0,1.519-0.082,2.882-0.082,2.882l4.801-1.043l7.281-1.679
		l3.36-0.719c0.718,0.238,1.519,0.398,2.238,0.641l-0.078,2.238v2.16l4.398-0.48l7.602-0.797c0.238-3.203,1.758-6.165,4.16-8.402
		l5.52-5.039l2.637-7.039c0.21-0.555,0.507-1.145,0.835-1.664c0.032-0.024,0.055-0.082,0.09-0.102l-0.039-0.008
		c0.031-0.047,0.043-0.106,0.074-0.149l-14.321-3.199l-8.484-1.902l-0.79-0.192l1.106-3.133l0.317-0.774l-0.043-0.003l0.054-0.157
		l-7.277-0.641l-8.844-0.898l-2.184-0.262l2.707-6.918c-19-7.742-50.117-20.215-61.844-24.914c-2.297-0.953-3.805-1.598-4.371-1.871
		c1.77,0.133,3.79,0.145,5.973,0.145c4.954,0,11.004-0.27,17.462-0.699c1.538-0.07,3.078-0.141,4.687-0.211
		c-0.054-0.039-0.106-0.074-0.16-0.113c0.086-0.008,0.168-0.012,0.254-0.02c-6.562-4.558-11.203-7.918-11.68-8.238l-5.359-3.918
		l2.558-6.082c0.262-0.652,0.778-1.851,1.418-3.238c0.152-0.266,0.25-0.492,0.422-0.762h-0.074c0.028-0.058,0.047-0.102,0.074-0.16
		H48.312c-23.2,0-37.118,2.641-41.918,7.039c-4.883,4.402-12.242,14.16,1.519,23.602C13.831,227.546,20.714,230.506,32.714,235.624z
		"/>
	<path class="st0" d="M169.754,207.463c6.879-0.558,11.519-0.878,11.519-0.878c0.481-1.039,1.52-2.242,1.52-2.242l16.641,12.641
		c0.48-0.797,1.039-1.438,1.598-2.16c1.121-1.36,2.402-2.559,3.683-3.52c-0.082-0.398-0.082-0.797-0.16-1.199
		c-3.68-5.598-8.481-10.398-12.481-11.519c-8-2.321-9.922-5.282-9.922-5.282c-4.481-0.238-14.879-0.48-27.039-0.797
		c-1.27,0.317-2.68,0.578-4.039,0.859c-1.008,0.168-1.969,0.442-3,0.524c0.047,0.027,0.102,0.058,0.149,0.086
		c-0.082,0.016-0.149,0.035-0.23,0.051C154.875,198.104,162.555,202.823,169.754,207.463z"/>
	<path class="st0" d="M81.511,199.226c0,0,9.121,6.64,20,14c1.84,1.199,3.762,2.48,5.602,3.758c1.918,1.203,3.84,2.481,5.762,3.68
		c3.278,2.082,6.558,4.082,9.519,5.843c4.719,2.719,9.52,6,14.719,9.36c0.082,0.238-0.082,0.797-0.238,1.437
		c-0.293,1.234-0.882,2.774-1.234,3.664c-0.094,0.18-0.187,0.43-0.278,0.578h0.055c-0.02,0.047-0.066,0.16-0.066,0.16l1.363,0.078
		l11.918,1.199c1.36,0.801,2.719,1.523,4.082,2.242l-1.121,3.359l-0.082,0.078l0.402,0.082l16.398,3.68l1.129,0.242l1.024,0.37
		l-0.141-0.183l0.23,0.05l-0.394-0.262l-0.126-0.164c0.817,0.23,1.63,0.516,2.52,0.664c0.879-0.718,1.918-1.199,2.957-1.598
		l1.602-2.961l1.282-2.32c1.199-2.161,3.039-3.922,5.199-5.122l2.32-1.199c0.238-1.359,0.558-2.641,1.039-3.84
		c0.481-1.598,1.121-3.121,1.922-4.48c-4.882-4-10.722-8.481-16.801-12.559c-1.441-0.961-2.961-1.922-4.48-2.961
		c-1.922-1.199-3.84-2.48-5.84-3.762c-2-1.278-4-2.477-6-3.758c-7.442-4.641-14.801-9.039-20.641-12.481
		c-1.68,0.238-3.199,0.481-4.718,0.641c-0.801,0.078-1.602,0.16-2.321,0.16c-4.961,0-9.519-1.84-13.043-4.961
		c-1.438-1.199-2.637-2.641-3.598-4.16c-0.32-0.481-0.558-0.961-0.801-1.442c-0.48-0.957-0.961-1.836-1.359-2.797
		c-2.969-7.129-3.465-14.859-1.75-22.645c0.386-1.61,0.734-3.218,1.339-4.816c-0.038,0.023-0.082,0.042-0.121,0.062
		c0.023-0.066,0.027-0.133,0.05-0.203c-6.718,3.359-16.718,8.562-18.398,9.84c-5.042,4-9.679,10.16-7.679,17.762
		c0.398,1.359,0.957,2.718,1.758,4.16c0.558,0.879,1.121,1.758,1.84,2.719c-0.321,0.398-0.719,0.961-1.118,1.519
		C83.273,194.905,81.511,199.226,81.511,199.226z"/>
	<path class="st0" d="M118.851,186.936c1.175,1.402,2.672,2.454,4.316,3.118c0.543,0.222,1.106,0.398,1.668,0.527
		c1.219,0.285,2.481,0.363,3.754,0.226c0.453-0.047,0.894-0.121,1.332-0.226c0.206-0.047,0.422-0.098,0.629-0.145h0.008
		c0.902-0.214,1.812-0.43,2.722-0.652l0.008-0.004c1.305-0.317,2.609-0.649,3.91-0.985c6.106-1.598,12.094-3.398,16.958-5.094
		c3.48-1.21,6.382-2.367,8.32-3.351c5.172-2.622,8.394-5.242,11.797-7.692h0.008c8.454-11.855,11.61-19.472,12.477-21.843
		c0.062-0.176,0.117-0.321,0.156-0.442c0.047-0.118,0.07-0.203,0.09-0.266c0.023-0.027,0.034-0.055,0.058-0.074
		c4.023-5.039,7.84-10.125,15.906-11.652c8.453-1.606,25.21-8.317,33.641-10.657c6.777-1.871,12.199-6.054,4.453-6.586
		c-3.578-0.234-6.211-0.27-10.023,0.137c-4.172,0.445-9.786,1.414-19.649,3.203c-14.121,2.562-15.152,2.258-31.336,7.746
		c-1.457,0.477-2.953,0.965-4.68,1.539c0.078-1.629-0.058-5.446-0.09-6.234c0.008-0.027,0.004-0.145,0.012-0.156l-0.012,0.008
		c-0.004-0.024-0.012-0.165-0.012-0.165c-3.058,0.977-23.054,10.754-23.226,10.833c0,0-0.008,0-0.015,0
		c-0.458,0.05-1.973-3.563-2.782-5.57c-0.137-0.414-0.297-0.856-0.398-1.215l-0.054,0.07c-0.028-0.066-0.07-0.172-0.07-0.172
		l-9.844,11.914c-1.254,0.941-2.039,1.312-2.813,1.691l-2.258-3.047l-0.266-0.386l-0.012,0.012l-0.098-0.129l-11.234,10.699
		l-0.718,0.687c-1.215,0.746-2.34,1.488-3.375,2.207c-0.695,0.48-1.348,0.957-1.95,1.43c-0.226,0.574-0.484,1.254-0.75,2.019
		c-2.019,5.871-4.371,16.981,2.652,27.633C118.304,186.257,118.562,186.612,118.851,186.936z"/>
	<path class="st0" d="M208.739,151.311c-0.551,0.058-1.114,0.129-1.672,0.195c-0.469,0.058-0.942,0.11-1.391,0.156
		c-7.343,0.786-12.507,0.383-15.602-0.11c-0.617,1.79-2.847,7.578-8.762,16.762c2.723-1.352,6.004-2.606,10.336-3.723
		c6.691-1.726,16.946-3.906,28.629-5.148c6.63-0.707,13.715-1.118,20.879-0.973c2.387,0.043,4.242-0.019,5.645-0.168
		c8.305-0.883,0.914-4.718-3.668-5.797C237.965,151.284,223.575,149.733,208.739,151.311z"/>
	<path class="st0" d="M422.669,371.652c-0.993-8.657-15.481-15.145-22.196-15.145c-0.558,0-1.038,0-1.441,0.078l-0.352-3.958
		l-0.015-0.363c-0.008,0-0.012,0-0.012,0l-0.019-0.16c-3.106,0.582-6.566,1.098-10.13,1.574c-0.8,0.078-1.574,0.195-2.378,0.25
		c0.015,0.024,0.035,0.047,0.05,0.07c-0.062,0.008-0.121,0.02-0.183,0.027c2.812,3.894,6.113,7.383,9.086,9.914
		c0.657,0.606,1.309,1.195,1.93,1.714c-2.39-0.422-22.542-3.621-44.934-5.148l-3.762,5.039l-7.215,9.566l-3.07,3.957
		c0.023,0.004,0.05,0.012,0.07,0.016l-0.105,0.14c1.839,0.398,3.762,0.801,5.762,1.199c25.918,4.879,56.961,5.762,64.238,5.762
		h0.242c2.16,0,8.238-0.883,9.277-4.481c0,0,0.481,0.32,1.043,0.32c1.199,0,3.118-1.202,4.238-8.16
		c0.094-0.574-0.066-1.113-0.094-1.672C422.692,372.015,422.688,371.835,422.669,371.652z"/>
	<path class="st0" d="M493.032,298.906c-4.078-2.242-10.637-4.398-17.758-6.321c-4.961,1.961-11.454,4.516-18.618,7.301
		c-1.594,0.582-3.187,1.168-4.84,1.754c0.051,0.019,0.102,0.038,0.153,0.062c-0.074,0.027-0.141,0.054-0.215,0.082
		c3.336,1.414,6.422,2.535,9.23,3.43c1.13,0.406,2.176,0.778,3.098,1.094c-1.602,0.214-17.993,2.43-37.528,5.316
		c-9.281,3.602-18,6.961-24.402,9.442v0.078l0.402,9.042l0.133,1.661l-0.008,0.332l-10.847-2.395l-5.547-1.308l-1.41-0.375
		l-0.004,0.043l-0.156-0.039l0.078,3.359c-1.039,0.16-2.078,0.402-3.199,0.641l-6.242-0.641l-2.558-0.238l-11.918-1.281
		c-0.242,0-0.48,0.082-0.641,0.082l-0.242,1.039l0.32,14c0,0.32,0,0.719-0.078,1.039c3.039,0.402,6.161,0.48,9.36,0.48
		c1.039,0,2.078,0,3.121-0.078c1.438,0,2.879-0.082,4.317-0.164c1.523-0.078,2.961-0.238,4.48-0.317
		c5.762-0.562,11.442-1.442,16.402-2.32c1.438-0.321,2.801-0.562,4.16-0.801c0.398-0.16,0.879-0.242,1.278-0.321l2.961,0.321
		l12.977,1.332l1.664,0.191v-0.019l0.16,0.015l-0.066-4.602l0.02-0.91l13.668,3.105l3.738,0.895c0-0.012,0-0.035-0.004-0.047
		l0.164,0.039c0,0-0.398-7.762,0.16-7.762c14.719-1.36,43.922-4.321,57.36-9.199c2.16-0.801,4.16-1.918,5.839-3.52
		C509.673,314.983,504.634,305.144,493.032,298.906z"/>
	<path class="st0" d="M372.473,292.105l-2.48-0.238c-1.438,0.558-2.879,1.039-4.16,1.519c-2.321,0.879-4.637,1.84-6.801,2.801
		l0.082,0.957l4.16,13.364c0.719,2.316,0.801,4.718,0.238,7.117l-0.824,3.141l-0.5,1.586l0.094-0.023l-0.047,0.18
		c0.559-0.164,1.199-0.321,1.84-0.481c0.238,0,0.398-0.082,0.641-0.16l11.438,1.199v-3.359c1.68-0.321,3.442-0.641,5.199-0.961
		l9.629,2.187l2.531,0.621v-0.046l0.16,0.039c0,0-0.16-3.122,0-4.883c0.082-0.718,0.161-1.199,0.321-1.278
		c0.082,0,0.32-0.16,0.562-0.48c3.117-1.122,7.199-2.719,11.918-4.562c5.359-2,11.519-4.398,18-6.958
		c1.839-0.722,3.679-1.442,5.602-2.16c1.758-0.718,3.598-1.442,5.359-2.082c1.84-0.719,3.598-1.438,5.442-2.161
		c7.117-2.797,14.078-5.519,20.156-7.918c2.481-0.961,4.883-1.84,6.961-2.723c2.562-0.957,4.883-1.835,6.801-2.636
		c4.481-1.762,7.199-2.801,7.199-2.801s10.481-4.481,16.481-8.082c2.961-1.84,5.039-4.879,5.519-8.317
		c1.122-8.164-2.16-14.882-11.359-17.683c-2.879-0.879-7.438-1.758-12.238-2.558c-2.242,0.961-4.641,2-7.281,3.121
		c-3.762,1.598-9.122,4-15.282,6.641c-1.481,0.695-3.145,1.39-4.742,2.086c-1.328,0.535-2.558,1.157-3.945,1.598
		c0.082,0.016,0.16,0.02,0.238,0.035c-0.094,0.039-0.175,0.082-0.27,0.122c3.52,0.718,7.039,1.117,10.481,1.117
		c0.738,0,1.477-0.058,2.215-0.106c0.266,0.016,0.527,0.027,0.797,0.066c-1.774,0.606-17.57,6.004-32.133,10.68
		c-10.719,3.442-21.442,7.282-31.278,10.961c0.078,0.481,0.078,0.879,0.078,1.199l0.446,8.828l0.074,2.282l-10.762-2.469
		l-5.696-1.266l-1.343-0.34v0.039l-0.16-0.035l0.074,3.973l-0.007,0.347L372.473,292.105z"/>
	<path class="st0" d="M505.595,198.983c-4.801-4.398-18.718-7.039-41.922-7.039h-18.961l-8.172-0.07
		c0.011,0.027,0.019,0.047,0.031,0.07h-0.176c0.879,1.84,1.598,3.359,1.84,4.16l2.558,6.082l-5.359,3.918
		c-0.414,0.278-4.039,2.891-9.219,6.52c-0.793,0.511-1.582,1.023-2.449,1.562c0.07,0.004,0.129,0.008,0.195,0.011
		c-0.074,0.051-0.133,0.094-0.207,0.145c8.321,0.641,16.078,1.043,22.238,1.043c1.75,0,3.278-0.023,4.715-0.086
		c0.43,0.02,0.867,0.028,1.277,0.059c-3.363,1.343-43.473,17.394-66.152,26.668l2.175,5.562l0.504,1.402l-11.078,1.113l-5.723,0.504
		l-1.406,0.086l0.012,0.035l-0.164,0.015l1.332,3.77l0.098,0.313l-9.27,2.078l-15.598,3.52l-1.203,0.238
		c0.242,0.48,0.481,0.882,0.641,1.363l2.641,7.039l5.519,5.039c2.402,2.16,3.762,5.038,4.082,8.238
		c0.16-0.078,0.32-0.078,0.48-0.078l10,1.039l4.477,0.48l-0.078-2.16v-2.238c0.719-0.242,1.442-0.402,2.238-0.641l3.282,0.719
		l7.359,1.679l3.59,0.794l0.969,0.258c0,0,0-0.039,0-0.047l0.164,0.039c0,0-0.082-1.363-0.082-2.882c0-1.52,0.082-3.118,0.402-3.199
		c0.156-0.078,0.878-0.962,1.758-2.078c0.481-0.641,0.961-1.363,1.442-2.082c9.039-3.602,19.918-8.16,30.801-12.801
		c1.836-0.801,3.598-1.598,5.438-2.398c1.84-0.801,3.762-1.602,5.602-2.402c10.641-4.637,20.641-9.039,27.918-12.238
		c2.161-0.961,4-1.762,5.68-2.48c0.641-0.238,1.282-0.558,2-0.801c2.722-1.199,5.199-2.238,7.519-3.199
		c11.922-5.118,18.802-8.078,24.802-13.039C517.833,213.143,510.474,203.386,505.595,198.983z"/>
	<path class="st0" d="M356.954,192.506c-12.16,0.317-22.641,0.558-27.122,0.797c0,0-1.839,2.961-9.839,5.282
		c-4.641,1.281-10.161,7.359-14.078,13.922c1.679,1.52,3.281,3.52,4.878,5.918l18.481-14.082c0,0,1.039,1.203,1.442,2.242
		c0,0,4.637,0.32,11.519,0.878c6.336-4.082,13.016-8.16,19.184-11.874c0.793-0.458,1.664-0.996,2.43-1.43
		c-0.019-0.004-0.035-0.008-0.054-0.012c0.062-0.039,0.137-0.086,0.199-0.121C361.595,193.546,359.196,193.065,356.954,192.506z"/>
	<path class="st0" d="M383.993,196.905c-0.797,0-1.598-0.082-2.398-0.16c-1.52-0.16-3.039-0.402-4.641-0.641
		c-5.922,3.442-13.282,7.84-20.719,12.481c-2,1.281-4,2.48-6,3.758c-1.922,1.282-3.922,2.562-5.839,3.762
		c-1.52,1.039-3.043,2-4.481,2.961c-6.961,4.641-13.52,9.84-18.801,14.161c0.961,1.918,1.679,4.16,2.16,6.718l2.238,1.199
		c2.242,1.199,4,2.961,5.203,5.122l3.278,5.839l3.202,1.68c0.879-0.207,1.727-0.469,2.594-0.711
		c0.675-0.152,1.343-0.332,2.031-0.426l-0.016,0.008l-0.406,0.094l0.398-0.086l-0.363,0.242l2.238-0.48l16.402-3.68l0.398-0.082
		v-0.078l-1.191-3.34l-0.008-0.019c1.359-0.723,2.719-1.442,4.078-2.242l11.922-1.199l1.36-0.078c0,0-0.078-0.16-0.161-0.402
		c-0.32-0.797-0.961-2.64-1.359-4c-0.16-0.64-0.238-1.199-0.16-1.437c5.121-3.36,9.922-6.641,14.641-9.36
		c3.039-1.762,6.238-3.762,9.602-5.843c1.836-1.199,3.758-2.477,5.679-3.68c1.918-1.278,3.758-2.558,5.598-3.758
		c10.878-7.36,20-14,20-14s-1.758-4.321-3.68-7.282c-0.398-0.558-0.718-1.121-1.121-1.519c0.722-0.962,1.359-1.84,1.839-2.719
		c0.801-1.442,1.442-2.801,1.762-4.16c2-7.602-2.641-13.762-7.68-17.762c-1.394-1.059-8.492-4.809-14.715-7.977
		c-1.238-0.668-2.449-1.321-3.535-1.918c0.02,0.051,0.024,0.102,0.039,0.149c-0.062-0.027-0.129-0.062-0.187-0.094
		c3.278,9.442,3.117,18.961-0.481,27.602c-0.402,0.961-0.801,1.84-1.281,2.797c-0.238,0.481-0.559,0.961-0.801,1.442
		c-1.039,1.519-2.238,2.961-3.602,4.16C393.512,195.065,388.875,196.905,383.993,196.905z"/>
	<path class="st0" d="M274.395,134.717c8.566,1.798,25.715,7.426,34.25,8.489c8.148,1.012,12.281,5.844,16.617,10.617
		c0.028,0.02,0.043,0.047,0.066,0.07c0.024,0.062,0.051,0.149,0.106,0.258c0.047,0.121,0.11,0.258,0.184,0.43
		c1.015,2.312,4.652,9.714,13.844,21.004h0.007c3.551,2.226,6.93,4.64,12.258,6.926c2,0.859,4.969,1.832,8.523,2.816
		c4.961,1.383,11.05,2.798,17.242,4.004c1.324,0.25,2.644,0.5,3.969,0.734h0.008c0.922,0.164,1.843,0.325,2.758,0.481h0.008
		c0.206,0.035,0.426,0.07,0.636,0.102c0.442,0.078,0.887,0.125,1.344,0.141c1.278,0.054,2.535-0.102,3.73-0.465
		c0.555-0.161,1.106-0.375,1.629-0.63c1.602-0.769,3.028-1.914,4.11-3.386c0.27-0.344,0.504-0.715,0.722-1.094
		c6.333-11.078,3.278-22.016,0.891-27.746c-0.317-0.746-0.618-1.406-0.879-1.969c-0.633-0.43-1.316-0.863-2.039-1.301
		c-1.078-0.652-2.246-1.316-3.508-1.988l-0.758-0.641l-10.355-8.668l-1.406-1.207l-0.012,0.016l-0.121-0.102l-1.73,2.672
		l-0.73,1.015c-0.778-0.32-1.574-0.644-2.856-1.484l-7.015-7.462l-3.418-3.758c-0.007,0.027-0.019,0.062-0.027,0.086l-0.125-0.129
		c0,0-0.969,3.082-1.809,5.179c-0.48,0.95-0.973,1.645-1.449,1.746c-2.574-1.055-18.282-7.5-22.715-8.946
		c-0.226-0.086-0.477-0.183-0.61-0.234v0.054c-0.042-0.015-0.121-0.038-0.16-0.05c0,0,0.098,3.886,0.27,5.942
		c0,0.214,0.004,0.473,0.008,0.652c-21.203-5.832-20.977-5.218-36.496-7.023c-9.958-1.156-15.618-1.766-19.813-1.946
		c-3.832-0.16-6.458,0.039-10.012,0.504C261.836,129.451,267.512,133.28,274.395,134.717z"/>
	<path class="st0" d="M266.172,165.882c1.406,0.058,3.266,0.004,5.645-0.192c7.136-0.598,14.234-0.644,20.898-0.363
		c11.738,0.5,22.113,2.02,28.898,3.321c4.394,0.836,7.75,1.878,10.55,3.054c-6.484-8.789-9.082-14.426-9.808-16.172
		c-3.059,0.691-8.184,1.418-15.563,1.106c-0.453-0.019-0.926-0.039-1.398-0.066c-0.562-0.035-1.129-0.066-1.683-0.09
		c-14.906-0.633-29.168,1.836-34.246,3.382C264.961,161.233,257.828,165.526,266.172,165.882z"/>
	<path class="st0" d="M351.063,347.347l-0.414-16.364l4.152-15.863l-4.898-15.531l-0.75-16.446l-8.137-7.39l-3.821-10.301
		l-9.801-4.984l-5.402-9.551l-5.032-2.672l-3.918-2.226h0.148c0.497-10.965-5.234-14.286-7.644-16.195
		c0,0-5.313-11.629-8.469-11.629h-0.086c-3.156,0.082-8.386,8.886-8.386,8.886s-3.156,0-5.066,0c0,0-2.242-3.656-5.317-8.39
		c0.997-2.242,2.493-4.317,4.985-4.898c5.48-1.246,11.793-5.73,9.801-11.215c-1.164-3.07-2.992-4.317-5.066-4.317
		c-1.578,0-3.406,0.829-4.985,2.074c-3.488,2.742-4.234,5.566-6.23,5.734h-0.996c-1.41,0-3.738-0.086-6.062-0.168
		c-3.488-4.984-6.477-8.886-7.39-8.886c-2.661,0-3.406,7.309-3.406,7.309h-8.555c0,0-0.746-7.309-3.406-7.309
		c-0.914,0-3.989,3.902-7.477,8.886c-2.242,0.082-4.566,0.168-5.977,0.168h-1c-1.992-0.168-2.738-2.992-6.309-5.734
		c-1.578-1.246-3.324-2.074-4.984-2.074c-1.996,0-3.821,1.246-4.985,4.317c-2.078,5.485,4.234,9.969,9.801,11.215
		c2.41,0.582,3.989,2.656,4.985,4.898c-3.074,4.734-5.398,8.39-5.398,8.39c-1.828,0-4.985,0-4.985,0s-0.832-1.328-1.91-2.906
		c-1.578-2.16-3.657-4.816-5.485-5.648c-0.332-0.168-0.746-0.332-1.078-0.332c-0.914,0-1.91,0.914-2.988,2.16
		c-0.418,0.496-0.832,1.078-1.246,1.742c-0.832,1.246-1.578,2.574-2.242,3.82c-1.246,2.16-1.996,3.906-1.996,3.906
		c-0.082,0-0.082,0-0.082,0c-0.414,0.332-0.914,0.746-1.496,1.16c-0.914,0.75-2.074,1.746-3.074,3.156
		c-0.746,1.082-1.492,2.328-2.074,3.989c-0.664,1.91-0.996,4.234-0.996,7.144v0.746h0.496l-3.82,1.992l-5.481,2.906l-1.328,2.41
		l-3.238,5.898l-0.668,1.078l-0.082,0.164l-4.153,2.16l-0.746-0.164l0.496,0.246l-4.649,2.41l-0.75,0.332l-3.902,10.301l-8.141,7.39
		v1.414l-0.25,4.898l-0.082,2.078l-0.082,2.824l-0.082,1.992l-0.168,3.238l-0.414,1.414l-4.488,14.117l0.5,1.91l1.328,5.066
		l0.25,0.996l1.078,4.156l0.086,0.333l0.914,3.402l-0.086,1l-0.246,13.868l-0.086,1.496l1.91,2.492l2.742,3.656l0.25,0.332
		l3.156,4.234l1.66,2.242l1.578,1.992l10.051,13.375l8.718,2.16l8.554,2.074l1.578,0.414l6.894,2.992l10.965,4.816l19.352-1.246
		l19.019,4.152l19.02-4.152l19.438,1.246l17.774-7.808l18.938-4.649l11.629-15.367L351.063,347.347z M291.848,257.987l2.324,5.722
		c-11.215,4.734-16.614,15.45-21.016,24.004c-0.828,1.742-1.66,3.321-2.406,4.734c-1.578,2.825-4.406,4.402-7.477,4.402
		c-0.75,0-1.496-0.086-2.242-0.25l-6.481-1.828l-6.394,1.828c-0.746,0.164-1.496,0.25-2.242,0.25c-3.074,0-5.98-1.578-7.476-4.402
		c-0.828-1.414-1.578-2.992-2.493-4.734c-4.316-8.554-9.714-19.27-21.011-24.004l2.41-5.73
		c13.371,5.562,19.602,17.938,24.169,26.993c0.832,1.578,1.66,3.156,2.324,4.484c0.5,0.746,1.246,1.164,2.078,1.164
		c0.165,0,0.414,0,0.582-0.082l8.054-2.161l8.141,2.161c0.168,0.082,0.414,0.082,0.582,0.082c0.828,0,1.578-0.418,1.992-1.164
		c0.75-1.328,1.496-2.906,2.328-4.484c4.461-8.844,10.555-20.809,23.371-26.551C291.27,258.288,291.535,258.116,291.848,257.987z
		 M283.871,361.218c-0.5-0.082-10.215-2.989-15.699-9.055c-3.821,1.828-9.219,2.078-12.125,2.078h-2.993
		c-2.82,0-8.218-0.25-12.125-2.078c-5.481,6.066-15.118,8.973-15.614,9.055l-1.414-4.734c4.07-1.164,14.785-5.649,15.699-12.294
		c0.746-5.316-7.058-16.859-12.211-22.84l1.282-1.109l2.652-1.891c1.973,2.391,14.477,17.418,13.262,26.59
		c-0.168,0.996-0.5,2.074-0.914,2.988c2.574,0.914,6.476,1.328,9.55,1.328h2.742c2.851,0,6.375-0.374,8.867-1.156
		c0.141-0.039,0.32-0.066,0.453-0.106l-0.003-0.023c0.046-0.016,0.105-0.027,0.152-0.043c-0.418-0.914-0.668-1.992-0.832-2.988
		c-1.328-9.387,11.879-25.004,13.457-26.828l3.738,3.238c-5.152,6.063-13.043,17.524-12.297,22.84
		c1,6.645,11.715,11.13,15.782,12.294L283.871,361.218z"/>
</g>
</svg>
