<svg version="1.1" id="_x31_0" xmlns="http://www.w3.org/2000/svg" xmlns:xlink="http://www.w3.org/1999/xlink" x="0px" y="0px"
	 viewBox="0 0 512 512" style="enable-background:new 0 0 512 512;" xml:space="preserve">
<g>
	<path class="st0" d="M107.238,125.217c9.453,4.918,28.469,8.293,50.438,8.293c31.371,0,56.801-10.25,56.801-15.324
		c0-5.086-25.43-15.332-56.801-15.332c-21.969,0-40.985,3.371-50.438,8.293c-9.45-4.922-28.469-8.293-50.438-8.293
		C25.434,102.854,0,113.1,0,118.186c0,5.074,25.434,15.324,56.801,15.324C78.77,133.51,97.789,130.135,107.238,125.217z" style="fill:#f2fdff;"/>
	<path class="st0" d="M455.195,102.854c-21.965,0-40.984,3.371-50.434,8.293c-9.453-4.922-28.469-8.293-50.438-8.293
		c-31.371,0-56.805,10.246-56.805,15.332c0,5.074,25.434,15.324,56.805,15.324c21.969,0,40.985-3.374,50.438-8.293
		c9.45,4.918,28.469,8.293,50.434,8.293c31.371,0,56.805-10.25,56.805-15.324C512,113.1,486.566,102.854,455.195,102.854z" style="fill:#f2fdff;"/>
	<path class="st0" d="M364.703,288.803l0.012-0.168c-5.902,1.574-11.981,3.316-18.27,5.269c-4.973,6.926-9.52,13.043-13.938,18.657
		l-3.614,53.113c-0.043,0.852-0.718,1.493-1.57,1.493H184.672c-0.848,0-1.527-0.641-1.57-1.493l-3.614-53.199
		c-4.374-5.527-8.922-11.602-13.894-18.527c-4.386-1.363-8.566-2.519-12.77-3.703c-1.808-0.542-3.648-1.09-5.386-1.621l0.004,0.058
		c-0.051-0.011-0.11-0.031-0.164-0.046l8.203,104.918c0.679,8.75,8.074,15.594,16.867,15.594c6.843,0,12.453-5.438,12.75-12.234
		h141.801c0.125,3.055,1.317,5.946,3.402,8.199c2.418,2.594,5.816,4.035,9.344,4.035c4.25,0,8.328-1.57,11.562-4.504
		c3.102-2.93,4.969-6.886,5.309-11.09l6.136-78.516l2.106-26.25C364.738,288.795,364.722,288.799,364.703,288.803z" style="fill:#f2fdff;"/>
	<path class="st0" d="M453.465,196.74h-0.254l-0.258-0.042c-9.972-1.23-19.566-2.86-28.789-4.778v-10.238
		c0-6.418-4.121-11.855-9.859-13.812v-19.294c0-2.675-2.164-4.886-4.84-4.886h-9.39c-2.68,0-4.891,2.211-4.891,4.886v19.336
		c-5.41,1.844-9.226,6.821-9.656,12.726c-0.031,0.29-0.144,0.551-0.16,0.844c-21.75-6.789-47.695-15.465-47.695-15.465
		c-27.961-7.774-53.926-11.43-81.715-11.43c-27.793,0-53.754,3.656-81.714,11.43c0,0-21.934,7.332-42.371,13.793
		c-1.77,0.543-3.531,1.082-5.27,1.61c-0.11-6.262-4.133-11.578-9.789-13.508v-19.336c0-2.675-2.211-4.886-4.887-4.886h-9.39
		c-2.68,0-4.844,2.211-4.844,4.886v19.294c-5.738,1.957-9.859,7.394-9.859,13.812v10.222c-9.246,1.922-18.871,3.559-28.875,4.794
		l-0.254,0.042H58.45c-7.227,1.102-13.516,5.481-17,11.774c-3.528,6.371-3.867,14.062-0.891,20.734l6.375,14.703L52.5,256.74h36.375
		c27.418,0,64.004,9.852,90.422,18.375c7.942,11.254,14.918,20.594,21.684,28.871c5.82,7.168,14.434,11.313,23.609,11.313h62.825
		c9.175,0,17.789-4.145,23.613-11.27c6.817-8.367,13.863-17.809,21.726-28.958c26.406-8.511,62.91-18.332,90.286-18.332h36.375
		l5.566-12.789l6.374-14.703c2.973-6.672,2.633-14.363-0.894-20.734C466.981,202.221,460.691,197.842,453.465,196.74z
		 M177.496,187.26v40.938c0,3.789,3.07,6.859,6.859,6.859h5.402c3.79,0,6.863-3.07,6.863-6.859v-45.891
		c17.516-3.886,36.794-6.472,59.336-6.472c22.539,0,41.817,2.586,59.336,6.472v45.891c0,3.789,3.07,6.859,6.859,6.859h5.402
		c3.79,0,6.86-3.07,6.86-6.859v-32.122l0.042-8.843l9.207,2.71c0.465,0.129,0.89,0.25,1.317,0.383
		c0.437,0.133,0.859,0.278,1.297,0.414v33.203c0,3.794,3.07,6.863,6.859,6.863h5.402c3.785,0,6.859-3.07,6.859-6.863v-8.164
		l0.363-18.641c0.406,0.126,0.778,0.286,1.188,0.41c6.246,2.125,12.32,4.16,18.355,6.074c1.488,0.512,2.977,0.981,4.465,1.402
		c3.695,1.152,7.434,2.254,11.214,3.278c15.258,4.117,31.871,7.304,49.336,9.472c0.848,0.129,1.317,0.594,1.531,1.02
		c0.254,0.422,0.426,1.062,0.082,1.828l-6.457,14.871h-22.438c-53.95,0-118.426,26.476-130.707,31.402
		c-15.043,6.035-25.965,10.41-36.375,10.496c-10.414-0.086-21.332-4.461-36.374-10.496c-12.282-4.926-76.758-31.402-130.707-31.402
		H66.438l-6.461-14.871c-0.34-0.766-0.168-1.406,0.086-1.828c0.215-0.426,0.68-0.891,1.527-1.02
		c17.469-2.168,34.082-5.355,49.336-9.472c3.782-1.024,7.524-2.126,11.219-3.278c1.488-0.422,2.976-0.89,4.461-1.402
		c6.035-1.914,12.113-3.95,18.359-6.074c0.422-0.129,0.805-0.301,1.23-0.426c0.106-0.039,0.211-0.07,0.317-0.11v26.93
		c0,3.794,3.07,6.863,6.859,6.863h5.402c3.789,0,6.859-3.07,6.859-6.863V190.74c0.438-0.136,0.863-0.281,1.301-0.414
		c0.422-0.133,0.848-0.254,1.317-0.383l7.034-2.074L177.496,187.26z" style="fill:#f2fdff;"/>
	<path class="st0" d="M255.957,258.842c8.438-0.117,17.254-5.031,28.29-12.297c2.574-1.652,5.23-3.386,8.086-5.25h-0.238
		c0.082-0.055,0.157-0.106,0.238-0.16H252.73l-33.058-0.133c0.066,0.046,0.129,0.086,0.199,0.133h-0.289
		C234.625,251.318,245.543,258.698,255.957,258.842z" style="fill:#f2fdff;"/>
</g>
</svg>
