<svg version="1.1" id="_x31_0" xmlns="http://www.w3.org/2000/svg" xmlns:xlink="http://www.w3.org/1999/xlink" x="0px" y="0px"
	 viewBox="0 0 512 512" xml:space="preserve">
<g>
	<path class="st0" d="M431.795,388.266c-0.258-1.45-0.512-2.902-0.938-4.266c-0.43-1.364-0.942-2.731-1.539-4.012
		c-0.598-1.363-1.282-2.558-2.133-3.668c-0.852-1.195-1.793-2.305-2.73-3.328c-0.856-1.11-1.794-2.219-2.559-3.328l-2.562-3.329
		c-0.766-1.195-1.621-2.305-2.473-3.328c-0.937-1.11-1.878-2.046-2.816-3.156c-0.855-1.023-1.621-2.222-2.305-3.414
		c-0.598-1.277-1.023-2.73-1.453-4.183c-0.223-0.758-0.598-1.371-0.895-2.058c-0.034-0.078-0.066-0.161-0.101-0.234
		c-0.242-0.535-0.391-1.168-0.707-1.63c-0.856-1.195-1.707-2.218-2.649-3.242c-0.938-1.028-1.961-2.051-3.07-2.902
		c-0.938-0.77-1.874-1.454-3.07-2.047c-1.281-4.781-2.734-9.473-4.098-14.25l-4.609-15.45l-4.778-15.446l-2.473-7.766l-0.598-1.875
		c-0.172-0.683-0.344-1.367-0.77-1.878c-0.426-0.598-0.938-1.11-1.195-1.707c-0.254-0.68-0.426-1.363-0.598-1.961l-0.426-1.793
		l-2.305-1.622c-4.778-3.328-9.559-6.656-14.164-10.07c-2.391-1.706-4.696-3.414-6.997-5.203c-0.855-0.683-1.797-1.367-2.648-2.05
		c-0.598-4.352-1.058-8.574-1.875-12.457c-2.274-10.758-4.406-16.481-7.512-24.918c-0.699-1.902-1.25-3.754-1.855-5.484
		c-0.039-0.199-0.113-0.367-0.148-0.574h0.042l2.898-1.622l25.688-14.422l2.305-1.367l1.706-3.754l2.078-4.391l0.168-0.324
		l-0.012-0.004l0.07-0.145l-3.758-1.449c2.051-4.953,4.098-9.813,6.058-14.766l5.977-14.676l5.886-14.848l1.535-3.671l0.684-1.875
		l0.172-0.43l0.254-0.766l0.34-0.938l2.668-7.418l0.012-0.027l0,0l0.054-0.148l-2.649-0.942c1.626-4.523,2.989-9.215,4.27-13.91
		c0.68-2.305,1.192-4.691,1.794-6.996c0.594-2.39,1.191-4.782,1.617-7.168c0.942-4.778,1.965-9.558,2.562-14.508
		c0.086-0.851,0.172-1.793,0.254-2.645l13.91-12.202l2.649-6.059c0.34-0.851-0.684-1.621-1.367-1.023l-4.438,3.926l-7.023,4.586
		l-3.313,2.074c-0.082-1.175-0.254-2.422-0.547-3.671c-0.003-0.032-0.007-0.07-0.011-0.102h-0.004
		c-0.012-0.055-0.012-0.106-0.023-0.157l-3.329,0.598c-0.086,1.024-0.171,2.047-0.343,3.157c-0.254,1.109-0.508,2.305-0.766,3.414
		c-0.598,2.219-1.195,4.524-1.879,6.825c-1.449,4.437-2.902,9.046-4.519,13.484l-4.696,13.566
		c-1.534,4.523-3.074,9.047-4.523,13.657l-2.402-0.801l-0.004-0.004l0,0l-0.156-0.051l-2.473,7.512l-0.34,0.851v0.258l-0.086,0.082
		v0.086l-0.086,0.258l-0.77,1.875l-1.363,3.671l-5.719,14.848l-5.633,14.934c-1.828,4.828-3.656,9.66-5.41,14.566
		c-0.046,0.125-0.09,0.242-0.14,0.367l-1.535-0.629l-0.313-0.164l0.488-0.57l-0.683,0.512l-1.516-0.531l-0.039-0.02v0.004
		l-0.152-0.05l-0.851,2.644L342.79,194.73l-0.847,0.679l-0.438,0.254c-0.118-24.883-12.223-47.031-30.633-60.41
		c7.34-9.39,0-24.664-8.531-33.199c-4.696-4.691-11.18-8.45-16.043-7.848c-3.84,0.426-7.34,1.023-11.094,3.668
		c-1.11,0.77-2.133,1.535-3.074,2.473c-0.254,0.344-0.594,0.683-0.852,1.027c-0.511-0.258-1.023-0.426-1.535-0.683h-0.086l0,0
		c1.363-2.219,2.558-4.012,3.074-4.867l2.382-3.348l0.266-0.351l-0.011-0.008l0.09-0.129l-0.766-0.43l1.449-2.133
		c0.77-1.024,1.794-2.219,2.731-3.582c0.602-0.683,1.195-1.449,1.793-2.218c1.281-1.707,2.644-3.242,3.84-4.61l3.5-4.098
		l-0.684-0.598c0.426-0.426,1.023-1.106,1.707-1.875l7.851-8.106l5.547-5.035l-0.598-0.683c0.77-0.684,2.558-2.305,2.73-2.477
		c0.598-0.512,1.11-1.023,1.707-1.531l10.668-8.535l1.129-0.801l0.207-0.11l-0.016-0.023l0.129-0.094l-0.598-0.594l8.192-5.718
		c0.343-0.258,0.683-0.512,1.109-0.851c0.684-0.512,1.367-0.942,2.047-1.367l5.785-3.5l0.574-0.329l-0.008-0.015l0.137-0.082
		l-0.511-0.683l6.824-4.094l11.438-5.883l0.371-0.183l-0.004-0.004l0.145-0.074l-0.426-0.77l2.387-1.195
		c1.109-0.598,2.476-1.191,4.011-1.875c0.852-0.344,1.79-0.683,2.645-1.11l10.297-4.402l0.137-0.058l0,0l0.149-0.062l-0.184-0.414
		l-0.035-0.414l0.047-0.023c0.43-0.172,1.109-0.43,1.965-0.684l15.446-5.375c1.449-0.511,2.218-2.05,1.706-3.5
		c-0.515-1.449-2.218-2.218-3.672-1.535l-15.102,6.57c-0.855,0.34-1.538,0.684-1.965,0.938l-0.168,0.086l-0.262-0.582l-0.007-0.043
		l-0.008,0.004l-0.066-0.148l-10.325,5.374c-0.855,0.512-1.706,0.942-2.558,1.367c-1.539,0.77-2.906,1.535-4.098,2.219l-2.133,1.367
		l-0.336-0.602l-0.008-0.035l-0.007,0.008l-0.074-0.141l-11.691,7.254l-6.574,4.692l-0.508-0.68l-6.23,4.438
		c-0.598,0.512-1.282,1.019-1.965,1.617c-0.426,0.344-0.766,0.684-1.11,0.942l-7.625,6.301l-0.226,0.18l-0.398-0.531l-0.012-0.024
		l-0.004,0.004l-0.098-0.129l-1.363,1.114l-10.157,9.554c-0.598,0.598-1.109,1.195-1.621,1.793l-2.426,2.59l-0.141,0.133
		l-0.438-0.504l-0.035-0.062l-0.011,0.011l-0.106-0.121l-5.293,5.718l-7.336,8.79c-0.684,0.938-1.196,1.621-1.539,2.133l-0.547-0.41
		l-0.004-0.008l-0.004,0.004l-0.125-0.098l-3.328,4.524c-1.023,1.363-2.39,3.156-3.5,4.949l-1.707,2.558
		c-0.851,1.363-1.707,2.645-2.386,3.754l-1.254,2.254l-0.031,0.051l-0.602-0.402l-0.027-0.028v0.008l-0.137-0.086l-2.473,4.176
		c-0.683,1.281-1.878,3.586-3.242,6.148c-2.817-0.683-5.891-1.113-8.961-1.113c-3.074,0-6.145,0.43-8.962,1.113c0,0,0,0-0.086,0
		c-1.282-2.562-2.558-4.867-3.242-6.148l-2.152-3.762l-0.149-0.281l-0.012,0.004l-0.078-0.137l-0.766,0.508l-1.282-2.305
		c-0.766-1.11-1.621-2.473-2.558-3.922l-1.535-2.304c-1.195-1.879-2.477-3.672-3.586-5.122l-3.114-4.262l-0.035-0.047l0,0
		l-0.094-0.129l-0.684,0.512c-0.339-0.512-0.941-1.195-1.621-2.133l-7.34-8.875l-2.39-2.558l-2.446-2.672l-0.25-0.297l-0.012,0.012
		l-0.106-0.118l-0.598,0.684c-0.683-0.77-2.39-2.559-2.562-2.731c-0.512-0.598-1.023-1.195-1.703-1.793l-10.156-9.554l-1.282-1.114
		l-0.598,0.684c0,0-8.449-7.082-8.871-7.426c-0.687-0.507-1.367-1.105-2.05-1.617l-5.742-4.094l-0.351-0.262l-0.008,0.007
		l-0.129-0.09l-0.426,0.68l-6.57-4.692l-11.011-6.832l-0.539-0.343l-0.008,0.004l-0.133-0.082l-0.426,0.77l-2.219-1.367
		c-1.109-0.684-2.558-1.45-4.183-2.305c-0.766-0.426-1.621-0.851-2.386-1.282l-9.563-4.976l-0.617-0.332l-0.008,0.007l-0.137-0.074
		l-0.222,0.5l-0.18,0.21l-0.027-0.027c-0.511-0.254-1.195-0.511-2.046-0.938l-15.106-6.57c-1.45-0.683-3.157,0.086-3.668,1.535
		c-0.512,1.45,0.254,2.989,1.621,3.5l15.531,5.375c0.707,0.234,1.39,0.465,1.832,0.637c0.098,0.051,0.207,0.07,0.301,0.133
		l-0.27,0.61l-0.007,0.008l0,0l-0.063,0.148l10.578,4.523c0.855,0.426,1.711,0.766,2.649,1.11c1.535,0.684,2.898,1.278,4.007,1.875
		l2.305,1.195l-0.336,0.606l-0.015,0.019l0.004,0.004l-0.078,0.141l12.031,6.145l6.742,4.094l-0.336,0.539l-0.008,0.007h0.004
		l-0.086,0.137l6.484,3.926c0.684,0.426,1.282,0.855,2.047,1.367c0.344,0.254,0.77,0.594,1.11,0.851l7.094,4.95l1.082,0.785
		l-0.406,0.406l-0.078,0.046l0.019,0.012l-0.113,0.114l1.363,1.027l1.878,1.449l8.875,7.086c0.512,0.508,1.11,1.019,1.707,1.531
		c0.168,0.258,1.961,1.793,2.645,2.477l-0.598,0.683l5.546,5.035l7.852,8.106c0.766,0.77,1.363,1.449,1.703,1.875l-0.68,0.598
		l3.582,4.098c1.195,1.367,2.562,2.902,3.839,4.61c0.598,0.77,1.195,1.535,1.794,2.304c1.023,1.278,1.965,2.473,2.644,3.497
		l1.461,2.027l0.07,0.11l-0.566,0.316l-0.062,0.016l0.008,0.015l-0.141,0.078l2.645,3.836c0.836,1.172,1.914,2.914,3,4.746
		c0.023,0.043,0.043,0.078,0.066,0.122c-0.512,0.258-1.02,0.43-1.527,0.683c-0.258-0.344-0.602-0.683-0.856-1.027
		c-0.938-0.938-1.965-1.789-3.07-2.473c-3.758-2.645-7-4.781-13.144-4.012c-3.496,0.512-9.301,3.501-13.996,8.192
		c-8.532,8.535-15.871,23.809-8.532,33.199c-16.191,11.766-27.43,30.254-30.042,51.465c-0.391,2.926-0.618,5.89-0.676,8.879
		l-14.422-11.45l-0.785-2.434l-0.016-0.062h-0.003l-0.051-0.148l-1.703,0.598l-0.683-0.512l0.511,0.594l-1.878,0.77
		c-1.793-5.035-3.668-9.984-5.547-14.934l-5.633-14.934l-5.714-14.848l-1.367-3.671l-0.766-1.875l-0.086-0.258v-0.168l-0.086-0.258
		l-0.344-0.938l-2.386-7.426l-2.649,0.856c-1.45-4.61-2.984-9.134-4.519-13.657l-4.696-13.566c-1.621-4.438-3.07-9.047-4.437-13.566
		c-0.766-2.218-1.364-4.523-1.962-6.742c-0.258-1.109-0.511-2.305-0.683-3.414c-0.254-1.11-0.34-2.133-0.426-3.157l-3.329-0.598
		c-0.246,0.981-0.301,1.93-0.367,2.879c-0.062,0.367-0.136,0.718-0.202,1.094l-10.266-6.703l-4.523-3.926
		c-0.683-0.598-1.707,0.172-1.367,1.023l2.73,6.059l13.825,12.202c0.086,0.852,0.171,1.794,0.258,2.645
		c0.594,4.95,1.621,9.73,2.558,14.508c0.426,2.386,1.023,4.778,1.621,7.082c0.598,2.39,1.11,4.777,1.794,7.082
		c1.277,4.695,2.644,9.387,4.266,13.996l-2.375,0.793l-0.035,0.008h0.004l-0.153,0.055l2.645,7.594l0.34,0.938l0.258,0.766
		l0.168,0.43l0.77,1.875l1.45,3.671l5.89,14.762l5.973,14.762c1.965,4.953,4.011,9.813,6.058,14.766l-3.355,1.297l-0.254,0.082
		l0.004,0.011l-0.148,0.058l2.305,4.864l1.706,3.754l2.305,1.367l28.586,16.129c-1.024,2.902-2.051,6.141-3.074,9.898
		c-1.707,6.23-3.496,13.566-5.118,22.274c-1.109,5.973-0.793,3.414-1.816,10.582c-0.855,0.683-3.133,1.961-3.988,2.644
		c-2.305,1.79-4.61,3.497-6.997,5.203c-4.695,3.414-9.386,6.742-14.168,10.07l-2.301,1.622l-0.511,1.793
		c-0.172,0.598-0.258,1.281-0.516,1.961c-0.254,0.598-0.766,1.11-1.191,1.707c-0.43,0.511-0.598,1.195-0.855,1.878l-0.598,1.875
		l-2.387,7.766l-4.781,15.446l-4.692,15.45c-1.367,4.777-2.73,9.469-4.098,14.25c-1.11,0.594-2.046,1.278-2.984,2.047
		c-1.11,0.851-2.137,1.874-3.074,2.902c-0.942,1.023-1.879,2.046-2.645,3.242c-0.855,1.11-1.367,2.473-1.707,3.922
		c-0.426,1.453-0.855,2.906-1.449,4.183c-0.684,1.192-1.453,2.391-2.305,3.414c-0.942,1.11-1.879,2.046-2.816,3.156
		c-0.856,1.023-1.707,2.133-2.563,3.328l-2.472,3.329c-0.852,1.109-1.707,2.218-2.563,3.328c-0.937,1.023-1.874,2.133-2.726,3.328
		c-0.855,1.11-1.621,2.305-2.218,3.668c-0.516,1.281-1.027,2.648-1.454,4.012c-0.426,1.363-0.766,2.816-1.023,4.266
		c-0.426,2.902-0.598,5.89,0.086,8.874l2.39,0.684c1.11-1.11,1.875-2.219,2.812-3.242c0.77-1.11,1.711-2.133,2.391-3.242
		c1.539-2.133,2.988-4.266,4.351-6.57c1.282-2.218,2.047-4.695,2.989-7.254c0.511-1.195,1.109-2.39,1.706-3.586
		c0.598-1.196,1.282-2.301,1.962-3.5l2.133-3.41c0.683-1.11,1.195-2.305,1.965-3.5c0.683-1.11,1.621-2.133,2.644-2.985
		c1.024-0.938,2.305-1.625,3.586-2.305c1.277-0.683,2.473-1.366,3.41-2.304c0.942-0.938,1.794-1.965,2.649-2.985
		c0.766-1.027,1.621-2.137,2.301-3.246c0.359-0.582,0.621-1.25,0.942-1.879c0.312-0.531,0.687-1.156,1.086-1.828l0.363-0.305
		l0.512-1.278c2.047-4.949,4.098-9.984,6.058-14.934l5.973-15.106l5.805-15.106l2.902-7.507l0.679-1.879
		c0.258-0.68,0.516-1.278,0.516-1.961c0-0.496,0.004-0.989,0.082-1.485c0.003-0.019,0.007-0.039,0.015-0.058
		c3.574-1.683,7.176-3.367,10.801-5.047c0.778-0.332,1.523-0.679,2.317-1c-4.184,35.45-2.313,61.18,2.57,88.485
		c0.032,0.18,0.051,0.352,0.078,0.523l-0.121,0.856l-0.016,0.015l-0.113-0.113c-2.902,3.84-5.801,7.594-8.618,11.519l-8.449,11.606
		l-2.559,3.5l0.512,2.219c0.254,0.679,0.34,1.449,0.594,2.218c0.258,0.766,0.602,1.535,0.856,2.218
		c0.258,0.766,0.426,1.535,0.426,2.305l0.258,2.301c0.258,3.074,0.512,6.059,0.68,9.219l0.602,9.129
		c0.168,3.074,0.426,6.145,0.679,9.215c0.344,3.074,0.77,6.144,1.11,9.133c0.43,3.07,0.855,6.144,1.367,9.129
		c0.5,3.457,1.16,6.851,1.781,10.258c0.301,1.836,0.563,3.621,0.875,5.512c-1.086,0.918-2.172,1.832-3.254,2.836
		c-0.856,0.851-1.622,1.706-2.39,2.558c-0.852,0.851-1.45,1.965-2.133,2.988c-0.684,1.024-1.364,2.047-2.134,2.902
		c-0.769,0.938-1.621,1.703-2.558,2.473c-0.855,0.77-1.878,1.45-2.816,2.133c-1.024,0.684-1.965,1.45-3.074,1.965
		c-1.023,0.598-2.133,1.191-2.985,2.047c-0.937,0.766-1.706,1.621-2.562,2.476c-1.706,1.618-3.242,3.41-4.691,5.375
		c-1.453,1.875-2.902,3.84-4.098,5.973c-1.195,2.133-2.301,4.352-3.07,6.824l2.047,1.879c1.195-0.512,2.305-1.023,3.414-1.707
		c1.024-0.598,2.133-1.195,3.07-1.875c2.051-1.281,3.84-2.734,5.719-4.098c1.878-1.453,3.586-3.074,5.289-4.691l2.477-2.477
		c0.766-0.855,1.367-1.878,2.046-2.898c0.512-1.113,1.282-2.05,1.965-2.988c0.766-0.942,1.45-1.879,2.219-2.73
		c0.851-0.855,1.707-1.707,2.644-2.39c0.852-0.766,1.962-1.367,2.985-1.879c1.11-0.598,2.133-1.191,3.074-1.875
		c0.938-0.77,1.793-1.535,2.73-2.305c1.707-1.535,3.414-3.07,4.949-4.863l1.622-1.195v-3.07c0.086-6.148-0.172-12.289-0.512-18.434
		c-0.254-3.074-0.426-6.145-0.683-9.218c-0.254-3.07-0.426-6.145-0.766-9.215c-0.344-2.988-0.77-6.058-1.196-9.129l-1.367-9.133
		c-0.426-2.985-0.851-6.058-1.195-9.133l-0.254-2.301c-0.086-0.684-0.172-1.539-0.086-2.305v-0.086l7.063-5.312l2.938-2.125
		c11.445,55.34,42.066,92.687,65.606,93.114c16.984,0.343,23.808-19.118,23.808-19.118V317.48l0.051-47.141
		c1.266,0.418,2.614,0.594,4.047,0.594c1.312,0,2.538-0.199,3.714-0.543c0.121-0.019,0.254-0.019,0.379-0.038v198.211
		c0,0,6.828,19.461,23.809,19.118c18.453-0.333,41.21-23.462,55.675-60.063c4.008-10.008,7.454-21.035,10.004-33.082l2.332,1.754
		l7.508,5.714l0.086,0.086c0.086,0.766,0,1.621-0.086,2.305l-0.254,2.301c-0.34,3.074-0.766,6.148-1.195,9.133l-1.363,9.133
		c-0.512,3.07-0.856,6.141-1.196,9.129c-0.343,3.07-0.511,6.145-0.769,9.215c-0.254,3.074-0.426,6.144-0.68,9.218
		c-0.344,6.145-0.598,12.286-0.512,18.434v3.07l1.618,1.195c1.453,1.793,3.246,3.328,4.953,4.863c0.852,0.77,1.79,1.535,2.726,2.305
		c0.942,0.684,1.965,1.278,3.074,1.875c1.023,0.512,2.047,1.114,2.989,1.879c0.937,0.683,1.789,1.535,2.558,2.39
		c0.851,0.851,1.535,1.789,2.305,2.73c0.683,0.938,1.449,1.875,2.046,2.988c0.512,1.02,1.195,2.043,1.965,2.898l2.473,2.477
		c1.707,1.618,3.414,3.238,5.293,4.691c1.875,1.363,3.668,2.817,5.715,4.098c0.942,0.68,2.047,1.278,3.074,1.875
		c1.023,0.684,2.218,1.195,3.41,1.707l2.051-1.879c-0.77-2.472-1.879-4.691-3.07-6.824c-1.199-2.133-2.648-4.098-4.098-5.973
		c-1.453-1.965-2.988-3.758-4.695-5.375c-0.852-0.855-1.707-1.71-2.558-2.476c-0.856-0.856-1.879-1.45-2.989-2.047
		c-1.11-0.515-2.133-1.281-3.07-1.965c-0.941-0.683-1.965-1.363-2.816-2.133c-0.938-0.77-1.793-1.535-2.558-2.473
		c-0.77-0.855-1.454-1.878-2.137-2.902c-0.68-1.023-1.278-2.137-2.133-2.988c-0.766-0.852-1.622-1.707-2.473-2.558
		c-1.027-1.028-2.137-1.965-3.246-2.902c1.11-5.207,1.965-10.41,2.734-15.703c0.512-2.985,0.938-6.059,1.363-9.129
		c0.34-2.989,0.77-6.059,1.027-9.133c0.34-3.07,0.594-6.141,0.766-9.215l0.598-9.129c0.171-3.16,0.426-6.145,0.683-9.219
		l0.254-2.301c0-0.77,0.086-1.539,0.426-2.305c0.258-0.683,0.598-1.453,0.855-2.218c0.254-0.77,0.34-1.539,0.512-2.218l0.598-2.219
		l-2.559-3.5l-8.449-11.606c-2.219-3.07-4.523-6.058-6.742-9.129c-0.683-0.77-1.281-1.625-1.879-2.39l-0.426,0.426
		c0.344-1.961,0.637-3.832,0.942-5.633c2.789-16.562,5.336-37.195,3.102-70.114c-0.289-4.59-0.668-9.414-1.145-14.496
		c4.41,2.035,8.734,4.07,13.059,6.106c0.086,0.511,0.086,1.023,0.086,1.535c0,0.683,0.258,1.281,0.512,1.961l0.683,1.879
		l2.902,7.507l5.801,15.106l5.973,15.106c1.965,4.95,4.012,9.985,6.058,14.934l0.516,1.278l0.508,0.43
		c0.515,1.278,1.195,2.473,1.878,3.582c0.684,1.109,1.45,2.218,2.305,3.246c0.851,1.02,1.707,2.047,2.645,2.985
		c0.938,0.938,2.133,1.621,3.414,2.304c1.282,0.68,2.559,1.367,3.586,2.305c1.023,0.852,1.874,1.875,2.644,2.985
		c0.684,1.195,1.278,2.39,1.962,3.5l2.133,3.41c0.683,1.199,1.281,2.304,1.965,3.5c0.598,1.195,1.195,2.39,1.621,3.586
		c0.938,2.558,1.793,5.035,3.07,7.254c1.282,2.305,2.816,4.438,4.355,6.57c0.68,1.11,1.618,2.133,2.387,3.242
		c0.938,1.023,1.706,2.133,2.816,3.242l2.391-0.684C432.474,394.156,432.306,391.167,431.795,388.266z M303.107,207.358
		c-1.192-0.344-2.387-0.683-3.582-0.938c-1.195-0.344-2.305-0.598-3.582-0.77c-0.942-0.172-1.879-0.34-2.821-0.426
		c-1.106-0.258-2.218-0.344-3.324-0.43h-0.258c-1.794-0.168-3.582-0.254-5.547-0.254c-6.996,0-14.848,1.109-23.894,3.839
		c-0.168,0-0.426,0.086-0.68,0.172v-6.914c0-6.313,3.414-12.286,9.129-14.934c4.778-2.219,7.766-5.547,7.766-9.473
		c0-3.238-2.218-6.313-5.886-8.446c-7.254-4.355-11.008-12.715-11.008-21.078v-7.168h10.578c3.5,0,7,0.34,10.328,1.11
		c24.234,5.035,42.578,27.562,42.578,54.442v14.422l-4.352,3.414c-1.023-0.512-2.133-1.11-3.242-1.621
		c-1.11-0.598-2.301-1.11-3.497-1.622c-1.367-0.598-2.73-1.195-4.183-1.707c-1.278-0.511-2.645-1.023-4.094-1.449
		C303.365,207.444,303.278,207.444,303.107,207.358z M301.4,123.901c0,0-0.512,1.622-1.961,1.454
		c-0.938-0.172-0.512-0.855-7.852-9.558c-3.328-3.926-8.957-7.512-8.957-8.278c0.598-2.051,5.546-2.817,9.984-0.086
		C297.646,110.421,302.513,119.034,301.4,123.901z M219.396,107.432c4.438-2.73,9.386-1.965,9.984,0.086
		c0,0.766-5.633,4.351-8.961,8.278c-7.336,8.703-6.91,9.386-7.852,9.558c-1.534,0.168-1.961-1.454-1.961-1.454
		C209.498,119.034,214.361,110.421,219.396,107.432z M252.568,208.034c-0.246-0.082-0.493-0.164-0.661-0.25
		c-10.668-3.754-20.308-4.691-28.843-3.926c-0.938,0.086-1.875,0.172-2.817,0.34h-0.254c-1.11,0.09-2.219,0.258-3.242,0.515
		c-0.258,0.082-0.598,0.082-0.855,0.168c-1.622,0.258-3.157,0.598-4.606,1.028c-0.344,0.086-0.684,0.167-1.027,0.254
		c-1.11,0.34-2.219,0.683-3.325,1.023c-3.672,1.195-7,2.562-10.07,4.012c-1.367,0.683-2.73,1.363-4.011,1.961
		c-0.086,0-0.172,0.086-0.258,0.086l-3.496-2.73v-14.422c0-26.879,18.348-49.406,42.582-54.442c3.328-0.77,6.828-1.11,10.41-1.11
		h10.496v7.168c0,8.363-3.84,16.723-11.008,21.078c-3.672,2.133-5.89,5.207-5.89,8.446c0,3.926,2.988,7.254,7.766,9.473
		c5.718,2.648,9.133,8.621,9.133,14.934v6.394H252.568z M230.876,227.585c1.719,0.207,3.473,0.504,5.254,0.926
		c0.011,0.003,0.019,0.007,0.031,0.007c1.836,0.438,3.703,1,5.59,1.707l5.844,2.027l2.714,1.02
		c-31.801,27.633-57.293,59.282-69.996,107.035c-1.672,6.187-2.977,12.321-4.11,18.45c-0.445,2.183-0.922,4.382-1.332,6.542
		c-4.031-26.75-4.262-40.254,0.149-83.871l1.453-14.847l0.512-3.586c0.851-6.23,1.793-11.863,2.73-17.066
		c1.195-6.316,2.558-3.926,4.351-10.238c0.172-0.77,0.34-1.535,0.598-2.218c6.699,1.328,13.696,0.828,19.981-1.856
		c6.062-2.59,15.141-5.183,25.578-4.09C230.442,227.55,230.662,227.562,230.876,227.585z" ></path>
</g>
</svg>
