<svg version="1.1" id="_x31_0" xmlns="http://www.w3.org/2000/svg" xmlns:xlink="http://www.w3.org/1999/xlink" x="0px" y="0px"
	 viewBox="0 0 512 512" xml:space="preserve">
<g>
	<path class="st0" d="M399.947,207.465c-5.25,0-10.438,0.886-15.356,2.535c-0.082,0.023-0.168,0.031-0.254,0.058
		c-4.351-21.5-23.785-37.758-47.031-37.758c-5.254,0-10.442,0.886-15.355,2.535c-0.082,0.023-0.168,0.031-0.254,0.058
		c-4.355-21.5-23.789-37.758-47.031-37.758c-4.531,0-8.984,0.73-13.281,1.957c-0.481,0.122-0.962,0.176-1.442,0.309V46.886
		C259.943,21.035,238.435,0,211.994,0c-26.434,0-47.941,21.035-47.941,46.886V151.77L163.916,241
		c-1.141-1.867-2.329-3.789-3.562-5.766c-15.438-24.641-41.024-33.383-58.25-33.383c-4.981,0-9.414,0.684-13.172,2.032
		c-10.473,3.742-18.046,10.445-21.91,19.382c-4.793,11.086-3.667,24.91,3.348,41.094c3.766,9.84,65.242,169.051,112.5,207.699
		c5.672,4.637,11.539,9.438,18.258,13.703C228.049,502.926,260.275,512,294.322,512c32.809,0,63.93-8.426,90.234-24.402h1.57
		l2.922-1.91c6.48-4.238,12.594-8.961,18.14-14.011c9.86-8.93,18.168-19.047,24.719-30.11c3.398-5.778,6.297-11.809,8.625-17.922
		c2.39-6.278,4.222-12.754,5.446-19.258c0.809-4.304,1.359-8.602,1.648-12.804c0.11-1.653,0.188-3.329,0.234-5
		c0.031-0.922,0.031-1.821,0.031-2.715V254.348C447.892,228.496,426.4,207.465,399.947,207.465z M424.454,383.867
		c0,0.652,0,1.301-0.023,1.981c-0.043,1.414-0.11,2.832-0.195,4.183c-0.218,3.25-0.656,6.621-1.297,10.023
		c-0.969,5.137-2.414,10.27-4.313,15.25c-1.867,4.894-4.195,9.73-6.91,14.347c-5.332,9.008-12.149,17.298-20.294,24.668
		c-3.828,3.497-7.984,6.794-12.367,9.836h-1.266l-2.882,1.84c-23.149,14.762-51.016,22.562-80.586,22.562
		c-29.57,0-57.437-7.801-80.609-22.578c-5.555-3.524-10.867-7.871-16.008-12.07c-35.621-29.133-88.258-152.926-105.531-198.164
		l-0.211-0.508c-4.281-9.817-5.5-17.867-3.422-22.672c0.461-1.066,1.863-4.316,8.285-6.61c0.434-0.156,2.09-0.664,5.278-0.664
		c11.234,0,28.031,5.863,38.383,22.383c17.273,27.582,24.422,44.27,24.488,44.422l14.738,34.946c1.718,4.066,7.781,2.84,7.781-1.574
		V46.886c0-12.926,10.993-23.441,24.5-23.441c13.516,0,24.508,10.515,24.508,23.441V179.16c0,0.598,0.27,1.051,0.481,1.539
		c0.015,0.039,0.019,0.086,0.035,0.121c0.902,1.91,3.054,2.738,5.015,1.934c0.054-0.023,0.102-0.058,0.16-0.086
		c0.438-0.207,0.902-0.313,1.278-0.703l12.602-13.125c3.778-3.938,8.61-6.914,13.984-7.856c15.531-2.722,29.11,8.668,29.11,23.039
		v30.301c0,0.598,0.274,1.051,0.485,1.535c0.015,0.043,0.019,0.086,0.038,0.125c0.898,1.906,3.047,2.738,5.008,1.938
		c0.058-0.027,0.11-0.066,0.168-0.094c0.434-0.203,0.898-0.312,1.27-0.699l12.633-13.16c3.774-3.93,8.602-6.894,13.969-7.828
		c15.512-2.699,29.07,8.687,29.07,23.042v30.298c0,0.598,0.274,1.046,0.481,1.535c0.019,0.038,0.023,0.09,0.042,0.129
		c0.902,1.906,3.047,2.734,5.008,1.934c0.058-0.028,0.106-0.066,0.164-0.094c0.438-0.202,0.902-0.312,1.274-0.699l12.586-13.102
		c3.782-3.941,8.61-6.922,13.985-7.866c15.523-2.738,29.109,8.656,29.109,23.031V383.867z" ></path>
	<path class="st0" d="M307.717,291.649c-0.481-2.989-2.426-5.485-5.082-6.106c-3.5-0.821-6.89,1.922-7.554,6.106
		c0,0-0.738,4.625-1.336,11.515c-0.57,6.84-0.906,15.871-0.848,24.82c0.051,8.852,0.512,17.622,1.106,24.137
		c0.625,6.469,1.328,10.754,1.328,10.754c0.461,2.801,2.375,5.129,4.958,5.675c3.339,0.703,6.55-1.835,7.179-5.675
		c0,0,0.699-4.286,1.324-10.754c0.598-6.515,1.059-15.285,1.11-24.137c0.054-8.949-0.274-17.98-0.851-24.82
		C308.454,296.274,307.717,291.649,307.717,291.649z" ></path>
	<path class="st0" d="M246.47,303.164c-0.836-6.89-1.734-11.515-1.734-11.515c-0.586-2.989-2.617-5.485-5.297-6.106
		c-3.531-0.821-6.82,1.922-7.344,6.106c0,0-0.578,4.625-0.93,11.515c-0.332,6.84-0.351,15.871,0.023,24.82
		c0.36,8.852,1.126,17.622,1.954,24.137c0.851,6.469,1.703,10.754,1.703,10.754c0.562,2.801,2.554,5.129,5.152,5.675
		c3.363,0.703,6.489-1.835,6.981-5.675c0,0,0.554-4.286,0.953-10.754c0.367-6.515,0.52-15.285,0.258-24.137
		C247.931,319.035,247.283,310.004,246.47,303.164z" ></path>
	<path class="st0" d="M370.701,291.649c-0.375-2.989-2.234-5.485-4.867-6.106c-3.473-0.821-6.957,1.922-7.77,6.106
		c0,0-0.898,4.625-1.738,11.515c-0.808,6.84-1.465,15.871-1.722,24.82c-0.258,8.852-0.102,17.622,0.266,24.137
		c0.398,6.469,0.946,10.754,0.946,10.754c0.367,2.801,2.203,5.129,4.758,5.675c3.316,0.703,6.617-1.835,7.382-5.675
		c0,0,0.852-4.286,1.703-10.754c0.825-6.515,1.594-15.285,1.954-24.137c0.367-8.949,0.351-17.98,0.015-24.82
		C371.275,296.274,370.701,291.649,370.701,291.649z" ></path>
</g>
</svg>
