<svg version="1.1" id="_x31_0" xmlns="http://www.w3.org/2000/svg" xmlns:xlink="http://www.w3.org/1999/xlink" x="0px" y="0px"
	 viewBox="0 0 512 512" xml:space="preserve">
<g>
	<path class="st0" d="M411.806,224.519c-8.632,0-16.655,3.399-22.59,9.579l-8.386,8.738l-5.994,6.062v-32.741
		c0-16.376-13.84-29.692-30.851-29.692c-8.615,0-16.63,3.398-22.557,9.579l-8.386,8.742l-5.994,6.066v-32.749
		c0-16.377-13.84-29.693-30.851-29.693c-8.632,0-16.655,3.399-22.582,9.579l-8.391,8.746l-5.998,6.066V29.701
		C239.224,13.324,225.392,0,208.382,0c-17.01,0-30.842,13.324-30.842,29.701v157.133l-0.156,144.23l-15.882-37.64
		c-0.076-0.169-7.838-18.397-26.843-48.732c-12.141-19.378-31.942-26.251-45.206-26.251c-3.864,0-6.138,0.6-7.161,0.972
		c-8.734,3.12-10.814,7.93-11.49,9.511c-3.5,8.083,0.094,19.682,3.864,28.349c18.803,49.247,76.218,184.114,115.514,216.25
		c5.648,4.625,11.49,9.402,17.73,13.366c25.77,16.427,56.738,25.11,89.559,25.11c32.829,0,63.79-8.674,89.534-25.102l2.054-1.31
		h1.463l1.107-0.77c4.878-3.373,9.537-7.076,13.84-10.99c9.131-8.269,16.791-17.586,22.777-27.706
		c3.069-5.208,5.69-10.653,7.786-16.182c2.156-5.639,3.796-11.439,4.878-17.247c0.718-3.83,1.218-7.643,1.48-11.371
		c0.093-1.514,0.169-3.103,0.211-4.658l0.026-142.451C442.624,237.835,428.801,224.519,411.806,224.519z" ></path>
</g>
</svg>
