<svg version="1.1" id="_x31_0" xmlns="http://www.w3.org/2000/svg" xmlns:xlink="http://www.w3.org/1999/xlink" x="0px" y="0px"
	 viewBox="0 0 512 512" xml:space="preserve">
<g>
	<path class="st0" d="M389.965,358.86c-33.953,35.715-79.687,56.078-128.832,57.355c-1.598,0.055-3.145,0.055-4.742,0.055
		c-48.187,0-93.812-18.551-128.406-52.294c-14.5-14.07-26.386-30.164-35.394-47.598l0.961,36.887
		c2.293,89.816,77.234,160.973,167.051,158.68c89.813-2.29,161.028-77.234,158.734-167.051l-0.64-25.637
		C411.075,333.489,401.427,346.813,389.965,358.86z" ></path>
	<path class="st0" d="M94.235,236.125c2.32,88.438,74.906,158.805,162.859,158.805h4.254
		c79.16-2.031,143.918-60.508,156.481-135.997c1.742-10.05,2.515-20.484,2.226-31.117l-2.614-81.188
		c-1.062-45.14-16.914-82.644-45.523-108.449C344.856,13.824,306.871,0.68,261.446,0v94.918
		c10.824,2.027,18.945,9.953,18.945,19.332v61.855c0,10.918-10.922,19.817-24.359,19.817c-13.434,0-24.453-8.898-24.453-19.817
		V114.25c0-9.379,8.121-17.305,18.945-19.332V0c-56.058,1.355-92.594,13.051-118.496,37.793
		c-28.898,27.45-41.562,68.528-40.016,129.227l1.836,53.546L94.235,236.125z" ></path>
</g>
</svg>
