<svg version="1.1" id="_x31_0" xmlns="http://www.w3.org/2000/svg" xmlns:xlink="http://www.w3.org/1999/xlink" x="0px" y="0px"
	 viewBox="0 0 512 512" xml:space="preserve">
<g>
	<path class="st0" d="M292.461,49.351L256.129,0.094l-0.027,0.039L256,0L96,216.558V512h320V216.558L292.461,49.351z
		 M379.519,228.558v16.402c-1.199,0.797-2.32,1.758-3.277,2.879l-29.282,33.359c-8.32,9.519-24,9.519-32.32,0l-42.481-48.32
		c-8.32-9.52-24-9.52-32.32,0l-42.481,48.32c-8.32,9.519-24,9.519-32.32,0c0,0-31.359-35.442-32.558-36.238v-16.402l91.199-123.359
		h64.64L379.519,228.558z" ></path>
</g>
</svg>
