<svg version="1.1" id="_x31_0" xmlns="http://www.w3.org/2000/svg" xmlns:xlink="http://www.w3.org/1999/xlink" x="0px" y="0px"
	 viewBox="0 0 512 512" xml:space="preserve">
<g>
	<path class="st0" d="M508.956,360.724c-2.239-4.56-5.599-10.64-9.921-15.922c-2.001-2.88-4.322-5.443-6.482-7.764
		c-2.243-2.322-4.162-4.721-6.162-6.401c-3.763-3.521-6.24-5.924-6.24-5.924s-0.723-0.477-1.762-1.278
		c-1.039-0.722-2.482-1.68-3.923-2.559c-2.88-1.922-5.682-3.845-5.682-3.845l0.938-1.513l0.024-0.027h-0.004l0.086-0.141
		c0,0-9.526-5.599-19.369-10.323c-4.881-2.478-9.761-4.72-13.524-6.24c-3.759-1.681-6.24-2.72-6.24-2.72l0.492-1.199l0.008-0.016
		l0,0l0.058-0.148c0,0-2.481-0.958-6.24-2.478c-3.842-1.524-8.882-3.525-14.005-5.283c-5.122-1.922-10.245-3.602-14.086-4.802
		c-3.841-1.278-6.4-2.078-6.4-2.078l0.414-1.18l0.016-0.027l-0.004-0.004l0.055-0.153c0,0-12.246-3.919-24.649-6.959
		c-2.082-0.554-4.021-0.992-6.033-1.489c-1.684-0.453-3.442-0.89-5.049-1.383c3.525-0.789,7.256-1.715,11.082-2.731
		c11.957-2.93,23.66-6.572,24.488-6.834c0.004,0.004,0.004,0.004,0.004,0.004v-0.004c0.031-0.007,0.157-0.046,0.157-0.046
		l-0.481-1.442c0,0,2.559-0.802,6.4-2.079c3.842-1.199,8.964-2.88,14.086-4.802c5.123-1.762,10.163-3.762,14.005-5.282
		c3.759-1.52,6.24-2.482,6.24-2.482l-0.558-1.36c0,0,2.481-1.039,6.24-2.719c3.763-1.52,8.643-3.763,13.524-6.241
		c9.448-4.532,18.506-9.819,19.228-10.245h0.004h-0.004c0.032-0.016,0.141-0.078,0.141-0.078l-1.043-1.68
		c0,0,2.802-1.922,5.682-3.763c1.442-0.961,2.884-1.922,3.923-2.642c1.039-0.801,1.762-1.282,1.762-1.282s2.477-2.399,6.24-5.92
		c2.001-1.68,3.919-4.083,6.162-6.4c2.161-2.321,4.482-4.884,6.482-7.764c4.322-5.283,7.682-11.363,9.921-15.845
		c1.344-3.33,2.306-5.775,2.77-6.975c0.008-0.019,0.023-0.054,0.035-0.074l-0.015,0.028c0.101-0.27,0.206-0.543,0.254-0.661
		c-0.402,0.559-2.082,3.118-4.564,6.721c-3.04,3.923-7.362,8.882-12.484,12.965c-2.399,2.239-5.041,4.162-7.522,5.92
		c-2.559,1.762-4.72,3.521-6.881,4.724c-4.162,2.56-6.963,4.24-6.963,4.24s-0.641,0.481-1.598,1.199
		c-1.043,0.723-2.403,1.602-3.762,2.482c-2.72,1.84-5.443,3.602-5.443,3.602l-0.906-1.465c-0.008-0.02-0.039-0.086-0.039-0.086
		l-0.008,0.008l-0.086-0.137c0,0-8.562,5.92-17.686,11.042c-4.482,2.642-9.124,5.123-12.645,6.882
		c-3.438,1.84-5.842,3.04-5.842,3.04l-0.481-1.098l-0.011-0.035h-0.004l-0.062-0.145c0,0-2.403,1.122-5.924,2.802
		c-3.521,1.681-8.241,4.002-13.121,6.002c-4.802,2.161-9.687,4.239-13.368,5.599c-3.681,1.52-6.162,2.482-6.162,2.482l-0.325-1.11
		l-0.015-0.102l-0.012,0.004l-0.047-0.152c0,0-11.605,4.56-23.449,8.322c-11.843,4.002-23.925,7.284-23.925,7.284l-0.266-1.395
		c-0.004-0.05-0.012-0.133-0.012-0.133l-0.012,0.004l-0.031-0.156c0,0-4.4,1.199-10.644,2.798c-0.57-0.125-1.18-0.207-1.77-0.313
		l-0.333-0.149c4.525-1.832,9.433-4.282,14.509-6.658c3.598-1.845,6.959-4.244,10.242-6.245c3.282-1.918,6.24-3.919,8.561-5.919
		c3.529-2.822,6.162-4.928,7.327-5.862l0.558-0.434l-0.008-0.008c0.02-0.015,0.126-0.102,0.126-0.102l-1.118-1.199
		c0,0,0.718-0.559,1.84-1.52c1.118-1.122,2.638-2.642,4.482-4.482l6.318-6.322c2.243-2.399,4.322-5.201,6.565-7.92
		c4.56-5.283,8.241-11.206,11.125-15.606c1.36-2.243,2.559-4.079,3.438-5.361c0.539-1.146,0.848-1.77,0.95-1.978l0.023-0.039h-0.004
		c0.012-0.027,0.07-0.145,0.07-0.145l-1.199-0.558c0,0,1.36-2.642,3.36-6.565c1.043-1.918,2.243-4.239,3.521-6.642
		c1.043-2.559,2.083-5.279,3.204-8.002c1.118-2.72,2.239-5.439,3.278-8.002c0.802-2.642,1.52-5.119,2.243-7.202
		c1.278-4.24,2.078-7.042,2.078-7.042l-1.278-0.32c0,0,0.958-2.802,1.758-7.123c0.879-4.24,2.243-10.003,3.2-15.763
		c0.723-5.763,1.442-11.605,1.923-16.005c0.398-4.322,0.398-7.283,0.398-7.283l-1.919-0.078c0,0,0.078-3.603,0.078-7.284v-4.962
		c0.082-1.359-0.078-2.321-0.078-2.321s-0.641-3.602-1.52-8.964c-0.48-2.641-1.043-5.759-1.602-9.12
		c-0.879-3.282-1.762-6.802-2.642-10.323c-1.598-6.963-4.001-13.766-5.842-18.806c-0.594-1.704-1.09-3.118-1.536-4.373l-1.266-4.056
		l0.129,0.836c-0.176-0.492-0.289-0.813-0.289-0.813s0.562,3.525,1.363,8.804c0.879,5.282,2.001,12.246,2.239,19.287
		c0.238,3.521,0.481,7.041,0.641,10.323c0,3.282-0.082,6.322-0.082,8.964c-0.078,5.201-0.16,8.722-0.16,8.722
		s0.16,0.879,0.082,2.161v4.802c0,3.438-0.082,6.881-0.082,6.881h-1.59l-0.09-0.008v0.008h-0.16c0,0,0.16,2.719,0.082,6.881
		c-0.242,4.083-0.641,9.605-0.961,15.126c-0.559,5.442-1.52,10.882-2.079,14.966c-0.481,4.079-1.282,6.721-1.282,6.721l-1.199-0.282
		h-0.008l0,0l-0.153-0.039c0,0-0.641,2.72-1.602,6.643c-0.481,2-1.039,4.399-1.598,6.881c-0.883,2.403-1.762,5.045-2.642,7.604
		c-0.882,2.642-1.68,5.201-2.563,7.682c-1.039,2.322-2.001,4.482-2.798,6.401c-1.383,3.09-2.345,5.232-2.661,5.928l-0.149,0.312
		l-0.981-0.523l-0.066-0.047l-0.004,0.008l-0.141-0.074c0,0-0.32,0.719-0.961,2.082c-0.641,1.2-1.602,2.958-2.802,5.041
		c-2.399,4.24-5.443,9.922-9.362,14.966c-1.922,2.638-3.681,5.362-5.603,7.682c-2.001,2.239-3.841,4.4-5.439,6.158
		c-1.602,1.844-2.962,3.364-3.923,4.403c-1.039,0.962-1.602,1.52-1.602,1.52l-1.118-1.199c0,0-2.723,2.481-6.802,6.24
		c-2.001,2.001-4.642,3.923-7.444,5.842c-2.88,2.001-5.842,4.322-8.96,6.244c-5.767,3.095-11.366,6.409-16.29,8.327
		c-0.63,0.215-1.262,0.442-1.876,0.598c6.694-7.307,10.64-15.149,10.64-21.971c0-11.043-5.118-32.089-19.205-48.332
		c0.562-0.961,0.882-1.602,0.882-1.602l-1.363-0.641c0,0,0.641-1.122,1.602-2.802c0.962-1.758,2.239-4.001,3.361-6.4
		c2.403-4.642,4.404-9.522,4.404-9.522l-1.442-0.481c0,0,2.161-4.802,3.842-9.925c0.961-2.478,1.52-5.119,2.078-7.12
		c0.562-2,0.883-3.282,0.883-3.282l-2.082-0.321l0.641-6.803c0,0,0-0.398-0.078-1.199c-0.242-0.719-0.481-1.841-0.801-3.122
		c-0.321-1.278-0.641-2.798-1.04-4.318c-0.641-1.524-1.282-3.204-2-4.802c-0.481-1.602-1.762-3.044-2.642-4.403
		c-0.883-1.36-1.68-2.482-2.802-3.278c-1.841-1.602-3.122-2.642-3.122-2.642s0.641,1.438,1.602,3.681
		c0.558,0.962,0.801,2.321,0.961,3.681c0.157,1.442,0.559,2.802,0.317,4.322c-0.078,1.442-0.16,2.88-0.238,4.24
		c-0.321,1.359-0.559,2.641-0.801,3.681c-0.238,1.043-0.481,1.922-0.641,2.563c-0.161,0.641-0.321,0.961-0.321,0.961l-0.543,5.623
		l-0.019,0.137l-1.782-0.274l-0.133-0.035l-0.003,0.012l-0.157-0.024c0,0-0.082,1.122-0.32,2.802
		c-0.161,1.762-0.321,4.08-0.802,6.401c-0.801,4.642-2.082,9.284-2.082,9.284l-1.192-0.398l-0.094-0.043v0.012l-0.152-0.051
		c0,0-1.122,4.564-2.642,9.202c-0.719,2.321-1.52,4.564-2.243,6.244c-0.015,0.035-0.023,0.07-0.035,0.106
		c-0.054,0.118-0.094,0.234-0.152,0.352c-2.556-1.911-5.424-3.506-8.374-5.022c0.16-1.039,0.242-2.001,0.242-3.04
		c0-7.6-4.802-13.844-10.726-13.844c-4.962,0-9.12,4.482-10.324,10.402c-3.438-0.477-7.041-0.797-10.882-0.797
		c-3.763,0-7.362,0.32-10.805,0.797c-1.199-5.92-5.361-10.402-10.323-10.402c-5.92,0-10.722,6.244-10.722,13.844
		c0,1.039,0.078,2.001,0.238,3.04c-1.614,0.833-3.188,1.7-4.716,2.614c-1.274,0.649-2.583,1.305-3.931,1.934
		c-0.641-1.681-1.438-3.912-2.153-6.229c-1.602-4.638-2.642-9.202-2.642-9.202l-1.442,0.481c0,0-1.282-4.642-2.079-9.284
		c-0.48-2.321-0.641-4.638-0.883-6.401c-0.16-1.68-0.32-2.802-0.32-2.802l-2.001,0.321l-0.558-5.76c0,0-0.161-0.32-0.399-0.961
		c-0.082-0.641-0.32-1.52-0.562-2.563c-0.238-1.04-0.481-2.322-0.797-3.681c-0.082-1.36-0.161-2.798-0.321-4.24
		c-0.242-1.52,0.238-2.88,0.398-4.322c0.161-1.36,0.321-2.719,0.879-3.681c0.305-0.711,0.563-1.305,0.794-1.837l0.914-1.723
		l-0.258,0.223c0.094-0.211,0.153-0.344,0.153-0.344s-1.2,1.039-3.04,2.642c-1.122,0.797-2.001,1.918-2.884,3.278
		c-0.797,1.359-2.078,2.802-2.559,4.403c-0.719,1.598-1.36,3.278-2.001,4.802c-0.398,1.52-0.801,3.04-1.122,4.318
		c-0.238,1.282-0.558,2.403-0.718,3.122c-0.078,0.801-0.16,1.199-0.16,1.199l0.718,6.803l-1.762,0.274l-0.16,0.008l0.004,0.015
		l-0.16,0.024c0,0,0.32,1.282,0.879,3.282c0.562,2.001,1.122,4.642,2.082,7.12c1.68,5.122,3.759,9.925,3.759,9.925l-1.153,0.406
		l-0.058,0.015l0.004,0.004l-0.153,0.055c0,0,2.001,4.88,4.4,9.522c1.122,2.399,2.403,4.642,3.364,6.4
		c0.906,1.59,1.485,2.606,1.551,2.72l0.043,0.086l-1.18,0.555l-0.035,0.012l0.004,0.004l-0.145,0.066c0,0,0.321,0.641,0.879,1.602
		c-14.082,16.243-19.205,37.289-19.205,48.332c0,5.564,2.711,11.796,7.264,17.873c1.004,1.398,2.024,2.798,3.223,4.204
		c-5.24-1.719-11.542-5.56-18.01-9.03c-3.2-1.922-6.08-4.243-8.963-6.244c-2.88-1.918-5.439-3.841-7.44-5.842
		c-4.083-3.759-6.803-6.24-6.803-6.24l-1.122,1.199c0,0-0.641-0.558-1.68-1.52c-0.879-1.039-2.239-2.559-3.841-4.403
		c-1.602-1.758-3.442-3.919-5.443-6.158c-2.001-2.321-3.681-5.045-5.599-7.682c-3.923-5.044-6.963-10.726-9.362-14.966
		c-1.204-2.082-2.161-3.841-2.884-5.041c-0.414-1.004-0.637-1.527-0.758-1.805l-0.047-0.137l-0.012,0.004
		c-0.011-0.023-0.062-0.145-0.062-0.145l-1.199,0.641c0,0-1.122-2.481-2.802-6.244c-0.802-1.918-1.762-4.079-2.88-6.401
		c-0.801-2.481-1.68-5.04-2.563-7.682c-0.879-2.559-1.681-5.201-2.56-7.604c-0.558-2.482-1.121-4.881-1.602-6.881
		c-0.958-3.923-1.598-6.643-1.598-6.643l-1.36,0.321c0,0-0.801-2.642-1.282-6.721c-0.558-4.084-1.52-9.523-2.161-14.966
		c-0.32-5.522-0.641-11.043-0.879-15.126c-0.082-4.162,0.078-6.881,0.078-6.881h-1.918c0,0,0-3.442,0-6.881
		c0-1.762,0-3.521-0.082-4.802c0-1.282,0.161-2.161,0.161-2.161s-0.078-3.521-0.161-8.722c-0.078-2.642-0.078-5.682-0.16-8.964
		c0.242-3.282,0.481-6.802,0.723-10.323c0.238-7.042,1.359-14.005,2.238-19.287c0.246-1.63,0.458-3.009,0.653-4.251l0.86-4.498
		l-0.29,0.817c0.082-0.524,0.137-0.872,0.137-0.872s-1.199,3.365-2.962,8.406c-1.841,5.04-4.24,11.843-5.842,18.806
		c-0.879,3.521-1.841,7.041-2.638,10.323c-0.641,3.361-1.122,6.479-1.602,9.12c-0.961,5.362-1.52,8.964-1.52,8.964
		s-0.16,0.962-0.16,2.321c0.078,1.36,0.078,3.122,0.078,4.962c0,3.681,0,7.284,0,7.284l-1.841,0.078c0,0,0,2.962,0.402,7.283
		c0.481,4.4,1.2,10.242,1.918,16.005c0.962,5.76,2.322,11.523,3.201,15.763c0.722,4.322,1.762,7.123,1.762,7.123l-1.09,0.274
		l-0.035,0.004v0.003l-0.157,0.039c0,0,0.802,2.802,2.083,7.042c0.641,2.082,1.438,4.56,2.239,7.202
		c1.039,2.563,2.161,5.282,3.282,8.002c1.04,2.723,2.161,5.443,3.201,8.002c1.282,2.403,2.481,4.724,3.442,6.642
		c2.078,3.923,3.438,6.565,3.438,6.565l-1.078,0.469l-0.058,0.02l0.003,0.007l-0.144,0.062c0,0,0.398,0.802,1.118,2.162
		c0.883,1.282,2,3.118,3.442,5.361c2.88,4.4,6.561,10.323,11.125,15.606c2.238,2.719,4.322,5.521,6.56,7.92l6.322,6.322
		c1.841,1.841,3.361,3.361,4.4,4.482c1.18,0.942,1.875,1.485,1.903,1.504l0.019,0.02l-0.938,1.004l-0.086,0.066l0.012,0.008
		l-0.11,0.117c0,0,3.201,2.563,8.002,6.405c2.243,2,5.283,4.001,8.566,5.919c3.278,2.001,6.638,4.4,10.242,6.245
		c3.872,1.813,7.588,3.586,11.175,5.185c1.07,0.52,2.231,1.063,3.258,1.574c-0.664,0.134-1.379,0.215-2.031,0.36
		c-6.241-1.598-10.64-2.798-10.64-2.798l-0.403,1.68c0,0-12.003-3.282-23.847-7.284c-11.312-3.594-22.292-7.87-23.261-8.248
		c0-0.004-0.035-0.02-0.035-0.02v0.004c-0.031-0.012-0.149-0.058-0.149-0.058l-0.48,1.36c0,0-2.403-0.962-6.084-2.482
		c-3.681-1.36-8.562-3.438-13.364-5.599c-4.88-2.001-9.605-4.322-13.125-6.002c-3.599-1.68-5.92-2.802-5.92-2.802l-0.641,1.278
		c0,0-2.321-1.2-5.764-3.04c-3.52-1.758-8.162-4.24-12.64-6.882c-8.616-4.834-16.634-10.319-17.518-10.925l-0.035-0.031
		l-0.004,0.003c-0.031-0.023-0.133-0.09-0.133-0.09l-1.039,1.68c0,0-2.72-1.762-5.439-3.602c-1.364-0.879-2.723-1.758-3.763-2.482
		c-0.961-0.718-1.602-1.199-1.602-1.199s-2.798-1.68-6.959-4.24c-2.161-1.203-4.404-2.962-6.885-4.724
		c-2.482-1.758-5.202-3.681-7.522-5.92c-5.118-4.083-9.44-9.042-12.562-12.965c-1.91-2.868-3.384-5.021-4.118-6.084
		c-0.008-0.015-0.031-0.05-0.039-0.066l0.008,0.02c-0.168-0.242-0.336-0.485-0.41-0.59c0.238,0.641,1.438,3.521,3.118,7.682
		c2.242,4.482,5.603,10.562,9.925,15.845c2.001,2.88,4.322,5.443,6.482,7.764c2.239,2.317,4.162,4.72,6.08,6.4
		c3.763,3.521,6.322,5.92,6.322,5.92s0.719,0.481,1.762,1.282c1.039,0.719,2.477,1.681,3.919,2.642
		c2.802,1.841,5.682,3.763,5.682,3.763l-0.942,1.52l-0.015,0.019l0.004,0.004l-0.086,0.137c0,0,9.445,5.599,19.287,10.323
		c4.881,2.478,9.843,4.721,13.602,6.241c3.762,1.68,6.244,2.719,6.244,2.719l-0.531,1.126l-0.055,0.086l0.012,0.004l-0.066,0.145
		c0,0,2.559,0.962,6.322,2.482c3.841,1.52,8.882,3.52,14.004,5.282c5.041,1.922,10.164,3.603,14.083,4.802
		c3.841,1.278,6.404,2.079,6.404,2.079l-0.426,1.27l-0.008,0.019h0.004l-0.051,0.153c0,0,12.242,3.841,24.649,6.881
		c2.872,0.762,5.658,1.458,8.354,2.102c0.887,0.254,1.798,0.5,2.65,0.766c-3.446,0.79-7.182,1.719-11.003,2.735
		c-11.957,2.931-23.652,6.643-24.489,6.913c-0.003-0.004-0.011,0-0.011,0l0,0c-0.027,0.007-0.149,0.046-0.149,0.046l0.481,1.364
		c0,0-2.563,0.801-6.404,2.078c-3.919,1.2-9.042,2.88-14.083,4.802c-5.122,1.758-10.163,3.759-14.004,5.283
		c-3.763,1.52-6.322,2.478-6.322,2.478l0.641,1.363c0,0-2.482,1.039-6.244,2.72c-3.759,1.52-8.722,3.762-13.602,6.24
		c-9.444,4.533-18.427,9.815-19.15,10.246l0,0l0,0c-0.031,0.015-0.137,0.078-0.137,0.078l1.04,1.681c0,0-2.88,1.922-5.682,3.845
		c-1.442,0.879-2.88,1.837-3.919,2.559c-1.043,0.801-1.762,1.278-1.762,1.278s-2.559,2.403-6.322,5.924
		c-1.918,1.68-3.841,4.079-6.08,6.401c-2.161,2.321-4.482,4.884-6.482,7.764c-4.322,5.282-7.682,11.362-9.925,15.922
		c-1.681,4.084-2.88,6.963-3.118,7.604c0.398-0.558,2.157-3.122,4.56-6.721c3.122-3.923,7.444-8.886,12.562-12.965
		c2.321-2.239,5.041-4.162,7.522-5.924c2.481-1.758,4.724-3.52,6.885-4.72c4.162-2.559,6.959-4.239,6.959-4.239
		s0.641-0.481,1.602-1.2c1.04-0.641,2.399-1.602,3.763-2.482c2.719-1.84,5.439-3.602,5.439-3.602l0.906,1.466
		c0.012,0.019,0.043,0.086,0.043,0.086l0.008-0.008l0.082,0.137c0,0,8.566-5.919,17.69-11.042c4.478-2.642,9.12-5.122,12.64-6.881
		c3.443-1.841,5.764-3.044,5.764-3.044l0.641,1.282c0,0,2.321-1.122,5.92-2.802c3.52-1.68,8.245-4.002,13.125-6.002
		c4.802-2.161,9.683-4.24,13.364-5.6c3.298-1.363,5.466-2.234,5.904-2.41l0.18-0.066l0.41,1.16l0.012,0.047h0.004l0.054,0.149
		c0,0,11.602-4.482,23.445-8.323c11.844-4.002,23.847-7.283,23.847-7.283l0.242,0.961c-1.122,0.481-2.242,1.039-3.364,1.52
		c-6.799,3.282-13.364,7.284-18.244,10.246c-3.654,2.54-6.303,4.372-7.334,5.091l-0.379,0.25l0.004,0.008
		c-0.023,0.015-0.133,0.09-0.133,0.09l1.055,1.356l0.058,0.094c-0.015,0.004-0.723,0.398-1.833,1.274
		c-1.203,0.798-2.883,1.918-4.724,3.521c-3.598,3.278-9.042,7.123-13.442,11.922c-4.642,4.642-9.362,9.206-12.324,13.126
		c-3.122,3.841-5.283,6.322-5.283,6.322l1.254,0.863l0.023,0.019c-0.004,0.008-1.84,2.083-4.079,5.518
		c-2.321,3.442-5.759,7.842-8.483,12.645c-2.719,4.802-5.682,9.444-7.522,13.203c-1.555,3.255-2.622,5.462-2.861,5.959l-0.031,0.058
		v0.004c-0.011,0.031-0.066,0.141-0.066,0.141l1.36,0.641c0,0-1.199,2.481-2.962,6.244c-1.602,3.759-3.521,8.882-5.522,14.004
		c-2.001,5.201-3.282,10.562-4.564,14.486c-1.278,3.919-1.84,6.638-1.84,6.638l2.001,0.402l-2.399,13.524
		c0,0-0.161,0.879-0.161,2.321v6.24c0,5.123,0,11.926,0.719,18.725c0.242,3.365,0.481,6.725,0.801,9.847
		c0.481,3.118,0.962,6.002,1.36,8.561c0.723,4.962,1.282,8.241,1.282,8.241s0.16-3.36,0.481-8.322
		c0.16-2.478,0.398-5.439,0.558-8.479c0.402-3.122,0.883-6.405,1.36-9.683c0.723-6.564,2.161-12.965,3.282-17.767
		c0.481-2.403,0.962-4.403,1.199-5.763c0.321-1.438,0.642-2.161,0.642-2.161l2.317-12.782l0.004-0.019l1.778,0.355l0.062,0.016
		l0.004-0.004l0.157,0.031c0,0,0.398-2.559,1.282-6.24c0.961-3.763,1.758-8.886,3.278-13.766c1.602-4.881,2.962-9.921,4.243-13.524
		c1.442-3.602,2.399-6.002,2.399-6.002l1.207,0.496l0.004,0.004h0.004l0.145,0.058c0,0,0.961-2.321,2.321-5.919
		c1.442-3.603,3.923-8.085,6.084-12.727c2.239-4.638,5.201-8.882,7.042-12.242c1.922-3.361,3.442-5.443,3.442-5.443l1.199,0.883
		c0,0,1.758-2.403,4.4-6.084c2.481-3.842,6.482-8.323,10.484-12.883c3.762-4.802,8.482-8.561,11.683-11.926
		c1.52-1.598,3.044-2.802,4.083-3.598c1.039-0.883,1.598-1.36,1.598-1.36l1.008,1.294l0.015,0.019l0,0l0.098,0.125
		c0,0,2.72-2.161,6.803-5.521c4.24-2.962,10.003-7.042,16.083-10.484c1.567-0.844,3.094-1.688,4.642-2.532l1.106-0.477
		c-16.267,12.633-28.314,30.932-28.314,57.506c0,35.586,21.55,68.893,45.948,91.838c0.543,0.515,1.07,1.07,1.622,1.578
		c1.059,0.969,2.126,1.844,3.192,2.774c10.269,9.03,20.842,16.212,30.482,20.752c7.858,3.759,14.989,5.814,20.628,5.814
		c5.674,0,12.847-2.074,20.748-5.857c7.577-3.579,15.736-8.78,23.867-15.212c0.317-0.246,0.629-0.461,0.942-0.711
		c1.438-1.153,2.857-2.422,4.286-3.654c1.582-1.352,3.166-2.669,4.732-4.106c0.066-0.066,0.137-0.137,0.203-0.199
		c24.914-22.968,47.175-56.838,47.175-93.018c0-18.932-6.178-33.6-15.571-45.081c-0.34-0.422-0.653-0.851-1.001-1.27
		c-0.996-1.161-2.051-2.254-3.114-3.349c-2.574-2.716-5.33-5.346-8.413-7.811c1.81,1.005,3.662,2.009,5.53,3.013
		c6.084,3.442,11.843,7.522,16.087,10.484c4.079,3.36,6.798,5.521,6.798,5.521l1.122-1.438c0,0,0.563,0.477,1.602,1.36
		c1.039,0.797,2.481,2,4.079,3.598c3.2,3.365,7.924,7.123,11.683,11.926c3.923,4.56,7.925,9.042,10.406,12.883
		c2.642,3.681,4.4,6.084,4.4,6.084l1.282-0.883c0,0,1.52,2.082,3.438,5.443c1.845,3.36,4.802,7.604,6.963,12.242
		c2.243,4.642,4.724,9.124,6.084,12.727c1.438,3.598,2.399,5.919,2.399,5.919l1.36-0.558c0,0,0.961,2.399,2.403,6.002
		c1.278,3.603,2.641,8.643,4.239,13.524c1.52,4.881,2.321,10.003,3.282,13.766c0.879,3.681,1.2,6.24,1.2,6.24l2.078-0.398
		l2.321,12.801c0,0,0.321,0.722,0.563,2.161c0.32,1.36,0.801,3.36,1.278,5.763c1.122,4.802,2.563,11.203,3.282,17.767
		c0.48,3.278,0.879,6.561,1.359,9.683c0.161,3.04,0.321,6.002,0.481,8.479c0.402,4.962,0.563,8.322,0.563,8.322
		s0.558-3.278,1.278-8.241c0.402-2.559,0.879-5.443,1.359-8.561c0.321-3.122,0.481-6.482,0.802-9.847
		c0.718-6.799,0.718-13.602,0.641-18.725v-6.24c0.078-1.442-0.078-2.321-0.078-2.321l-2.481-13.524l1.879-0.363l0.043-0.004v-0.004
		l0.156-0.031c0,0-0.558-2.719-1.841-6.638c-1.282-3.923-2.559-9.285-4.56-14.486c-2-5.122-3.922-10.245-5.521-14.004
		c-1.762-3.763-2.962-6.244-2.962-6.244l1.195-0.563l0.02-0.004v-0.004l0.144-0.07c0,0-1.199-2.482-2.962-6.162
		c-1.841-3.759-4.802-8.401-7.522-13.203c-2.72-4.802-6.241-9.202-8.483-12.645c-2.322-3.438-4.08-5.522-4.08-5.522l1.005-0.734
		l0.07-0.039l-0.004-0.011l0.129-0.094c0,0-2.082-2.482-5.201-6.322c-2.962-3.919-7.682-8.483-12.324-13.126
		c-4.482-4.798-9.843-8.643-13.446-11.922c-1.841-1.602-3.521-2.723-4.721-3.521c-1.121-0.883-1.84-1.282-1.84-1.282l0.973-1.254
		l0.054-0.054l-0.007-0.004l0.102-0.129c0,0-3.122-2.161-7.842-5.439c-4.885-2.962-11.445-6.963-18.326-10.246
		c-1.122-0.481-2.161-1.039-3.282-1.52l0.161-0.961c0,0,12.082,3.282,23.925,7.283c11.141,3.61,21.937,7.741,23.199,8.229
		c0.011,0.008,0.098,0.043,0.098,0.047l0.004-0.008c0.027,0.008,0.148,0.055,0.148,0.055l0.399-1.36c0,0,2.481,0.961,6.162,2.481
		c3.681,1.36,8.566,3.439,13.368,5.6c4.88,2,9.6,4.322,13.121,6.002c3.005,1.434,5.091,2.411,5.67,2.685l0.106,0.05l0,0
		c0.035,0.016,0.149,0.066,0.149,0.066l0.558-1.282c0,0,2.403,1.203,5.842,3.044c3.521,1.758,8.163,4.239,12.645,6.881
		c8.62,4.842,16.646,10.331,17.518,10.926l0.035,0.031v-0.004c0.031,0.019,0.133,0.09,0.133,0.09l1.039-1.68
		c0,0,2.723,1.762,5.443,3.602c1.359,0.879,2.719,1.841,3.762,2.482c0.958,0.719,1.598,1.2,1.598,1.2s2.802,1.68,6.963,4.239
		c2.161,1.2,4.322,2.962,6.881,4.72c2.482,1.762,5.123,3.685,7.522,5.924c5.122,4.079,9.444,9.042,12.484,12.965
		c1.891,2.743,3.306,4.869,4.056,5.978l0.355,0.798c-0.042-0.114-0.144-0.379-0.246-0.634c0.16,0.234,0.324,0.477,0.398,0.578
		C511.758,367.687,510.636,364.808,508.956,360.724z M303.454,332.078c-34.414,3.278-60.499,3.278-94.913,0
		c-5.361-0.562-7.92-7.283-3.841-10.886c18.006-16.083,50.898-17.526,51.298-17.526c0.48,0,33.291,1.442,51.375,17.526
		C311.457,324.795,308.894,331.516,303.454,332.078z M310.816,350.405c4.239-0.481,7.842,3.278,6.963,7.44
		c-0.883,4.482-2.321,8.882-4.083,13.125c-0.879,2.161-3.04,3.602-5.283,3.759c-38.172,3.762-66.579,3.762-104.751,0
		c-2.322-0.157-4.4-1.598-5.283-3.759c-1.84-4.243-3.2-8.643-4.079-13.125c-0.879-4.162,2.719-7.921,6.963-7.44
		C241.674,354.566,270.401,354.566,310.816,350.405z M228.071,395.696c19.123,1.122,36.73,1.122,55.936,0
		c5.842-0.32,8.963,6.725,4.802,10.886c-6.244,6.322-12.722,11.762-18.486,15.762c-8.562,6.002-20.006,6.002-28.568,0
		c-5.842-4.001-12.246-9.44-18.568-15.762C219.107,402.421,222.226,395.376,228.071,395.696z" ></path>
</g>
</svg>
