<svg version="1.1" id="_x31_0" xmlns="http://www.w3.org/2000/svg" xmlns:xlink="http://www.w3.org/1999/xlink" x="0px" y="0px"
	 viewBox="0 0 512 512" xml:space="preserve">
<g>
	<path class="st0" d="M214.664,315.944c3.87,0,7.079-3.068,7.952-7.297c0.222-0.805,0.293-1.678,0.293-2.554
		c0-0.877-0.071-1.753-0.293-2.554c-0.873-4.233-4.082-7.297-7.952-7.297c-1.094,0-2.042,0.218-2.993,0.655
		c-3.064,1.386-5.18,4.963-5.18,9.196c0,4.233,2.116,7.806,5.18,9.192C212.623,315.723,213.571,315.944,214.664,315.944z" ></path>
	<path class="st0" d="M297.336,315.944c1.094,0,2.116-0.221,3.064-0.659c3.064-1.458,5.109-4.959,5.109-9.192
		c0-4.233-2.045-7.735-5.109-9.196c-0.948-0.438-1.97-0.655-3.064-0.655c-3.794,0-6.934,2.918-7.881,7.005
		c-0.218,0.876-0.364,1.824-0.364,2.846c0,1.019,0.146,1.97,0.364,2.843C290.402,313.022,293.541,315.944,297.336,315.944z" ></path>
	<path class="st0" d="M271.213,14.593L256.036,0l-15.178,14.593c-3.356,3.286-82.596,79.461-102.662,100.549
		c-21.814,22.984-17.073,42.903-14.009,50.418c6.42,15.978,22.766,25.613,44.802,26.489l4.959,0.218
		c1.094,0,2.116,0.074,3.135,0.074h0.003c-2.918,23.639-4.086,49.394-2.554,77.049c0.585,9.705,6.495,18.024,15.106,22.257
		c-2.116,4.304-3.214,9.192-3.214,14.447c0,11.746,5.694,21.814,14.301,27.07v18.459c0,22.182-10.214,40.06-30.205,53.267
		c-13.792,9.046-15.762,21.89-13.062,30.935c0.877,2.993,2.334,5.765,4.233,8.174c-7.735,10.652-5.839,20.282-4.378,24.515
		c3.502,9.851,12.986,16.271,24.152,16.271h0.726c0.15,4.162,1.169,8.319,3.068,12.114c4.667,9.338,14.08,15.102,24.586,15.102
		c11.604,0,22.474-6.42,32.254-19.189c3.292-4.265,6.402-8.676,9.42-13.261c1.586-2.358,3.1-4.682,4.554-7.033
		c4.222,7.414,8.95,13.891,13.827,20.294C279.678,505.58,290.548,512,302.152,512c10.506,0,19.919-5.765,24.586-15.102
		c1.97-3.794,2.993-7.952,3.068-12.114h0.726c11.237,0,20.65-6.42,24.152-16.271c1.461-4.233,3.356-13.863-4.378-24.515
		c1.899-2.409,3.356-5.181,4.233-8.174c2.7-9.046,0.73-21.89-12.986-30.935c-20.066-13.207-30.209-31.086-30.209-53.267v-18.534
		c8.536-5.252,14.23-15.249,14.23-26.995c0-5.255-1.169-10.143-3.139-14.447c8.537-4.307,14.447-12.552,15.032-22.257
		c1.486-26.814,0.395-51.802-2.33-74.85c-0.082-0.73-0.125-1.471-0.21-2.202c1.016,0,2.034-0.071,3.125-0.071l5.034-0.218
		c21.961-0.876,38.307-10.51,44.727-26.489c3.064-7.514,7.806-27.434-14.009-50.418C353.738,94.054,274.569,17.878,271.213,14.593z
		 M180.227,170.593c-3.356-0.217-6.787-0.292-10.364-0.434c-26.34-1.022-35.753-18.901-15.833-39.914
		c9.413-9.922,32.617-32.689,54.578-53.923C197.955,100.474,186.939,132.214,180.227,170.593z M329.514,423.202
		c6.346,4.161,4.742,8.611,0.146,8.611c-1.535,0-3.36-0.438-5.326-1.607c-11.048-6.346-25.855-16.499-35.638-29.603
		c-0.16-0.217-0.31-0.438-0.466-0.655c-0.638-0.873-1.247-1.757-1.835-2.654c-0.52-0.798-1.012-1.614-1.486-2.437
		c-0.203-0.342-0.41-0.677-0.602-1.019c-2.109-3.823-3.744-7.852-4.699-12.078c0.189,0.883,0.392,1.703,0.588,2.565
		c-0.36-1.182-0.698-2.373-0.955-3.587c7.08,33.71,16.856,50.053,48.742,71.358c7.439,5.986,7.953,10.799,2.551,10.799
		c-2.918,0-7.589-1.386-13.788-4.814c-17.226-9.413-32.054-25.613-40.622-43.534c-0.321-0.677-0.674-1.346-0.977-2.03
		c-0.099-0.228-0.185-0.46-0.285-0.688c-3.591-8.273-5.818-16.795-6.274-25.039c0.025,0.855,0.085,1.653,0.121,2.494
		c-0.089-0.83-0.214-1.664-0.267-2.49c1.386,45.311,14.957,68.223,37.506,91.57c3.866,5.18,1.824,11.746-3.794,11.746
		c-3.649,0-8.829-2.772-14.886-10.653c-14.376-18.68-27.583-38.086-30.572-97.264h-1.314c-2.993,59.178-16.271,78.584-30.573,97.264
		c-5.184,6.748-9.719,9.73-13.257,10.457c-0.125,0.025-0.25,0.057-0.374,0.074c-0.459,0.075-0.905,0.122-1.329,0.122
		c-5.543,0-7.589-6.566-3.719-11.746c16.139-16.77,27.694-33.358,33.454-58.134c2.284-9.698,3.719-20.632,4.197-33.43
		c-0.057,0.823-0.182,1.654-0.27,2.48c0.035-0.841,0.096-1.632,0.124-2.486c-1.824,27.654-22.474,57.129-48.304,71.287
		c-6.274,3.427-10.945,4.814-13.862,4.814c-5.402,0-4.888-4.814,2.626-10.799c24.958-16.677,36.308-30.347,43.498-51.653
		c0.225-0.656,0.453-1.311,0.67-1.981c0.131-0.41,0.256-0.827,0.385-1.24c1.506-4.785,2.878-9.951,4.161-15.69
		c-0.11,0.478-0.338,0.919-0.463,1.393c0.161-0.738,0.332-1.436,0.492-2.187c-0.253,1.2-0.591,2.376-0.948,3.545
		c-0.174,0.581-0.374,1.154-0.574,1.724c-7.094,20.237-28.783,35.664-43.573,44.2c-1.97,1.169-3.866,1.607-5.326,1.607
		c-4.596,0-6.274-4.45,0.146-8.611c22.328-14.739,40.056-38.233,40.056-71.58v-15.758c11.897-3.648,20.358-15.398,20.358-29.77
		c0-3.588-0.599-7.018-1.597-10.218c-0.103-0.385-0.153-0.783-0.267-1.165h22.453l7.346,0.046
		c-1.229,3.491-1.885,7.339-1.885,11.337c0,14.372,8.537,26.122,20.43,29.77v15.758c0,1.67,0.235,3.206,0.32,4.824
		c0.061,1.126,0.125,2.245,0.225,3.338c0.253,2.786,0.634,5.49,1.137,8.126c0.26,1.375,0.523,2.747,0.844,4.072
		c0.392,1.607,0.794,3.203,1.275,4.753c0.659,2.138,1.408,4.19,2.213,6.186c0.556,1.378,1.14,2.736,1.767,4.062
		c0.909,1.934,1.881,3.805,2.91,5.6c0.745,1.301,1.522,2.562,2.33,3.806c1.03,1.582,2.091,3.114,3.196,4.582
		c1.022,1.368,2.088,2.69,3.185,3.983c0.26,0.306,0.531,0.588,0.791,0.887C315.498,412.552,322.204,418.391,329.514,423.202z
		 M201.019,306.093c0-4.454,1.39-8.466,3.723-11.383h6.93h10.945h2.046c2.262,2.918,3.719,6.93,3.719,11.383
		c0,5.618-2.258,10.506-5.765,13.425c-2.187,1.898-4.959,2.992-7.952,2.992c-1.022,0-2.042-0.146-2.993-0.438
		C205.472,320.54,201.019,314.045,201.019,306.093z M283.619,306.093c0-4.454,1.457-8.466,3.794-11.383h2.042H300.4h6.858
		c2.262,2.918,3.722,6.93,3.722,11.383c0,7.881-4.453,14.372-10.581,15.979c-0.948,0.292-2.042,0.438-3.064,0.438
		c-2.918,0-5.618-1.094-7.881-2.918C285.952,316.67,283.619,311.782,283.619,306.093z M315.648,268.149
		c-0.143,2.046-1.896,3.723-4.304,4.379c-0.656,0.217-1.461,0.292-2.188,0.292H202.844c-0.727,0-1.458-0.075-2.117-0.292
		c-2.405-0.656-4.158-2.334-4.304-4.379c-1.46-26.268-0.363-50.638,2.338-73.037c0.434-3.794,0.948-7.442,1.532-11.091
		c0.51-3.722,1.094-7.371,1.75-10.874c12.406-70.265,39.985-116.67,50.128-131.922c0.948-1.386,2.409-2.113,3.866-2.113
		c1.461,0,2.922,0.727,3.794,2.113c10.143,15.252,37.722,61.658,50.203,131.922c0.655,3.502,1.24,7.151,1.75,10.874
		c0.584,3.649,1.094,7.297,1.46,11.091C316.015,217.511,317.108,241.881,315.648,268.149z M342.208,170.158
		c-3.574,0.142-7.075,0.218-10.435,0.434c-6.712-38.378-17.729-70.119-28.381-94.271c21.961,21.234,45.165,44.001,54.578,53.923
		C377.961,151.258,368.477,169.136,342.208,170.158z" ></path>
</g>
</svg>
