<?xml version="1.0" encoding="utf-8"?>
<!-- Generator: Adobe Illustrator 19.1.1, SVG Export Plug-In . SVG Version: 6.00 Build 0)  -->
<svg version="1.1" id="_x31_0" xmlns="http://www.w3.org/2000/svg" xmlns:xlink="http://www.w3.org/1999/xlink" x="0px" y="0px"
	 viewBox="0 0 512 512" style="enable-background:new 0 0 512 512;" xml:space="preserve">
<style type="text/css">
	.st0{fill:#374149;}
</style>
<g>
	<path class="st0" d="M346.094,457.977c-18.844-12.59-31.199-23.527-39.993-36.898c-1.934-3.012-3.71-6.102-5.277-9.367
		c10.836,11.179,24.133,20.203,35.882,26.957c2.922,1.683,5.844,2.566,8.68,2.566c4.426,0,7.969-2.301,9.031-5.934
		c0.621-2.035,1.152-7.438-6.817-12.664c-21.258-13.992-46.5-39.676-46.586-82.898c-0.797,0.09-1.508,0-2.215-0.176
		c-0.797,0-1.507-0.179-2.214-0.355c-10.454-2.566-18.157-13.106-18.157-25.95c0-2.359,0.317-4.695,0.813-6.867
		c0.066-0.218,0.09-0.469,0.164-0.679h-0.031c0.012-0.051,0.016-0.11,0.031-0.157h-37.179l-9.52-0.042
		c0.004,0.011,0.004,0.027,0.008,0.042h-0.16c0.617,2.391,0.973,5.047,0.973,7.703c0,12.844-7.618,23.293-18.066,25.95
		c-0.711,0.176-1.418,0.266-2.215,0.355c-0.711,0.176-1.418,0.266-2.215,0.176c-0.09,43.222-25.507,68.906-46.675,82.898
		c-7.969,5.226-7.348,10.629-6.73,12.664c1.062,3.633,4.605,5.934,9.035,5.934c2.746,0,5.758-0.883,8.679-2.566
		c9.758-5.61,20.465-12.914,30.09-21.558c1.997-1.738,4.008-3.454,5.918-5.328c-8.942,17.855-22.278,30.718-45.129,45.93
		c-7.707,6.199-10.719,11.687-9.125,16.293c0.531,1.508,2.39,4.961,8.414,4.961c4.695,0,11.25-2.214,18.954-6.379
		c14.816-8.144,27.968-19.996,38.234-33.594c2.586-3.363,5.046-6.828,7.297-10.426c-7.203,25.394-20.063,43.27-37.738,61.645
		l-0.266,0.179l-0.086,0.266c-3.542,4.695-4.339,10.626-2.039,15.234c1.95,3.805,5.758,6.11,10.098,6.11
		c4.695,0,12.308-2.57,21.609-14.703c12.172-15.742,22.618-31.477,29.618-58.324c1.863-7,3.519-14.746,4.91-23.496
		c6.398,42.187,19.024,61.969,34.29,81.82C299.774,509.43,307.301,512,311.996,512c4.43,0,8.149-2.305,10.098-6.11
		c2.301-4.609,1.503-10.539-1.95-15.234l-0.176-0.266l-0.179-0.179c-11.094-11.539-20.332-22.871-27.454-35.993
		c-0.156-0.293-0.301-0.605-0.453-0.898c-1.153-2.16-2.246-4.367-3.282-6.633c-2.507-5.586-4.703-11.609-6.492-18.168
		c10.973,17.958,26.867,33.887,45.477,44.066c7.613,4.165,14.168,6.379,18.953,6.379c5.934,0,7.793-3.453,8.324-4.961
		C356.458,469.398,353.446,463.91,346.094,457.977z"/>
	<path class="st0" d="M213.246,305.554h-2.215h-8.855c-1.152,2.126-1.859,4.782-1.859,7.703c0,7.352,4.426,13.286,9.918,13.286
		c0.266,0,0.531,0,0.797-0.09c0.798,0,1.504-0.266,2.215-0.617c0.797-0.266,1.504-0.711,2.215-1.332
		c2.922-2.211,4.781-6.465,4.781-11.246c0-2.922-0.707-5.578-1.859-7.703h-2.922H213.246z"/>
	<path class="st0" d="M298.801,305.554h-2.214h-3.012c-1.152,2.126-1.859,4.782-1.859,7.703c0,4.871,1.949,9.035,4.871,11.336
		c0.707,0.622,1.418,1.062,2.214,1.328c0.707,0.356,1.418,0.531,2.215,0.531c0.266,0.09,0.442,0.09,0.707,0.09
		c5.492,0,9.918-5.934,9.918-13.286c0-2.922-0.707-5.578-1.859-7.703h-8.766H298.801z"/>
	<path class="st0" d="M216.61,31.152c3.379-6.523,6.668-12.426,9.766-17.664c-0.125,0.122-0.266,0.258-0.39,0.379
		c0.09-0.16,0.187-0.336,0.281-0.492c-31.351,30.289-78.382,75.988-94.058,92.461c-24.179,25.508-12.754,47.207,19.219,48.446
		c8.148,0.355,15.855,0.531,23.027,1.152C184.844,101.617,202.13,59.527,216.61,31.152z"/>
	<path class="st0" d="M307.754,34.695c-7.512-7.34-14.958-14.61-22.012-21.492c0.082,0.145,0.172,0.32,0.258,0.461
		c-0.129-0.121-0.27-0.258-0.398-0.379c15.59,26.926,39.059,75.637,51.902,142.149c7.172-0.621,14.969-0.797,23.114-1.152
		c31.886-1.238,43.398-22.938,19.133-48.446C367.473,92.934,335.926,62.016,307.754,34.695z"/>
	<path class="st0" d="M183.664,282.082c0.176,3.187,3.633,5.758,7.794,5.758h11.781h7.793h2.215h2.215h1.769h77.497h1.859h2.214
		h2.215h7.703H320.5c4.161,0,7.703-2.57,7.883-5.758c2.477-46.231-1.328-87.68-8.414-123.727
		C301.902,66.164,263.153,9.848,256.958,1.282c-0.469-0.676-0.794-1.141-0.809-1.184l-0.027,0.035C256.11,0.117,256.024,0,256.024,0
		s-44.371,58.012-64.035,158.355C184.993,194.402,181.094,235.851,183.664,282.082z M213.336,148.258
		c3.188-12.398,13.637-20.367,23.469-17.89c9.742,2.481,15.055,14.527,11.958,26.926c-3.192,12.398-13.641,20.458-23.473,17.981
		C215.547,172.793,210.145,160.656,213.336,148.258z"/>
</g>
</svg>
