<svg version="1.1" id="_x31_0" xmlns="http://www.w3.org/2000/svg" xmlns:xlink="http://www.w3.org/1999/xlink" x="0px" y="0px"
	 viewBox="0 0 512 512" xml:space="preserve">
<g>
	<path class="st0" d="M284.261,464.496c-0.023,0.004-0.051,0.004-0.078,0.008c0.02-0.051,0.035-0.114,0.055-0.164
		c-8.79,1.32-17.883,2.019-27.364,2.019c-6.082,0-11.972-0.347-17.769-0.945c-1.039-0.133-2.133-0.184-3.149-0.348
		c0.004,0.023,0.016,0.043,0.023,0.066c-0.058-0.008-0.117-0.008-0.179-0.016c4.281,13.137,15.55,27.989,41.906,39.414
		c-0.782-10.836,1.105-23.211,4.507-34.066C282.874,468.45,283.48,466.386,284.261,464.496z"></path>
	<path class="st0" d="M234.871,71.199c4.742,0,8.629-4.191,8.629-9.406c0-5.207-3.887-9.406-8.629-9.406
		c-4.821,0-8.626,4.199-8.626,9.406C226.245,67.008,230.05,71.199,234.871,71.199z"></path>
	<path class="st0" d="M278.871,71.199c4.746,0,8.633-4.191,8.633-9.406c0-5.207-3.887-9.406-8.633-9.406
		c-4.817,0-8.703,4.199-8.703,9.406C270.168,67.008,274.054,71.199,278.871,71.199z"></path>
	<path class="st0" d="M418.675,109.301c-3.5-0.855-7.074-1.242-10.652-1.242c-7.547,0-14.766,1.867-21.637,4.79
		c-0.054,0.023-0.106,0.042-0.156,0.066c-14.157,6.062-26.691,17.007-36.668,28.183c-2.254,2.641-4.508,5.289-6.454,7.852
		c-2.175,2.718-4.117,5.285-5.832,7.773c-2.484-1.863-5.05-3.578-7.773-5.206c1.789-2.723,3.422-5.52,4.976-8.399
		c1.555-2.953,3.035-6.062,4.274-9.171c4.824-11.504,7.465-24.024,7.465-36.77C346.218,46.332,303.617,0,256.894,0
		c-46.797,0-89.398,46.332-89.398,97.176c0,12.746,2.641,25.266,7.461,36.77c1.246,3.109,2.722,6.218,4.274,9.171
		c1.558,2.879,3.191,5.676,5.058,8.399c-3.114,1.867-6.066,3.886-8.946,6.14c-1.706-2.488-3.652-5.133-5.828-7.855
		c-1.945-2.562-4.121-5.207-6.453-7.848c-14.848-16.945-35.606-33.894-59.16-33.894c-3.578,0-7.153,0.387-10.653,1.242
		c-32.648,7.309-64.679,60.016-63.824,92.59c0.547,22.157,14.382,38.793,35.218,42.371c3.962,0.695,7.93,1.008,11.891,1.008
		c10.578,0,20.058-2.41,28.301-5.985c4.43-1.863,8.472-4.042,12.046-6.374c0.313-0.234,0.622-0.391,0.934-0.622
		c2.954,1.786,5.832,3.34,8.398,4.821c-4.199,17.023-6.141,34.828-6.141,52.394c0,26.742,4.43,54.11,14.692,78.285
		c-1.524,0.61-2.942,1.402-4.418,2.094c-0.175,0.082-0.351,0.167-0.523,0.25c-1.359,0.649-2.778,1.195-4.078,1.934
		c-3.109,1.633-6.062,3.496-8.863,5.676c-7.93,5.906-14.222,13.606-17.801,23.55c-9.797,26.981,7.852,63.207,19.825,80.309
		C136.554,506.793,154.511,512,166.484,512c11.738,0,22.622-4.898,30.786-13.836c10.339-11.274,15.469-24.258,17.492-36.778
		c0.543-3.418,0.93-6.839,1.008-10.179c0.078-1.481,0.078-2.801,0.078-4.199c2.875-1.481,5.52-2.875,8.008-4.195
		c3.191,0.773,6.531,1.32,9.875,1.706c7.305,1.09,15,1.633,23.164,1.633c13.762,0,26.351-1.476,37.781-4.43c0.082,0,0.082,0,0.082,0
		c0.074,0,0.074,0,0.152,0.078h0.078c0.156,0,0.313,0,0.543,0.078c1.402,0.777,2.878,1.554,4.434,2.328
		c1.707,0.934,3.422,1.867,5.285,2.801v2.175c0.078,3.344,0.309,6.84,0.778,10.34c1.789,13.062,6.922,26.742,17.805,38.641
		c8.164,8.938,19.046,13.836,30.785,13.836c11.973,0,29.93-5.207,47.578-30.398c11.973-17.102,29.617-53.328,19.82-80.309
		c-4.43-12.277-12.98-21.141-23.554-27.438c-2.875-1.789-5.985-3.422-9.172-4.742v-0.078c-3.074-1.309-6.148-2.453-9.297-3.461
		c-0.035-0.016-0.07-0.027-0.11-0.043c9.562-23.629,13.758-50.141,13.758-76.027c0-17.805-2.02-35.992-6.371-53.254
		c2.171-1.238,4.43-2.567,6.839-3.962c1.008,0.622,2.024,1.321,3.032,1.863c3.578,2.254,7.538,4.278,11.894,5.91
		c7.773,3.188,16.637,5.207,26.43,5.207c3.886,0,7.855-0.313,11.816-1.008c20.836-3.578,34.672-20.214,35.297-42.371
		C483.355,169.317,451.324,116.61,418.675,109.301z M430.515,213.82c-2.316-0.301-4.539-0.789-6.66-1.437
		c-0.226-0.07-0.453-0.133-0.68-0.207c-15.945-5.18-25.957-18.684-25.957-18.684c-1.011,0.703-2.019,1.402-3.031,2.102
		c-3.031,2.023-5.91,3.887-8.785,5.676c-2.782,1.711-5.391,3.254-7.91,4.703c-0.242,0.125-0.485,0.293-0.726,0.414
		c-4.508-9.867-10.102-19.191-16.786-27.664c1.555-2.254,3.574-5.05,5.985-8.16c1.945-2.566,4.199-5.289,6.609-8.086
		c10.106-11.504,23.321-23.321,35.45-23.321c1.246,0,2.566,0.153,3.809,0.465c21.457,4.821,56.672,69.422,30.164,74.008
		c-2.254,0.39-4.43,0.547-6.531,0.547c-1.125,0-2.211-0.09-3.297-0.184C431.613,213.942,431.058,213.894,430.515,213.82z
		 M354.617,480.902c-2.801,0-5.519-1.09-7.851-3.73c-8.79-9.562-10.73-21.222-10.418-30.629c0.078-5.211,0.93-9.797,1.786-12.989
		c0.703-3.027,1.402-4.894,1.402-4.894c-1.59-0.664-3.122-1.332-4.664-1.996c-0.774-0.371-1.586-0.668-2.336-1.09
		c13.023-8.625,23.73-19.485,32.339-31.898c3.344,0.777,6.692,1.789,9.798,3.031c3.422,1.324,6.531,2.878,9.254,4.668
		c4.195,2.797,7.386,6.218,8.863,10.496C399.316,429.828,373.429,480.902,354.617,480.902z M243.519,205.606
		c-0.191,1.844-0.527,3.718-1.05,5.594c0,0-0.004,0.012-0.008,0.019c-1.637,5.864-4.887,11.746-9.664,16.871
		c-3.102,3.328-6.578,6.008-10.195,8.047c-0.141,0.078-0.274,0.172-0.414,0.25c-1.66,0.91-3.351,1.649-5.05,2.278
		c-0.332,0.125-0.664,0.242-0.996,0.355c-1.684,0.57-3.379,1.024-5.059,1.313c-0.234,0.039-0.461,0.051-0.695,0.086
		c-7.446,1.098-14.594-0.578-19.726-5.406c-10.496-9.801-8.707-28.848,4.043-42.528c3.105-3.332,6.582-6.011,10.203-8.054
		c0.136-0.074,0.266-0.168,0.402-0.242c1.661-0.91,3.36-1.652,5.063-2.281c0.328-0.122,0.652-0.242,0.98-0.352
		c1.688-0.57,3.383-1.023,5.062-1.312c0.234-0.039,0.465-0.051,0.699-0.086c7.45-1.098,14.594,0.582,19.727,5.406
		c5.206,4.828,7.367,11.906,6.722,19.473C243.546,205.226,243.539,205.414,243.519,205.606z M203.175,121.039
		c-2.953-7.387-4.586-15.465-4.586-23.863c0-36.465,31.254-66.078,58.305-66.078c26.977,0,58.226,29.614,58.226,66.078
		c0,8.398-1.633,16.476-4.504,23.863c-1.246,3.191-2.722,6.218-4.355,9.098c-1.711,3.031-3.578,5.91-5.672,8.625
		c-12.988-3.805-27.523-5.906-43.695-5.906c-16.168,0-30.707,2.102-43.687,5.906c-2.102-2.714-4.043-5.594-5.758-8.625
		C205.816,127.258,204.34,124.23,203.175,121.039z M184.199,427.531c-0.836,0.379-1.734,0.754-2.633,1.129
		c0,0,1.55,3.965,2.484,10.027c0.543,3.344,0.938,7.387,0.699,11.742c-0.309,8.551-2.797,18.422-10.414,26.742
		c-2.332,2.641-5.055,3.73-7.852,3.73c-18.816,0-44.699-51.074-38.172-69.031c0.856-2.41,2.254-4.59,4.122-6.535
		c2.254-2.328,5.129-4.348,8.394-6.058c2.797-1.559,5.91-2.801,9.25-3.891c7.59,10.661,16.934,20.008,27.918,27.786
		C180.039,424.656,182.058,426.168,184.199,427.531z M146.797,188.722c-1.742,2.684-3.418,5.406-4.981,8.223
		c-1.84,3.262-3.637,6.617-5.347,10.152c-2.715-1.481-5.516-3.183-8.543-5.05c-2.801-1.715-5.754-3.578-8.789-5.602
		c-1.477-0.93-2.954-1.942-4.43-2.954c0,0-15.317,20.684-38.172,20.684c-2.172,0-4.352-0.157-6.61-0.547
		c-26.43-4.586,8.789-69.187,30.168-74.008c1.242-0.312,2.566-0.465,3.809-0.465c12.515,0,26.199,12.512,36.382,24.41
		c2.41,2.797,4.586,5.594,6.531,8.086c2.489,3.184,4.508,6.063,5.985,8.238c-1.031,1.325-1.863,2.801-2.836,4.172
		C148.886,185.574,147.832,187.129,146.797,188.722z"></path>
</g>
</svg>
