<svg version="1.1" id="_x32_" xmlns="http://www.w3.org/2000/svg" xmlns:xlink="http://www.w3.org/1999/xlink" x="0px" y="0px"
 viewBox="0 0 512 512" style="enable-background:new 0 0 512 512;" xml:space="preserve">
<g>
	<path class="st0" d="M139.751,425.911c-17.289-5.507-34.574-3.84-45.38,3.18c4.098,11.734,16.794,22.895,34.09,28.381
		c17.282,5.492,34.571,3.84,45.373-3.188C169.736,442.558,157.036,431.375,139.751,425.911z" style="fill:#7cfc00;"></path>
	<path class="st0" d="M126.603,407.319c8.478-8.768,12.656-23.975,9.836-40.115c-2.816-16.133-11.885-28.888-22.804-34.05
		c-8.47,8.76-12.667,23.974-9.84,40.114C106.612,389.394,115.688,402.171,126.603,407.319z" style="fill:#7cfc00;"></path>
	<path class="st0" d="M68.398,359.405c-14.924-9.421-31.862-11.926-44.147-7.718c0.581,12.322,9.517,26.126,24.442,35.548
		c14.921,9.414,31.855,11.917,44.143,7.703C92.252,382.609,83.319,368.826,68.398,359.405z" style="fill:#7cfc00;"></path>
	<path class="st0" d="M79.266,273.785c-9.271,6.843-15.568,20.406-15.483,35.885c0.081,15.479,6.517,28.778,15.861,35.247
		c9.274-6.858,15.568-20.406,15.483-35.893C95.042,293.553,88.606,280.261,79.266,273.785z" style="fill:#7cfc00;"></path>
	<path class="st0" d="M55.137,248.649c11.411-2.32,23.182-11.94,30.099-25.972c6.936-14.032,7.156-28.734,1.7-38.485
		c-11.419,2.328-23.193,11.94-30.11,25.988C49.898,224.197,49.666,238.905,55.137,248.649z" style="fill:#7cfc00;"></path>
	<path class="st0" d="M38.428,213.19c8.602-6.888,14.087-20.069,13.39-34.872c-0.687-14.804-7.373-27.273-16.581-33.132
		c-8.603,6.881-14.099,20.054-13.398,34.865C22.519,194.847,29.216,207.33,38.428,213.19z" style="fill:#7cfc00;"></path>
	<path class="st0" d="M124.638,116.915c-10.519-1.05-23.633,4.148-33.983,14.488c-10.347,10.339-15.164,23.057-13.545,32.992
		c10.526,1.05,23.634-4.148,33.981-14.488C121.438,139.569,126.258,126.865,124.638,116.915z" style="fill:#7cfc00;"></path>
	<path class="st0" d="M93.321,106.473c4.479-12.527,3.268-24.937-2.254-32.603c-9.388,3.113-18.369,12.402-22.856,24.937
		c-4.483,12.512-3.267,24.93,2.262,32.596C79.854,128.275,88.834,119,93.321,106.473z" style="fill:#7cfc00;"></path>
	<path class="st0" d="M144.134,82.05c9.678-9.583,14.228-21.39,12.752-30.665c-9.781-1.006-22,3.775-31.689,13.365
		c-9.668,9.575-14.206,21.398-12.744,30.65C122.241,96.421,134.464,91.64,144.134,82.05z" style="fill:#7cfc00;"></path>
	<path class="st0" d="M34.932,262.477c-8.463-13.012-21.185-20.928-32.739-21.64c-4.27,10.486-2.343,25.099,6.109,38.096
		c8.452,13.005,21.184,20.928,32.739,21.633C45.301,290.072,43.384,275.466,34.932,262.477z" style="fill:#7cfc00;"></path>
	<path class="st0" d="M372.251,425.911c-17.286,5.464-29.982,16.647-34.087,28.373c10.802,7.028,28.088,8.68,45.381,3.188
		c17.293-5.486,29.988-16.647,34.086-28.381C406.822,422.071,389.544,420.404,372.251,425.911z" style="fill:#7cfc00;"></path>
	<path class="st0" d="M375.562,367.203c-2.82,16.14,1.359,31.347,9.84,40.115c10.912-5.148,19.995-17.924,22.807-34.05
		c2.82-16.14-1.373-31.354-9.846-40.114C387.443,338.316,378.382,351.071,375.562,367.203z" style="fill:#7cfc00;"></path>
	<path class="st0" d="M443.604,359.405c-14.922,9.421-23.858,23.204-24.445,35.533c12.292,4.214,29.233,1.711,44.146-7.703
		c14.928-9.422,23.872-23.226,24.452-35.548C475.472,347.479,458.532,349.984,443.604,359.405z" style="fill:#7cfc00;"></path>
	<path class="st0" d="M432.736,273.785c-9.341,6.476-15.788,19.768-15.854,35.239c-0.088,15.487,6.205,29.034,15.464,35.893
		c9.355-6.469,15.788-19.768,15.869-35.247C448.303,294.191,442.01,280.628,432.736,273.785z" style="fill:#7cfc00;"></path>
	<path class="st0" d="M425.077,184.192c-5.464,9.752-5.25,24.453,1.681,38.485c6.924,14.032,18.696,23.652,30.114,25.972
		c5.464-9.744,5.228-24.453-1.696-38.47C448.266,196.132,436.488,186.52,425.077,184.192z" style="fill:#7cfc00;"></path>
	<path class="st0" d="M473.578,213.19c9.208-5.86,15.905-18.343,16.588-33.14c0.697-14.811-4.795-27.984-13.402-34.865
		c-9.208,5.86-15.89,18.328-16.581,33.132C459.479,193.121,464.979,206.302,473.578,213.19z" style="fill:#7cfc00;"></path>
	<path class="st0" d="M434.887,164.395c1.622-9.935-3.202-22.654-13.541-32.992c-10.353-10.339-23.461-15.538-33.991-14.488
		c-1.608,9.95,3.202,22.654,13.555,32.992C411.257,160.247,424.357,165.445,434.887,164.395z" style="fill:#7cfc00;"></path>
	<path class="st0" d="M441.533,131.403c5.522-7.666,6.741-20.083,2.254-32.596c-4.479-12.534-13.46-21.824-22.852-24.937
		c-5.522,7.666-6.734,20.076-2.254,32.603C423.175,119,432.141,128.275,441.533,131.403z" style="fill:#7cfc00;"></path>
	<path class="st0" d="M399.545,95.399c1.469-9.252-3.069-21.074-12.74-30.65c-9.686-9.59-21.904-14.371-31.686-13.365
		c-1.476,9.274,3.077,21.082,12.748,30.665C377.538,91.64,389.756,96.421,399.545,95.399z" style="fill:#7cfc00;"></path>
	<path class="st0" d="M509.809,240.836c-11.551,0.713-24.277,8.628-32.736,21.64c-8.459,12.99-10.368,27.595-6.11,38.088
		c11.551-0.705,24.291-8.628,32.736-21.633C512.151,265.935,514.074,251.323,509.809,240.836z" style="fill:#7cfc00;"></path>
</g>
</svg>
